/* XPM */ 
static const char * logo_xpm[] = {
"32 32 746 2",
"  	c None",
"! 	c black",
"# 	c #C4A54D",
"$ 	c #B09034",
"% 	c #A07D21",
"& 	c #9E7F25",
"' 	c #B29846",
"( 	c #B3A35F",
") 	c #C5A64D",
"* 	c #9C823A",
"+ 	c #6A5C3B",
", 	c #40404B",
"- 	c #2E3556",
". 	c #434246",
"0 	c #474545",
"1 	c #454345",
"2 	c #46444B",
"3 	c #6A6043",
"4 	c #A08A45",
"5 	c #C3A54B",
"6 	c #C1A250",
"7 	c #736236",
"8 	c #282F52",
"9 	c #001679",
": 	c #092078",
"; 	c #2C3662",
"< 	c #0B2382",
"= 	c #554E47",
"> 	c #92721B",
"? 	c #47464F",
"@ 	c #001C8A",
"A 	c #0A227C",
"B 	c #001A80",
"C 	c #262E55",
"D 	c #74653B",
"E 	c #C7AB57",
"F 	c #917632",
"G 	c #393734",
"H 	c #091F6E",
"I 	c #0F2473",
"J 	c #554C41",
"K 	c #4F473B",
"L 	c #A57E10",
"M 	c #243067",
"N 	c #4C494F",
"O 	c #846920",
"P 	c #705D28",
"Q 	c #8E7325",
"R 	c #5A5241",
"S 	c #4F4C53",
"T 	c #353D61",
"U 	c #2F3655",
"V 	c #2B2E4C",
"W 	c #987C2F",
"X 	c #D0B159",
"Y 	c #6D5D38",
"Z 	c #001377",
"[ 	c #404148",
"] 	c #927420",
"^ 	c #6D5925",
"_ 	c #9B7717",
"` 	c #373740",
"a 	c #69572B",
"b 	c #001A7C",
"c 	c #30375A",
"d 	c #464445",
"e 	c #2F3551",
"f 	c #6F5E31",
"g 	c #554D38",
"h 	c #8B6D1B",
"i 	c #806720",
"j 	c #846B27",
"k 	c #0A2186",
"l 	c #00197F",
"m 	c #716031",
"n 	c #DCC685",
"o 	c #544A35",
"p 	c #001684",
"q 	c #53504E",
"r 	c #5B543C",
"s 	c #8A7021",
"t 	c #574D39",
"u 	c #303455",
"v 	c #1D295B",
"w 	c #383A48",
"x 	c #5E5742",
"y 	c #72673C",
"z 	c #73683B",
"{ 	c #575249",
"| 	c #343951",
"} 	c #232D5C",
"~ 	c #33374C",
" !	c #7B6426",
"!!	c #8C6F20",
"#!	c #575043",
"$!	c #47475A",
"%!	c #00188E",
"&!	c #5D5236",
"'!	c #6A5C34",
"(!	c #001B81",
")!	c #323B61",
"*!	c #9B7A17",
"+!	c #97781F",
",!	c #41424B",
"-!	c #252D5B",
".!	c #635B44",
"0!	c #BD9F25",
"1!	c #EFC922",
"2!	c #E7C727",
"3!	c #817F5A",
"4!	c #787757",
"5!	c #E6C423",
"6!	c #EDC822",
"7!	c #BA9E2A",
"8!	c #605A45",
"9!	c #363642",
":!	c #4F483B",
";!	c #957419",
"<!	c #655832",
"=!	c #343F6B",
">!	c #001B88",
"?!	c #6C5E37",
"@!	c #93814C",
"A!	c #172661",
"B!	c #756534",
"C!	c #887027",
"D!	c #695B33",
"E!	c #3F3F4C",
"F!	c #44454C",
"G!	c #C7AA26",
"H!	c #FCD825",
"I!	c #FBD72A",
"J!	c #FDD92A",
"K!	c #E6C831",
"L!	c #4F5A76",
"M!	c #465271",
"N!	c #DEC02C",
"O!	c #FDD82A",
"P!	c #FDD725",
"Q!	c #C1A324",
"R!	c #3C3F50",
"S!	c #2E3457",
"T!	c #655833",
"U!	c #91721A",
"V!	c #3C415D",
"W!	c #1C2A61",
"X!	c #9A833E",
"Y!	c #CDB66D",
"Z!	c #1C2B66",
"[!	c #1E3076",
"]!	c #6C6035",
"^!	c #927622",
"_!	c #2A3569",
"`!	c #494A4F",
"a!	c #E9C620",
"b!	c #FBD829",
"c!	c #F4D22B",
"d!	c #F3D02A",
"e!	c #F6D32A",
"f!	c #F0CE2B",
"g!	c #686A69",
"h!	c #6D7262",
"i!	c #ECCA27",
"j!	c #F5D129",
"k!	c #F5D12A",
"l!	c #F7D42B",
"m!	c #FFDA2A",
"n!	c #E7C220",
"o!	c #474853",
"p!	c #333852",
"q!	c #3D3E41",
"r!	c #8C6F25",
"s!	c #605641",
"t!	c #222C4D",
"u!	c #CAB169",
"v!	c #736741",
"w!	c #1C2C73",
"x!	c #535147",
"y!	c #9E801D",
"z!	c #353C5A",
"{!	c #434653",
"|!	c #EBC720",
"}!	c #FCD92C",
"~!	c #F3D12A",
" #	c #F2CE2A",
"!#	c #F4D12B",
"##	c #F8D52C",
"$#	c #E6C624",
"%#	c #6A6A47",
"&#	c #717941",
"'#	c #F0CC24",
"(#	c #F3CE29",
")#	c #F3CF2A",
"*#	c #F4D02A",
"+#	c #FED92A",
",#	c #E7C11F",
"-#	c #373F5E",
".#	c #524E44",
"0#	c #7A6528",
"1#	c #605844",
"2#	c #0E2376",
"3#	c #786739",
"4#	c #CCB770",
"5#	c #1F2E68",
"6#	c #4D4D4D",
"7#	c #816D2D",
"8#	c #695D39",
"9#	c #222F63",
":#	c #CBAE23",
";#	c #FFDE2C",
"<#	c #F6D52B",
"=#	c #F4D22C",
">#	c #F2D02C",
"?#	c #FFD82B",
"@#	c #E5C527",
"A#	c #516B32",
"B#	c #455928",
"C#	c #F0CC27",
"D#	c #F9D229",
"E#	c #F0CD2A",
"F#	c #F1CD29",
"G#	c #F0CB28",
"H#	c #F2CD29",
"I#	c #FCD529",
"J#	c #C9A722",
"K#	c #1A2B6A",
"L#	c #45464D",
"M#	c #836C29",
"N#	c #4C4A43",
"O#	c #283050",
"P#	c #CBB266",
"Q#	c #998751",
"R#	c #011C86",
"S#	c #675D3F",
"T#	c #645931",
"U#	c #393E57",
"V#	c #6B6440",
"W#	c #FEDA24",
"X#	c #F7D62A",
"Y#	c #F8D72A",
"Z#	c #F5D32C",
"[#	c #F6D22B",
"]#	c #CABC28",
"^#	c #617521",
"_#	c #31551E",
"`#	c #1A3414",
"a#	c #5D661C",
"b#	c #CFB82A",
"c#	c #F7D42C",
"d#	c #F3D12B",
"e#	c #F2CF29",
"f#	c #F2CE28",
"g#	c #FCD422",
"h#	c #676147",
"i#	c #43434C",
"j#	c #5B5340",
"k#	c #635944",
"l#	c #26325A",
"m#	c #9A8648",
"n#	c #655F52",
"o#	c #001D8D",
"p#	c #5E5739",
"q#	c #837030",
"r#	c #222F65",
"s#	c #C4A724",
"t#	c #FDDA29",
"u#	c #FBD82A",
"v#	c #F4D22A",
"w#	c #E2C52A",
"x#	c #FAD72C",
"y#	c #D3B829",
"z#	c #517533",
"{#	c #2C4319",
"|#	c #2E3717",
"}#	c #3E511C",
"~#	c #3C631E",
" $	c #314824",
"!$	c #D8C22E",
"#$	c #F9D62B",
"$$	c #F4D229",
"%$	c #F2D029",
"&$	c #FCD628",
"'$	c #C1A327",
"($	c #232F5D",
")$	c #6A5C36",
"*$	c #816A24",
"+$	c #343B55",
",$	c #625B43",
"-$	c #CDB76A",
".$	c #384162",
"0$	c #343F67",
"1$	c #8D7527",
"2$	c #6D613F",
"3$	c #3D4250",
"4$	c #F7D120",
"5$	c #B8A223",
"6$	c #59561B",
"7$	c #504F1A",
"8$	c #514F1A",
"9$	c #EDCD2A",
":$	c #CEB527",
";$	c #3D5322",
"<$	c #827B29",
"=$	c #938829",
">$	c #918529",
"?$	c #827E27",
"@$	c #2E461F",
"A$	c #CBB82C",
"B$	c #FAD529",
"C$	c #F2D028",
"D$	c #F2CF28",
"E$	c #F6D228",
"F$	c #EDC61F",
"G$	c #41434E",
"H$	c #59503C",
"I$	c #826A29",
"J$	c #695C35",
"K$	c #42413E",
"L$	c #BDA55B",
"M$	c #BAA04A",
"N$	c #233371",
"O$	c #1D2F72",
"P$	c #826C28",
"Q$	c #5E5643",
"R$	c #645D3C",
"S$	c #FED823",
"T$	c #D4B825",
"U$	c #A49222",
"V$	c #A89522",
"W$	c #B9A324",
"X$	c #F5D329",
"Y$	c #E1C430",
"Z$	c #626776",
"[$	c #696E82",
"]$	c #5C6379",
"^$	c #656776",
"_$	c #5D6277",
"`$	c #576171",
"a$	c #D7BC2E",
"b$	c #F4D128",
"c$	c #F3D028",
"d$	c #F4CF27",
"e$	c #FAD222",
"f$	c #615B43",
"g$	c #4C4944",
"h$	c #7E6724",
"i$	c #283567",
"j$	c #273360",
"k$	c #A28833",
"l$	c #A58830",
"m$	c #2B3868",
"n$	c #444858",
"o$	c #62593A",
"p$	c #45444C",
"q$	c #776C39",
"r$	c #FED925",
"s$	c #FFDB2A",
"t$	c #FFDB2B",
"u$	c #FDD92B",
"v$	c #F9D629",
"w$	c #E2C530",
"x$	c #697374",
"y$	c #70747C",
"z$	c #6D707B",
"{$	c #76777B",
"|$	c #6F727A",
"}$	c #626C72",
"~$	c #DABE2D",
" %	c #F6D227",
"!%	c #F5D128",
"#%	c #F6D128",
"$%	c #F3CE26",
"%%	c #FBD322",
"&%	c #776B3D",
"'%	c #3F414F",
"(%	c #6C5C2F",
")%	c #444862",
"*%	c #1A2B72",
"+%	c #927520",
",%	c #9D8331",
"-%	c #4C4B43",
".%	c #856C1A",
"0%	c #886D17",
"1%	c #363A4F",
"2%	c #7D7036",
"3%	c #FFDA25",
"4%	c #F5D229",
"5%	c #FCD72A",
"6%	c #CAB126",
"7%	c #203111",
"8%	c #827926",
"9%	c #928428",
":%	c #978828",
";%	c #716826",
"<%	c #233815",
"=%	c #CDB925",
">%	c #EAC827",
"?%	c #EAC626",
"@%	c #E5C326",
"A%	c #ECC926",
"B%	c #FCD423",
"C%	c #766B40",
"D%	c #45444B",
"E%	c #79652D",
"F%	c #404561",
"G%	c #192B74",
"H%	c #967720",
"I%	c #B69F4F",
"J%	c #2E3C68",
"K%	c #46454A",
"L%	c #4E4A4C",
"M%	c #2B345E",
"N%	c #6A5F38",
"O%	c #FCD523",
"P%	c #F6D229",
"Q%	c #FBD629",
"R%	c #CCB527",
"S%	c #2B461A",
"T%	c #B4A032",
"U%	c #AC9E52",
"V%	c #9E9249",
"W%	c #8F802A",
"X%	c #132614",
"Y%	c #D2BB25",
"Z%	c #B49C22",
"[%	c #474619",
"]%	c #56521A",
"^%	c #5B561A",
"_%	c #CCB024",
"`%	c #FFDB22",
"a%	c #6A6248",
"b%	c #172671",
"c%	c #6E5B28",
"d%	c #45475C",
"e%	c #23326C",
"f%	c #A2842E",
"g%	c #CAB46B",
"h%	c #3D435C",
"i%	c #001B93",
"j%	c #001D90",
"k%	c #001C98",
"l%	c #484847",
"m%	c #F2CC1E",
"n%	c #F4D028",
"o%	c #FAD528",
"p%	c #3E5D27",
"q%	c #AD9B31",
"r%	c #AFA159",
"s%	c #94894B",
"t%	c #8B7F2A",
"u%	c #172B14",
"v%	c #CAB423",
"w%	c #E5C426",
"x%	c #B79E22",
"y%	c #B8A023",
"z%	c #C1A924",
"{%	c #F5D328",
"|%	c #F3CD1E",
"}%	c #494A57",
"~%	c #001E9F",
" &	c #08228C",
"!&	c #021F94",
"#&	c #3C4056",
"$&	c #BBA150",
"%&	c #5E5A4D",
"&&	c #102C90",
"'&	c #20388D",
"(&	c #44589F",
")&	c #25356E",
"*&	c #CBAB1B",
"+&	c #F4D027",
",&	c #FCD729",
"-&	c #CCB72A",
".&	c #406028",
"0&	c #9A8B29",
"1&	c #B2A141",
"2&	c #B6A540",
"3&	c #877A2A",
"4&	c #112511",
"5&	c #C6B224",
"6&	c #FCD82A",
"7&	c #FCD92A",
"8&	c #FAD82A",
"9&	c #FAD828",
":&	c #D0B020",
";&	c #203179",
"<&	c #4558A1",
"=&	c #273E99",
">&	c #1C3699",
"?&	c #5D5648",
"@&	c #8B7A45",
"A&	c #3A4E8D",
"B&	c #516299",
"C&	c #394F97",
"D&	c #293F93",
"E&	c #7B6C2C",
"F&	c #FDD825",
"G&	c #F4D228",
"H&	c #F3D22A",
"I&	c #F4D32A",
"J&	c #FAD62A",
"K&	c #D7BE29",
"L&	c #485F30",
"M&	c #6A6539",
"N&	c #80783C",
"O&	c #837C3F",
"P&	c #645F3A",
"Q&	c #333D2A",
"R&	c #D1BA27",
"S&	c #FBD82B",
"T&	c #7D7039",
"U&	c #263E9B",
"V&	c #42549A",
"W&	c #56659E",
"X&	c #3F508F",
"Y&	c #8D7B46",
"Z&	c #C1A95C",
"[&	c #2F3F70",
"]&	c #4E63A2",
"^&	c #3F5397",
"_&	c #4B5D9D",
"`&	c #293460",
"a&	c #D7B51B",
"b&	c #F8D529",
"c&	c #FED923",
"d&	c #E7C72D",
"e&	c #696F9C",
"f&	c #59659E",
"g&	c #47579A",
"h&	c #4F5E9F",
"i&	c #5361A0",
"j&	c #676E97",
"k&	c #DCC028",
"l&	c #FEDA25",
"m&	c #F6D42A",
"n&	c #FAD934",
"o&	c #D9B92A",
"p&	c #26336F",
"q&	c #5869A5",
"r&	c #374C9A",
"s&	c #4F60A1",
"t&	c #2E3966",
"u&	c #C5AD5F",
"v&	c #615D4F",
"w&	c #39519F",
"x&	c #51639C",
"y&	c #425599",
"z&	c #3F539B",
"{&	c #5B5339",
"|&	c #F5D01F",
"}&	c #F7D52A",
"~&	c #E7C82C",
" '	c #D6BF46",
"!'	c #ABA461",
"#'	c #505F40",
"$'	c #7A754A",
"%'	c #857E50",
"&'	c #8C8351",
"''	c #6E6F45",
"('	c #475E3A",
")'	c #B1A65F",
"*'	c #D3BD43",
"+'	c #EFCE27",
",'	c #FAD725",
"-'	c #F3D02F",
".'	c #58544F",
"0'	c #2A42A1",
"1'	c #4E609F",
"2'	c #3D519B",
"3'	c #243D9B",
"4'	c #625A44",
"5'	c #C2AF6F",
"6'	c #2D3B70",
"7'	c #5D6CA1",
"8'	c #2C4294",
"9'	c #5B6A9E",
":'	c #243A8C",
";'	c #6D6131",
"<'	c #B8AA58",
"='	c #ACACA2",
">'	c #A3A5AE",
"?'	c #8992A8",
"@'	c #939C8F",
"A'	c #878770",
"B'	c #7B7628",
"C'	c #7F7D2F",
"D'	c #8A8D79",
"E'	c #9DA287",
"F'	c #898FA6",
"G'	c #8F96A7",
"H'	c #B9B69D",
"I'	c #BCAB4C",
"J'	c #6E643E",
"K'	c #253B97",
"L'	c #5766A1",
"M'	c #29409A",
"N'	c #5A6AA7",
"O'	c #233167",
"P'	c #C1AC64",
"Q'	c #84754C",
"R'	c #2D4493",
"S'	c #5A699C",
"T'	c #284097",
"U'	c #213B9C",
"V'	c #001989",
"W'	c #525965",
"X'	c #B6B3AA",
"Y'	c #A2A3A9",
"Z'	c #8F93A2",
"['	c #B5B3BA",
"]'	c #6B7278",
"^'	c #06140B",
"_'	c #08170F",
"`'	c #97989A",
"a'	c #B6B5B9",
"b'	c #929595",
"c'	c #A0A2A7",
"d'	c #9D9F9E",
"e'	c #636770",
"f'	c #001B92",
"g'	c #2D44A0",
"h'	c #33489A",
"i'	c #5061A1",
"j'	c #19328F",
"k'	c #837140",
"l'	c #54504C",
"m'	c #2F489C",
"n'	c #5A699E",
"o'	c #112D96",
"p'	c #51619F",
"q'	c #A0A1AF",
"r'	c #CDC7B6",
"s'	c #C8C4B5",
"t'	c #B3B1A9",
"u'	c #DBD0BC",
"v'	c #757E5E",
"w'	c #1E3016",
"x'	c #1C2818",
"y'	c #8F9080",
"z'	c #C6C3B9",
"{'	c #A6A6A2",
"|'	c #C8C6B9",
"}'	c #B6B8B2",
"~'	c #B2B4BA",
" (	c #7E88AE",
"!(	c #1D3698",
"#(	c #3C4F9E",
"$(	c #2A429B",
"%(	c #565043",
"&(	c #D4C07F",
"'(	c #404556",
"((	c #2F4899",
")(	c #5C6B9B",
"*(	c #364C99",
"+(	c #495BA0",
",(	c #878EA9",
"-(	c #A6A7AA",
".(	c #D7D1BD",
"0(	c #C1BEB9",
"1(	c #B1B1A6",
"2(	c #DBD2AE",
"3(	c #EDE1BB",
"4(	c #D4CDB8",
"5(	c #B0B2B6",
"6(	c #D0CEC3",
"7(	c #B8B7B8",
"8(	c #8089A9",
"9(	c #5465A4",
":(	c #1F399C",
";(	c #5D6DA3",
"<(	c #29429D",
"=(	c #3C3D48",
">(	c #D8C279",
"?(	c #DBC790",
"@(	c #5B5F6D",
"A(	c #253F91",
"B(	c #51629F",
"C(	c #2C4297",
"D(	c #012099",
"E(	c #283B86",
"F(	c #625F5D",
"G(	c #5C627A",
"H(	c #516097",
"I(	c #5363A1",
"J(	c #5B6590",
"K(	c #4E5D96",
"L(	c #535A7A",
"M(	c #58585E",
"N(	c #3F4460",
"O(	c #03219A",
"P(	c #092491",
"Q(	c #475AA3",
"R(	c #1E3895",
"S(	c #544E45",
"T(	c #CCAF57",
"U(	c #867F6E",
"V(	c #263872",
"W(	c #1E3A9A",
"X(	c #0224A1",
"Y(	c #1B2D72",
"Z(	c #454237",
"[(	c #544923",
"](	c #50482B",
"^(	c #48412C",
"_(	c #53492F",
"`(	c #574B27",
"a(	c #484232",
"b(	c #4F4832",
"c(	c #20306B",
"d(	c #02229B",
"e(	c #001E96",
"f(	c #203070",
"g(	c #7D6C3C",
"h(	c #C1AB72",
"i(	c #57524C",
"j(	c #192D77",
"k(	c #001C94",
"l(	c #0A227E",
"m(	c #45433A",
"n(	c #464336",
"o(	c #3E3E40",
"p(	c #3D3F47",
"q(	c #48463C",
"r(	c #41403F",
"s(	c #1B2C6B",
"t(	c #192A6D",
"u(	c #5D5546",
"v(	c #B59943",
"w(	c #C9B585",
"x(	c #887855",
"y(	c #534D44",
"z(	c #49453C",
"{(	c #444240",
"|(	c #393D4B",
"}(	c #3D3E45",
"~(	c #45433F",
" )	c #49443E",
"!)	c #5A5141",
"#)	c #837042",
"$)	c #B69946",
"%)	c #B89E4F",
"&)	c #9F8438",
"')	c #95762A",
"()	c #94772D",
"))	c #A18439",
"*)	c #B79C4E",
"                          # $ % & ' (                           ",
"                    ) * + , - . 0 1 2 3 4 5                     ",
"                6 7 8 9 : ; < = > ? @ A B C D E                 ",
"              F G H I J K L M N O P Q R S T U V W               ",
"          X Y Z [ ] ^ _ ` a b c d e f g h i j k l m             ",
"        n o p q r s t u v w x y z { | } ~  !!!#!$!%!&!          ",
"        '!(!)!*!+!,!-!.!0!1!2!3!4!5!6!7!8!9!:!;!<!=!>!?!        ",
"      @!A!B!C!D!E!F!G!H!I!J!K!L!M!N!I!O!P!Q!R!S!T!U!V!W!X!      ",
"    Y!Z![!]!^!_!`!a!b!c!d!e!f!g!h!i!j!k!l!m!n!o!p!q!r!s!t!u!    ",
"    v!w!x!y!z!{!|!}!~! #!###$#%#&#'#(#)#!#*#+#,#-#.#0#1#2#3#    ",
"  4#5#6#7#8#9#:#;#<#=#>#=#?#@#A#B#C#D#E#F#G#H#I#J#K#L#M#N#O#P#  ",
"  Q#R#S#T#U#V#W#X#Y###Z#[#]#^#_#`#a#b#c#d#d!e#f#g#h#i#j#k#l#m#  ",
"  n#o#p#q#r#s#t#u#v#w#x#y#z#{#|#}#~# $!$#$$$%$%$&$'$($)$*$+$,$  ",
"-$.$0$1$2$3$4$5$6$7$8$9$:$;$<$=$>$?$@$A$B$%$C$D$E$F$G$H$I$J$K$L$",
"M$N$O$P$Q$R$S$T$U$V$W$X$Y$Z$[$]$^$_$`$a$j!D$b$c$d$e$f$g$h$i$j$k$",
"l$m$n$o$p$q$r$B$s$t$u$v$w$x$y$z${$|$}$~$ %j!!%#%$%%%&%'%(%)%*%+%",
",%-%.%0%1%2%3%E$4%4%X$5%6%7%8%9%:%;%<%=%#%>%?%@%A%B%C%D%E%F%G%H%",
"I%J%K%L%M%N%O%P%j!4%b$Q%R%S%T%U%V%W%X%Y%Z%[%]%^%_%`%a%b%c%d%e%f%",
"g%h%i%j%k%l%m%P%v#E$n%o%b#p%q%r%s%t%u%v%w%x%y%z%{%|%}%~% &!&#&$&",
"  %&&&'&(&)&*&o%+&j!X$,&-&.&0&1&2&3&4&5&+#6&7&8&9&:&;&<&=&>&?&  ",
"  @&A&B&C&D&E&F&G&H&I&J&K&L&M&N&O&P&Q&R&S&I&v#X$3%T&U&V&W&X&Y&  ",
"  Z&[&]&^&_&`&a&7&c!b&c&d&e&f&g&h&i&j&k&l&m&$$n&o&p&q&r&s&t&u&  ",
"    v&w&x&y&z&{&|&}&~& '!'#'$'%'&'''(')'*'+','-'.'0'1'2'3'4'    ",
"    5'6'7'8'9':';'<'='>'?'@'A'B'C'D'E'F'G'H'I'J'K'L'M'N'O'P'    ",
"      Q'R'S'T'U'V'W'X'Y'Z'[']'^'_'`'a'b'c'd'e'f'g'h'i'j'k'      ",
"        l'm'n'o'p'q'r's't'u'v'w'x'y'z'{'|'}'~' (!(#($(%(        ",
"        &('((()(*(+(,(-(.(0(1(2(3(4(5(6(7(8(9(:(;(<(=(>(        ",
"          ?(@(A(B(C(D(E(F(G(H(I(J(K(L(M(N(O(P(Q(R(S(T(          ",
"              U(V(W(X(Y(Z([(](^(_(`(a(b(c(d(e(f(g(              ",
"                h(i(j(k(l(m(n(o(p(q(r(s(i%t(u(v(                ",
"                    w(x(y(z({(|(}(~( )!)#)$)                    ",
"                          %)&)')()))*)                          "};