/* XPM */
static char * bedna_xpm[] = {
"24 24 563 2",
"  	c #28A8B5",
". 	c #1BB0B3",
"+ 	c #25ACB0",
"@ 	c #24ACB1",
"# 	c #17B2B7",
"$ 	c #21ADBC",
"% 	c #1DB1BB",
"& 	c #1DB2BD",
"* 	c #1EB2BF",
"= 	c #20B1C2",
"- 	c #21B1C4",
"; 	c #22B1C6",
"> 	c #1FB3C7",
", 	c #1FB4C8",
"' 	c #1FB4CB",
") 	c #20B4CE",
"! 	c #20B4D0",
"~ 	c #20B5D2",
"{ 	c #1FB6D1",
"] 	c #21B6D1",
"^ 	c #22B7D1",
"/ 	c #1FB7CF",
"( 	c #1CB9CE",
"_ 	c #19BACE",
": 	c #19ADAD",
"< 	c #13B1AD",
"[ 	c #21ABAD",
"} 	c #25A9B0",
"| 	c #1EADB5",
"1 	c #26A9B8",
"2 	c #22ADB2",
"3 	c #21AEB4",
"4 	c #20B0B6",
"5 	c #1EB0B8",
"6 	c #1DB2B9",
"7 	c #1DB2BA",
"8 	c #1EB3BF",
"9 	c #1EB4BF",
"0 	c #1CB5BF",
"a 	c #1CB6C0",
"b 	c #1CB6C1",
"c 	c #1FB3C9",
"d 	c #1DB6CC",
"e 	c #19B8CF",
"f 	c #19BAD3",
"g 	c #1AB9D5",
"h 	c #1CB7D5",
"i 	c #22A7A2",
"j 	c #1FA9A4",
"k 	c #23A8A7",
"l 	c #22A9AB",
"m 	c #1CADAD",
"n 	c #1DADAE",
"o 	c #1FABB2",
"p 	c #20AAB4",
"q 	c #21ABB4",
"r 	c #23ABB4",
"s 	c #23ACB4",
"t 	c #24ACB4",
"u 	c #24ACB6",
"v 	c #24ADB9",
"w 	c #22AEBD",
"x 	c #20AFC2",
"y 	c #1EB0C6",
"z 	c #1DB1C7",
"A 	c #1EB3BE",
"B 	c #1EB4BE",
"C 	c #1EB5C0",
"D 	c #1FB5C2",
"E 	c #21B3C3",
"F 	c #24B2C3",
"G 	c #23A69B",
"H 	c #25A6A0",
"I 	c #24A6A2",
"J 	c #29A39F",
"K 	c #359D98",
"L 	c #359B90",
"M 	c #2B9C8C",
"N 	c #2E9A8A",
"O 	c #329486",
"P 	c #368E80",
"Q 	c #368679",
"R 	c #358074",
"S 	c #2F7E6B",
"T 	c #2F8576",
"U 	c #33958D",
"V 	c #30A2A3",
"W 	c #2CA9B1",
"X 	c #25AEB9",
"Y 	c #16B4BF",
"Z 	c #1CB0BE",
"` 	c #26AEC0",
" .	c #24ADBD",
"..	c #15B9BE",
"+.	c #18A999",
"@.	c #20A59C",
"#.	c #1FA69C",
"$.	c #22847B",
"%.	c #173B35",
"&.	c #354235",
"*.	c #4B4C36",
"=.	c #554F38",
"-.	c #594B33",
";.	c #5B422A",
">.	c #5F3E26",
",.	c #653E25",
"'.	c #663F23",
").	c #5C4125",
"!.	c #4C482D",
"~.	c #3E543B",
"{.	c #37624B",
"].	c #3B7560",
"^.	c #40858C",
"/.	c #39999F",
"(.	c #29A9AD",
"_.	c #1EB2B9",
":.	c #1BB0BF",
"<.	c #20AFC5",
"[.	c #249F97",
"}.	c #2A9D99",
"|.	c #22A297",
"1.	c #278171",
"2.	c #192115",
"3.	c #2A1503",
"4.	c #2F1A09",
"5.	c #3F2A16",
"6.	c #543E25",
"7.	c #60492C",
"8.	c #634B29",
"9.	c #614725",
"0.	c #624927",
"a.	c #654B2A",
"b.	c #644828",
"c.	c #68492A",
"d.	c #664727",
"e.	c #604122",
"f.	c #534423",
"g.	c #47492D",
"h.	c #365341",
"i.	c #296F69",
"j.	c #2DA4A4",
"k.	c #20AEB3",
"l.	c #249E8A",
"m.	c #239F90",
"n.	c #299C93",
"o.	c #248574",
"p.	c #181E16",
"q.	c #271605",
"r.	c #211505",
"s.	c #1F1506",
"t.	c #1F1707",
"u.	c #291F0D",
"v.	c #3E3018",
"w.	c #524024",
"x.	c #5D4829",
"y.	c #5E4627",
"z.	c #5B4222",
"A.	c #594122",
"B.	c #523D22",
"C.	c #47341C",
"D.	c #462F17",
"E.	c #453210",
"F.	c #443418",
"G.	c #3F4B46",
"H.	c #23A89E",
"I.	c #22ADB5",
"J.	c #249C85",
"K.	c #229D8A",
"L.	c #289A8C",
"M.	c #258775",
"N.	c #181F17",
"O.	c #261606",
"P.	c #1E1507",
"Q.	c #1F160A",
"R.	c #1F1608",
"S.	c #231606",
"T.	c #281706",
"U.	c #39240D",
"V.	c #4A3219",
"W.	c #4A3015",
"X.	c #4B3417",
"Y.	c #422F14",
"Z.	c #413018",
"`.	c #452E18",
" +	c #422F0F",
".+	c #423319",
"++	c #425952",
"@+	c #24AB9F",
"#+	c #20A9B0",
"$+	c #24997E",
"%+	c #229B83",
"&+	c #279985",
"*+	c #278A72",
"=+	c #182017",
"-+	c #241607",
";+	c #201407",
">+	c #21150B",
",+	c #23160D",
"'+	c #22150B",
")+	c #25160C",
"!+	c #342012",
"~+	c #4A3322",
"{+	c #4B321C",
"]+	c #4E371D",
"^+	c #48341A",
"/+	c #44331A",
"(+	c #432E16",
"_+	c #402C0E",
":+	c #3E331B",
"<+	c #3E6F62",
"[+	c #21A69B",
"}+	c #21A7A9",
"|+	c #269778",
"1+	c #23997C",
"2+	c #28977E",
"3+	c #298C6F",
"4+	c #172217",
"5+	c #23170A",
"6+	c #221608",
"7+	c #221508",
"8+	c #24170B",
"9+	c #24160D",
"0+	c #22160F",
"a+	c #221711",
"b+	c #352418",
"c+	c #4B3727",
"d+	c #4E3622",
"e+	c #4E371E",
"f+	c #49351B",
"g+	c #45341A",
"h+	c #452F15",
"i+	c #432F12",
"j+	c #3A3621",
"k+	c #378874",
"l+	c #22A498",
"m+	c #21A4A1",
"n+	c #279472",
"o+	c #239775",
"p+	c #269576",
"q+	c #288C6C",
"r+	c #192519",
"s+	c #21170B",
"t+	c #21150A",
"u+	c #25170A",
"v+	c #27180A",
"w+	c #26180B",
"x+	c #22170D",
"y+	c #21180F",
"z+	c #362718",
"A+	c #4B3925",
"B+	c #4D371F",
"C+	c #523C22",
"D+	c #4C381E",
"E+	c #443218",
"F+	c #442E13",
"G+	c #463116",
"H+	c #393A26",
"I+	c #309A81",
"J+	c #21A294",
"K+	c #22A29B",
"L+	c #26926C",
"M+	c #22956F",
"N+	c #259371",
"O+	c #298C69",
"P+	c #1A281B",
"Q+	c #21170C",
"R+	c #261609",
"S+	c #2B1A0B",
"T+	c #281A0A",
"U+	c #221A0B",
"V+	c #201A0C",
"W+	c #3A2E17",
"X+	c #4C3C23",
"Y+	c #4A361A",
"Z+	c #523D21",
"`+	c #503B21",
" @	c #47351B",
".@	c #452F14",
"+@	c #472F16",
"@@	c #3E4533",
"#@	c #27A083",
"$@	c #21A092",
"%@	c #21A197",
"&@	c #249363",
"*@	c #239469",
"=@	c #26936D",
"-@	c #338969",
";@	c #11311C",
">@	c #211608",
",@	c #251508",
"'@	c #2A1309",
")@	c #2B150C",
"!@	c #23190C",
"~@	c #201B0E",
"{@	c #231A0D",
"]@	c #3D2E14",
"^@	c #4F3C20",
"/@	c #4B341A",
"(@	c #4F361D",
"_@	c #50381E",
":@	c #4B371B",
"<@	c #483115",
"[@	c #4C281C",
"}@	c #335F4A",
"|@	c #269E80",
"1@	c #2A9B87",
"2@	c #20A18A",
"3@	c #278F5E",
"4@	c #239163",
"5@	c #239167",
"6@	c #338966",
"7@	c #15351E",
"8@	c #241306",
"9@	c #201809",
"0@	c #231809",
"a@	c #1F1609",
"b@	c #1C1A0C",
"c@	c #211B10",
"d@	c #28180D",
"e@	c #403016",
"f@	c #4D391E",
"g@	c #4C341A",
"h@	c #4B3118",
"i@	c #4D351B",
"j@	c #463216",
"k@	c #433213",
"l@	c #412E1C",
"m@	c #317256",
"n@	c #209E7D",
"o@	c #299884",
"p@	c #259B87",
"q@	c #2A8B59",
"r@	c #258E5D",
"s@	c #21905F",
"t@	c #318A60",
"u@	c #16391E",
"v@	c #221405",
"w@	c #241608",
"x@	c #221507",
"y@	c #1E1709",
"z@	c #181A0A",
"A@	c #221D11",
"B@	c #29180E",
"C@	c #433117",
"D@	c #4D371C",
"E@	c #4D331A",
"F@	c #452C12",
"G@	c #463015",
"H@	c #443014",
"I@	c #462D11",
"J@	c #3C351F",
"K@	c #34805F",
"L@	c #1C9D7A",
"M@	c #259780",
"N@	c #279783",
"O@	c #2C8853",
"P@	c #288B55",
"Q@	c #248D57",
"R@	c #2C8A58",
"S@	c #215731",
"T@	c #151F07",
"U@	c #271509",
"V@	c #291107",
"W@	c #261309",
"X@	c #1E190B",
"Y@	c #211D11",
"Z@	c #261B0E",
"`@	c #463219",
" #	c #4B351A",
".#	c #4A3017",
"+#	c #462C13",
"@#	c #422E13",
"##	c #492D16",
"$#	c #373E26",
"%#	c #398666",
"&#	c #1E9875",
"*#	c #219779",
"=#	c #24967A",
"-#	c #29874D",
";#	c #2A884D",
">#	c #278A50",
",#	c #278951",
"'#	c #338352",
")#	c #2A5F38",
"!#	c #18240E",
"~#	c #201607",
"{#	c #261208",
"]#	c #25170C",
"^#	c #231B10",
"/#	c #241B0E",
"(#	c #443017",
"_#	c #483016",
":#	c #482E15",
"<#	c #452D13",
"[#	c #483419",
"}#	c #3E3014",
"|#	c #323A1D",
"1#	c #305E3E",
"2#	c #328E6A",
"3#	c #209571",
"4#	c #219671",
"5#	c #269570",
"6#	c #258747",
"7#	c #298648",
"8#	c #288749",
"9#	c #24894B",
"0#	c #25884D",
"a#	c #2E8551",
"b#	c #2D6841",
"c#	c #152D12",
"d#	c #28180E",
"e#	c #26180F",
"f#	c #26190E",
"g#	c #482F15",
"h#	c #492E15",
"i#	c #442E14",
"j#	c #413418",
"k#	c #3E4020",
"l#	c #357249",
"m#	c #2F8D61",
"n#	c #229267",
"o#	c #21946C",
"p#	c #23936A",
"q#	c #2A9268",
"r#	c #288441",
"s#	c #298442",
"t#	c #298543",
"u#	c #278645",
"v#	c #288747",
"w#	c #288748",
"x#	c #278649",
"y#	c #307442",
"z#	c #1A3717",
"A#	c #1C1C09",
"B#	c #251A0E",
"C#	c #2A1B11",
"D#	c #433015",
"E#	c #482C15",
"F#	c #482D17",
"G#	c #3B3D23",
"H#	c #30633B",
"I#	c #2F8856",
"J#	c #2A8D5D",
"K#	c #278E5F",
"L#	c #278F60",
"M#	c #268F62",
"N#	c #269063",
"O#	c #279064",
"P#	c #28813C",
"Q#	c #28823D",
"R#	c #28823E",
"S#	c #27833F",
"T#	c #278441",
"U#	c #278543",
"V#	c #288445",
"W#	c #2A8246",
"X#	c #307A46",
"Y#	c #1D4621",
"Z#	c #1C200B",
"`#	c #331A10",
" $	c #472D15",
".$	c #383416",
"+$	c #314F28",
"@$	c #38784A",
"#$	c #318554",
"$$	c #2A8956",
"%$	c #278B59",
"&$	c #278C5A",
"*$	c #278C5B",
"=$	c #278D5D",
"-$	c #268E5E",
";$	c #268F5F",
">$	c #287E36",
",$	c #287F37",
"'$	c #278038",
")$	c #27813A",
"!$	c #27813B",
"~$	c #27823D",
"{$	c #2A803E",
"]$	c #278542",
"^$	c #248442",
"/$	c #307B44",
"($	c #274E26",
"_$	c #20290C",
":$	c #38421F",
"<$	c #3C6639",
"[$	c #2E8249",
"}$	c #1F8A4D",
"|$	c #228A50",
"1$	c #298752",
"2$	c #288852",
"3$	c #278A53",
"4$	c #278A54",
"5$	c #278B57",
"6$	c #278C58",
"7$	c #278D59",
"8$	c #297D30",
"9$	c #287D31",
"0$	c #287E33",
"a$	c #277F34",
"b$	c #277F35",
"c$	c #297F37",
"d$	c #2A7F39",
"e$	c #2C7E3B",
"f$	c #2F7F3E",
"g$	c #307D3F",
"h$	c #267135",
"i$	c #2E7D40",
"j$	c #2C8344",
"k$	c #258646",
"l$	c #238748",
"m$	c #24874A",
"n$	c #27874B",
"o$	c #28874B",
"p$	c #28884B",
"q$	c #28894D",
"r$	c #27894F",
"s$	c #278A51",
"t$	c #2B7C2C",
"u$	c #2B7D2C",
"v$	c #2A7D2E",
"w$	c #297C2E",
"x$	c #287C2F",
"y$	c #277C2F",
"z$	c #297D31",
"A$	c #2C7C32",
"B$	c #2F7C34",
"C$	c #2C7D35",
"D$	c #288138",
"E$	c #238439",
"F$	c #21853D",
"G$	c #26833E",
"H$	c #29803E",
"I$	c #2B8140",
"J$	c #298342",
"K$	c #268642",
"L$	c #288543",
"M$	c #288545",
"N$	c #288646",
"O$	c #278747",
"P$	c #278749",
"Q$	c #27884A",
"R$	c #2D7C2A",
"S$	c #2B7D2B",
"T$	c #2A7C2D",
"U$	c #2A7D2D",
"V$	c #2A7B2E",
"W$	c #287D2F",
"X$	c #267F2F",
"Y$	c #277F30",
"Z$	c #2A7C30",
"`$	c #2D7B31",
" %	c #2E7D38",
".%	c #2C7D39",
"+%	c #2C7F39",
"@%	c #2A803A",
"#%	c #26833B",
"$%	c #27823E",
"%%	c #288340",
"&%	c #278341",
"*%	c #278443",
"=%	c #268545",
"-%	c #278646",
"  . + @ # $ % & * = - ; > , ' ) ! ~ { ] ^ / ( _ ",
": < [ } | 1 2 3 4 5 6 7 & 8 9 0 a b c d e f g h ",
"i j k l m n o p q r s t u v w x y z A B C D E F ",
"G H I J K L M N O P Q R S T U V W X Y Z `  .B ..",
"+.@.#.$.%.&.*.=.-.;.>.,.'.).!.~.{.].^./.(._.:.<.",
"[.}.|.1.2.3.4.5.6.7.8.9.0.a.b.c.d.e.f.g.h.i.j.k.",
"l.m.n.o.p.q.r.s.t.u.v.w.x.y.z.A.B.C.D.E.F.G.H.I.",
"J.K.L.M.N.O.r.P.Q.R.S.T.U.V.W.X.Y.Z.`. +.+++@+#+",
"$+%+&+*+=+-+r.;+>+,+'+)+!+~+{+]+^+/+(+_+:+<+[+}+",
"|+1+2+3+4+5+6+7+8+9+0+a+b+c+d+e+f+g+h+i+j+k+l+m+",
"n+o+p+q+r+s+t+u+v+w+x+y+z+A+B+C+D+E+F+G+H+I+J+K+",
"L+M+N+O+P+Q+'+R+S+T+U+V+W+X+Y+Z+`+ @.@+@@@#@$@%@",
"&@*@=@-@;@>@,@'@)@!@~@{@]@^@/@(@_@:@<@[@}@|@1@2@",
"3@4@5@6@7@8@9@0@a@b@c@d@e@f@g@h@i@j@k@l@m@n@o@p@",
"q@r@s@t@u@v@w@x@y@z@A@B@C@D@E@F@G@H@I@J@K@L@M@N@",
"O@P@Q@R@S@T@U@V@W@X@Y@Z@`@ #.#+#.@@###$#%#&#*#=#",
"-#;#>#,#'#)#!#~#{#]#^#/#(#_#:#<#[#}#|#1#2#3#4#5#",
"6#7#8#9#0#a#b#c#9@d#e#f#(#g#h#i#j#k#l#m#n#o#p#q#",
"r#s#t#u#v#w#x#y#z#A#B#C#D#E#F#G#H#I#J#K#L#M#N#O#",
"P#Q#R#S#T#U#V#W#X#Y#Z#`# $.$+$@$#$$$%$&$*$=$-$;$",
">$,$'$)$!$~${$]$^$/$($_$:$<$[$}$|$1$2$3$4$5$6$7$",
"8$8$9$0$a$b$c$d$e$f$g$h$i$j$k$l$m$n$o$p$q$r$>#s$",
"t$u$v$w$x$y$z$A$B$C$D$E$F$G$H$I$J$K$L$M$N$O$P$Q$",
"R$R$S$T$U$U$V$W$X$Y$Z$`$ %.%+%@%)$#%$%%%&%*%=%-%"};
