/* XPM */
static char * chaloupka_xpm[] = {
"24 24 571 2",
"  	c #19AFB6",
". 	c #23ACB3",
"+ 	c #26ACB1",
"@ 	c #1DB0B1",
"# 	c #1AB1B7",
"$ 	c #1EB0BB",
"% 	c #1FB1B6",
"& 	c #20B1B9",
"* 	c #1FB2BD",
"= 	c #1EB2C0",
"- 	c #1DB2C4",
"; 	c #1EB3C7",
"> 	c #21B2C5",
", 	c #20B2C6",
"' 	c #1EB3C8",
") 	c #1DB6CC",
"! 	c #1BB7CD",
"~ 	c #1AB7CD",
"{ 	c #1FB6C9",
"] 	c #21B6CA",
"^ 	c #21B7CB",
"/ 	c #22B8D0",
"( 	c #20B8D2",
"_ 	c #1FB8D6",
": 	c #1BADAF",
"< 	c #22AAAF",
"[ 	c #24AAB0",
"} 	c #1CAEAE",
"| 	c #1DAEB1",
"1 	c #23ACB2",
"2 	c #1FAEB7",
"3 	c #1FAFB8",
"4 	c #21AFB7",
"5 	c #21AFB6",
"6 	c #23AFB6",
"7 	c #23B0B6",
"8 	c #1BB3BD",
"9 	c #1BB3BF",
"0 	c #1DB2BF",
"a 	c #21B3C3",
"b 	c #23B2C3",
"c 	c #23B1C3",
"d 	c #1DB4C9",
"e 	c #1DB5CB",
"f 	c #1EB6CC",
"g 	c #20B6CE",
"h 	c #20B6CF",
"i 	c #20B6D0",
"j 	c #1EAAA5",
"k 	c #22A8AA",
"l 	c #22A9AD",
"m 	c #1DABAA",
"n 	c #25AAA3",
"o 	c #30A69F",
"p 	c #23AAB3",
"q 	c #21ABB7",
"r 	c #1FADBA",
"s 	c #1CAEBA",
"t 	c #1AB0BC",
"u 	c #19B1BE",
"v 	c #22ADBE",
"w 	c #20AEBE",
"x 	c #1CB0BE",
"y 	c #19B4C1",
"z 	c #15B6C1",
"A 	c #13B7C2",
"B 	c #19B3C5",
"C 	c #1AB4C9",
"D 	c #1AB5CB",
"E 	c #1EB5CC",
"F 	c #1FB4CA",
"G 	c #21B4C8",
"H 	c #20A79A",
"I 	c #23A5A3",
"J 	c #21A6A8",
"K 	c #24A79E",
"L 	c #319E86",
"M 	c #2F7E5D",
"N 	c #378163",
"O 	c #39896F",
"P 	c #36917E",
"Q 	c #309A90",
"R 	c #2DA39F",
"S 	c #29A9A9",
"T 	c #1BB0B0",
"U 	c #1DB2B5",
"V 	c #1EB1B7",
"W 	c #20AFBA",
"X 	c #20ADBC",
"Y 	c #23AEBE",
"Z 	c #22B2BC",
"` 	c #1FB2C0",
" .	c #1BB3C5",
"..	c #1CB3C6",
"+.	c #1FB1C3",
"@.	c #22B0C0",
"#.	c #21A593",
"$.	c #22A39D",
"%.	c #22A3A2",
"&.	c #2BA290",
"*.	c #398B61",
"=.	c #335D22",
"-.	c #3F5410",
";.	c #3F5716",
">.	c #29490F",
",.	c #2D5726",
"'.	c #396C40",
").	c #3D7751",
"!.	c #3A8768",
"~.	c #358B6F",
"{.	c #36957D",
"].	c #35A18D",
"^.	c #30A697",
"/.	c #2CA99C",
"(.	c #2AABA6",
"_.	c #24ACB0",
":.	c #1EAFBB",
"<.	c #1CB1C0",
"[.	c #1FB0BE",
"}.	c #22AEBB",
"|.	c #22A28F",
"1.	c #20A299",
"2.	c #22A29B",
"3.	c #2F987E",
"4.	c #2B6830",
"5.	c #42590F",
"6.	c #365013",
"7.	c #314C11",
"8.	c #2E470C",
"9.	c #2D450B",
"0.	c #394F16",
"a.	c #41581E",
"b.	c #527128",
"c.	c #4B7029",
"d.	c #467333",
"e.	c #3C723C",
"f.	c #347243",
"g.	c #31764D",
"h.	c #28927F",
"i.	c #2CAAA4",
"j.	c #20ADB3",
"k.	c #1CAFBA",
"l.	c #1FAEB9",
"m.	c #22ACB7",
"n.	c #27998D",
"o.	c #19A592",
"p.	c #22A385",
"q.	c #34794D",
"r.	c #365419",
"s.	c #3C5410",
"t.	c #3D5716",
"u.	c #3C5616",
"v.	c #405A19",
"w.	c #3C5612",
"x.	c #3D5611",
"y.	c #465F19",
"z.	c #466217",
"A.	c #3F5E13",
"B.	c #385A0D",
"C.	c #3D6218",
"D.	c #3A5E19",
"E.	c #3C5E1E",
"F.	c #4A6C3D",
"G.	c #35967F",
"H.	c #1CB0AD",
"I.	c #18ADAE",
"J.	c #22AAAD",
"K.	c #219D8C",
"L.	c #279A87",
"M.	c #338B6C",
"N.	c #2B5C2B",
"O.	c #37531A",
"P.	c #334C15",
"Q.	c #395313",
"R.	c #375210",
"S.	c #344F0C",
"T.	c #395410",
"U.	c #425D18",
"V.	c #46611B",
"W.	c #4B6622",
"X.	c #4C6B23",
"Y.	c #416418",
"Z.	c #3F6417",
"`.	c #43641D",
" +	c #455E1E",
".+	c #56612F",
"++	c #34765A",
"@+	c #2AA399",
"#+	c #1FA9A4",
"$+	c #21A9A8",
"%+	c #20A9AF",
"&+	c #199F7D",
"*+	c #388F72",
"=+	c #305B35",
"-+	c #2F4F12",
";+	c #2D4B0D",
">+	c #2C4513",
",+	c #304C0E",
"'+	c #385514",
")+	c #385412",
"!+	c #2F4C09",
"~+	c #33500B",
"{+	c #395611",
"]+	c #3D5818",
"^+	c #3C5D17",
"/+	c #3D6216",
"(+	c #34570C",
"_+	c #425D1A",
":+	c #516128",
"<+	c #6E6638",
"[+	c #546E51",
"}+	c #3D8B7B",
"|+	c #20A7A2",
"1+	c #1FA8A8",
"2+	c #1DA16D",
"3+	c #2B7E52",
"4+	c #335824",
"5+	c #344E09",
"6+	c #345109",
"7+	c #304B10",
"8+	c #2F4B0F",
"9+	c #284507",
"0+	c #3C5918",
"a+	c #395714",
"b+	c #365411",
"c+	c #405D1A",
"d+	c #486525",
"e+	c #3B5E16",
"f+	c #3B6315",
"g+	c #45671F",
"h+	c #51652D",
"i+	c #6A7046",
"j+	c #867955",
"k+	c #6C6749",
"l+	c #436952",
"m+	c #319989",
"n+	c #1FA69C",
"o+	c #21A6A0",
"p+	c #249769",
"q+	c #2C9066",
"r+	c #387D4E",
"s+	c #34551B",
"t+	c #3E5315",
"u+	c #395318",
"v+	c #2D4B0E",
"w+	c #2B490B",
"x+	c #355314",
"y+	c #3B5A18",
"z+	c #33520F",
"A+	c #3A5915",
"B+	c #3C5A16",
"C+	c #406619",
"D+	c #3D6818",
"E+	c #486A25",
"F+	c #3E4C1F",
"G+	c #58563D",
"H+	c #5A573D",
"I+	c #5B482D",
"J+	c #5A694E",
"K+	c #1A7862",
"L+	c #1DA294",
"M+	c #24A397",
"N+	c #2F9073",
"O+	c #209677",
"P+	c #2D9171",
"Q+	c #163D1B",
"R+	c #2C370F",
"S+	c #354C1C",
"T+	c #38551C",
"U+	c #2D4A0F",
"V+	c #2D4C0E",
"W+	c #2B4A0D",
"X+	c #385715",
"Y+	c #365612",
"Z+	c #486A20",
"`+	c #3B6314",
" @	c #436E1E",
".@	c #456424",
"+@	c #2D3511",
"@@	c #514A3B",
"#@	c #626755",
"$@	c #614C32",
"%@	c #595D41",
"&@	c #2F8B73",
"*@	c #1EA291",
"=@	c #259F90",
"-@	c #2B8D69",
";@	c #209569",
">@	c #2F8F68",
",@	c #2B4934",
"'@	c #2A2618",
")@	c #20210F",
"!@	c #262D0C",
"~@	c #38451D",
"{@	c #3F5322",
"]@	c #304C13",
"^@	c #355411",
"/@	c #3C5F16",
"(@	c #2F5E0E",
"_@	c #2B540D",
":@	c #435E26",
"<@	c #3C451D",
"[@	c #5A5538",
"}@	c #60523A",
"|@	c #59462E",
"1@	c #583C25",
"2@	c #4A5940",
"3@	c #2B9B7D",
"4@	c #279C8B",
"5@	c #1FA18B",
"6@	c #278E63",
"7@	c #1D9463",
"8@	c #2B8E62",
"9@	c #2D4F37",
"0@	c #3D2E26",
"a@	c #371F18",
"b@	c #29220F",
"c@	c #25240A",
"d@	c #27300D",
"e@	c #334618",
"f@	c #3B5720",
"g@	c #3C5E21",
"h@	c #3B611D",
"i@	c #3E5C22",
"j@	c #2C3C11",
"k@	c #37371A",
"l@	c #52452E",
"m@	c #422E19",
"n@	c #513B21",
"o@	c #62442C",
"p@	c #4F6147",
"q@	c #289A7A",
"r@	c #289987",
"s@	c #1F9F86",
"t@	c #298B5C",
"u@	c #1E925C",
"v@	c #24915D",
"w@	c #2A6441",
"x@	c #2A3320",
"y@	c #3E3024",
"z@	c #3D2C22",
"A@	c #37281C",
"B@	c #2B210F",
"C@	c #242309",
"D@	c #212B0A",
"E@	c #2B3C16",
"F@	c #3A4D1F",
"G@	c #3C4A21",
"H@	c #242709",
"I@	c #2D220D",
"J@	c #412C1A",
"K@	c #705744",
"L@	c #6D543C",
"M@	c #785B43",
"N@	c #566B4E",
"O@	c #269975",
"P@	c #289781",
"Q@	c #219C80",
"R@	c #2E8653",
"S@	c #248D54",
"T@	c #1F9055",
"U@	c #2B8955",
"V@	c #34774D",
"W@	c #224D2C",
"X@	c #282B1C",
"Y@	c #3E362A",
"Z@	c #3A2C21",
"`@	c #301F13",
" #	c #332617",
".#	c #2A2210",
"+#	c #24260A",
"@#	c #28280F",
"##	c #2E2613",
"$#	c #392717",
"%#	c #5C4331",
"&#	c #816550",
"*#	c #563C23",
"=#	c #7E6247",
"-#	c #617757",
";#	c #24976F",
">#	c #28947A",
",#	c #239879",
"'#	c #2B864C",
")#	c #29884D",
"!#	c #258B4F",
"~#	c #238C51",
"{#	c #288A53",
"]#	c #308654",
"^#	c #306842",
"/#	c #244828",
"(#	c #2D3B23",
"_#	c #332D1E",
":#	c #403024",
"<#	c #3A291D",
"[#	c #2D2715",
"}#	c #2B2211",
"|#	c #392B1C",
"1#	c #3E2B1A",
"2#	c #5B432C",
"3#	c #6E5439",
"4#	c #53381E",
"5#	c #907558",
"6#	c #6D8562",
"7#	c #22966A",
"8#	c #289275",
"9#	c #259573",
"0#	c #238846",
"a#	c #2B8548",
"b#	c #2E854A",
"c#	c #28864C",
"d#	c #27874F",
"e#	c #298651",
"f#	c #238B4F",
"g#	c #2D814D",
"h#	c #2F633B",
"i#	c #21351A",
"j#	c #31301D",
"k#	c #413628",
"l#	c #3F3426",
"m#	c #2F2215",
"n#	c #3F2F20",
"o#	c #3B2815",
"p#	c #5B442A",
"q#	c #7C6345",
"r#	c #64492F",
"s#	c #A38D70",
"t#	c #698863",
"u#	c #1F9467",
"v#	c #279070",
"w#	c #26936E",
"x#	c #278340",
"y#	c #298341",
"z#	c #2A8444",
"A#	c #2A8446",
"B#	c #298446",
"C#	c #2A8447",
"D#	c #28854B",
"E#	c #24894C",
"F#	c #25894F",
"G#	c #307C4D",
"H#	c #2C512F",
"I#	c #2F341E",
"J#	c #433827",
"K#	c #403522",
"L#	c #463C27",
"M#	c #3E2E18",
"N#	c #533D26",
"O#	c #7B614B",
"P#	c #534C35",
"Q#	c #5B7A59",
"R#	c #39895D",
"S#	c #1E9261",
"T#	c #1F9266",
"U#	c #269069",
"V#	c #27813C",
"W#	c #27823D",
"X#	c #28823F",
"Y#	c #288241",
"Z#	c #288242",
"`#	c #298243",
" $	c #2B8246",
".$	c #278548",
"+$	c #238849",
"@$	c #26874C",
"#$	c #30824D",
"$$	c #2F7144",
"%$	c #254D2A",
"&$	c #2C371E",
"*$	c #52402F",
"=$	c #483320",
"-$	c #444528",
";$	c #516C46",
">$	c #397547",
",$	c #358654",
"'$	c #288E59",
")$	c #20905D",
"!$	c #248E61",
"~$	c #2B8B64",
"{$	c #277F36",
"]$	c #288038",
"^$	c #29803A",
"/$	c #29803B",
"($	c #29803C",
"_$	c #28803E",
":$	c #288341",
"<$	c #298343",
"[$	c #258544",
"}$	c #228847",
"|$	c #208A49",
"1$	c #2C814C",
"2$	c #34663D",
"3$	c #394929",
"4$	c #334022",
"5$	c #3B673E",
"6$	c #33814C",
"7$	c #218C4D",
"8$	c #208C4E",
"9$	c #258B56",
"0$	c #288A5A",
"a$	c #2A8A5C",
"b$	c #297D30",
"c$	c #297D31",
"d$	c #297D32",
"e$	c #2A7D35",
"f$	c #2A7D36",
"g$	c #297E37",
"h$	c #228238",
"i$	c #288139",
"j$	c #2E7E3B",
"k$	c #307E3D",
"l$	c #2B813F",
"m$	c #278441",
"n$	c #298345",
"o$	c #2E8045",
"p$	c #2D7E44",
"q$	c #2D8348",
"r$	c #2A874A",
"s$	c #258748",
"t$	c #29874A",
"u$	c #2C864D",
"v$	c #2B854E",
"w$	c #288852",
"x$	c #268A53",
"y$	c #2A7D2C",
"z$	c #2A7D2E",
"A$	c #2A7C2F",
"B$	c #2A7B2F",
"C$	c #2A7B30",
"D$	c #297B30",
"E$	c #257F31",
"F$	c #297E32",
"G$	c #2E7C34",
"H$	c #307C37",
"I$	c #2F7D38",
"J$	c #2D7F3A",
"K$	c #28823A",
"L$	c #24843B",
"M$	c #21853C",
"N$	c #22863F",
"O$	c #258541",
"P$	c #278241",
"Q$	c #2C8245",
"R$	c #2C8346",
"S$	c #2C8448",
"T$	c #298448",
"U$	c #27864B",
"V$	c #27884C",
"W$	c #2B7D2A",
"X$	c #2B7D2B",
"Y$	c #2B7C2D",
"Z$	c #2B7C2E",
"`$	c #2B7C2F",
" %	c #2B7B2F",
".%	c #2D792C",
"+%	c #2B7B2E",
"@%	c #287D2F",
"#%	c #267F31",
"$%	c #268034",
"%%	c #278134",
"&%	c #278133",
"*%	c #2C7F33",
"=%	c #307C35",
"-%	c #307C38",
";%	c #2B803C",
">%	c #26823C",
",%	c #278243",
"'%	c #248544",
")%	c #228745",
"!%	c #238545",
"~%	c #288446",
"{%	c #2C8348",
"  . + @ # $ % & * = - ; > , ' ) ! ~ { ] ^ / ( _ ",
": < [ } | 1 2 3 4 5 6 7 8 9 0 a b c d e f g h i ",
"j k l m n o p q r s t u v w x y z A B C D E F G ",
"H I J K L M N O P Q R S T U V W X Y Z `  ...+.@.",
"#.$.%.&.*.=.-.;.>.,.'.).!.~.{.].^./.(._.:.<.[.}.",
"|.1.2.3.4.5.6.7.8.9.0.a.b.c.d.e.f.g.h.i.j.k.l.m.",
"n.o.p.q.r.s.t.u.v.w.x.y.z.A.B.C.D.E.F.G.H.I.J.p ",
"K.L.M.N.O.P.Q.R.S.T.U.V.W.X.Y.Z.`. +.+++@+#+$+%+",
"&+*+=+-+;+>+,+'+)+!+~+{+]+^+/+(+_+:+<+[+}+@+|+1+",
"2+3+4+5+6+7+8+9+0+a+b+c+d+e+f+g+h+i+j+k+l+m+n+o+",
"p+q+r+s+t+u+v+w+x+y+z+A+B+C+D+E+F+G+H+I+J+K+L+M+",
"N+O+P+Q+R+S+T+U+V+W+X+Y+Z+`+ @.@+@@@#@$@%@&@*@=@",
"-@;@>@,@'@)@!@~@{@]@^@/@(@_@:@<@[@}@|@1@2@3@4@5@",
"6@7@8@9@0@a@b@c@d@e@f@g@h@i@j@k@l@m@n@o@p@q@r@s@",
"t@u@v@w@x@y@z@A@B@C@D@E@F@G@H@I@J@K@L@M@N@O@P@Q@",
"R@S@T@U@V@W@X@Y@Z@`@ #.#+#@###$#%#&#*#=#-#;#>#,#",
"'#)#!#~#{#]#^#/#(#_#:#<#[#}#|#1#2#3#4#5#6#7#8#9#",
"0#a#b#c#d#e#f#g#h#i#j#k#l#m#n#o#p#q#r#s#t#u#v#w#",
"x#y#z#A#B#C#D#E#F#G#H#I#J#K#L#M#N#O#P#Q#R#S#T#U#",
"V#W#X#Y#Z#`# $.$+$@$#$$$%$&$*$=$-$;$>$,$'$)$!$~$",
"{$]$^$/$($_$X#:$<$[$}$|$1$2$3$4$5$6$7$8$S@9$0$a$",
"b$c$d$e$f$g$h$i$j$k$l$m$[$n$o$p$q$r$s$t$u$v$w$x$",
"y$z$A$B$C$D$E$F$G$H$I$J$K$L$M$N$O$P$Q$R$S$T$U$V$",
"W$X$Y$Z$`$ %.%+%@%#%$%%%&%*%=%-%;%>%,%'%)%!%~%{%"};
