/* XPM */
static char *City_Dirt_xpm[] = {
/* width height num_colors chars_per_pixel */
"    24    24      128            2",
/* colors */
"`` c #343634",
"`. c #94968c",
"`# c #c4c6bc",
"`a c #64665c",
"`b c #a4aea4",
"`c c #7c7e74",
"`d c #4c4e4c",
"`e c #d4ded4",
"`f c #bcb6b4",
"`g c #9ca29c",
"`h c #ccd2cc",
"`i c #7c7674",
"`j c #848a84",
"`k c #545a54",
"`l c #3c423c",
"`m c #6c7674",
"`n c #b4bab4",
"`o c #b4aeac",
"`p c #aca6a4",
"`q c #e4eae4",
"`r c #bcbeb4",
"`s c #948e8c",
"`t c #d4cecc",
"`u c #746a6c",
"`v c #9caaa4",
"`w c #dcd6d4",
"`x c #443a3c",
"`y c #a49e9c",
"`z c #c4cec4",
"`A c #54564c",
"`B c #645e5c",
"`C c #9c9e94",
"`D c #6c6e6c",
"`E c #acb6b4",
"`F c #84867c",
"`G c #e4e2dc",
"`H c #a4a29c",
"`I c #d4dad4",
"`J c #8c928c",
"`K c #4c4a44",
"`L c #c4bebc",
"`M c #6c6664",
"`N c #acaea4",
"`O c #544e4c",
"`P c #d4d2cc",
"`Q c #8c8a84",
"`R c #444a44",
"`S c #747a74",
"`T c #3c3e3c",
"`U c #9c9694",
"`V c #cccac4",
"`W c #84827c",
"`X c #5c625c",
"`Y c #44423c",
"`Z c #74726c",
"`0 c #b4b6ac",
"`1 c #c4cabc",
"`2 c #dcded4",
"`3 c #5c5a54",
"`4 c #bcc2b4",
"`5 c #a4a69c",
"`6 c #54524c",
"`7 c #8c8e84",
"`8 c #74766c",
".` c #3c3a34",
".. c #847a74",
".# c #eceae4",
".a c #cccec4",
".b c #a4aaa4",
".c c #949a94",
".d c #646a64",
".e c #a4b2ac",
".f c #7c827c",
".g c #bcbab4",
".h c #9ca69c",
".i c #ccd6d0",
".j c #b4b2ac",
".k c #acaaa4",
".l c #94928d",
".m c #443e3f",
".n c #64625f",
".o c #e4e6e2",
".p c #c4c2bc",
".q c #6c6a6a",
".r c #acb2ac",
".s c #d4d6d2",
".t c #444644",
".u c #dce2dc",
".v c #5c5e5c",
".w c #4c524c",
".x c #7c7a74",
".y c #848e84",
".z c #b4beb4",
".A c #746e6c",
".B c #dcdad4",
".C c #9c9a94",
".D c #eceee4",
".E c #949694",
".F c #c4c6c4",
".G c #646664",
".H c #a4aeac",
".I c #7c7e7c",
".J c #3c4244",
".K c #bcbebc",
".L c #545654",
".M c #9c9e9c",
".N c #848684",
".O c #a4a2a4",
".P c #acaeac",
".Q c #544e54",
".R c #8c8a8c",
".S c #3c3e44",
".T c #848284",
".U c #444244",
".V c #747274",
".W c #b4b6b4",
".X c #c4cac4",
".Y c #dcdedc",
".Z c #5c5a5c",
".0 c #bcc2bc",
".1 c #a4a6a4",
".2 c #545254",
".3 c #8c8e8c",
".4 c #747674",
".5 c #3c3a3c",
".6 c #cccecc",
".7 c #bcbabc",
".8 c #9ca6a4",
/* pixels */
".S`T.U.t`l.m`T.J.U.t`T.U.5.U.t`T.t.U.t`T.U.U.U.5",
"`d`s`n.H.H`Q`j`0`n.3.f`J.p.6.W.W.K.K.1.j.k`U.3`Q",
".t.E`a`y.P.r.b`4.g`n`n`n`h`P`P.B`G.B.F.W.p.g.P.I",
".m.E.M.k.P.b.1.k.K.g.j.p.K.6.6.Y`G.s.K.g.g.0.1.K",
".U`S.l.1.1.b.M.P`r.0.p.0.0.X.6.Y.B`P.K.K.j`V`r.j",
"`T.I.E.b.b.P.1`0.g.0.K.F.0.a.a`G`G`P.p.F.g.g`#.K",
".U.N`5.P.j.g`n.r.K.6.0`P.s.6`V.s.B.6.p.F`V.X.p.X",
".U`J.k.P.r.W`0.g.K.g.F.s`P`V.6.6.B`P.F.p.p.F`#.p",
"`T`7`H.P.P`N.k.F`#.6.p`V`V.s.6.a.s.s`#.K.p.6.6.6",
".m`..k`H`H.k.k.j.j.p.p`V`V.F`P.B.s.B`h`V.6.6`P.W",
".U.c.j`5.1.k.j.P.1.W.p`V`P.6.6`I.B.B.s`P.a`V.B.W",
".J.M.k.b.W`n.j.P.k.K.p.a.6`P`P.B.Y.o.Y`P.B.s`I.F",
".U.g.c.P.P.0.K.g.r.W.F`#.X.6.6`I.Y.o.o`2`2.B.s.X",
".t.1`H`p.P.W.p.g.K.K.p.F.F.6.6`h`2`G.o.B.B.s`h.a",
".5.C`H`5.k.j.r.K.W`L.K`#.p`V.6.6.s`G.u`w`2.B.6`V",
".U.C`N.P.W.P.P.g.K.g`n.K.X.F`V`P.B`G.B.s.B.s`I`h",
"`T`5`5.P.r.P.1`n.K.P.W.p.X`V.6.s`G`G.Y`P.s`G.Y`V",
".U`C.P.g.j.r`0.K`0.1.k.W`V`h`P.Y.o.o.B.s.Y`P.Y.s",
".U.P.W.j`n.k`n.K`H`H.j.K`P.s.B`G`G.#`G.B`I`t`V.p",
"`T.k.j.p.K`n.j.j.b`n.F.6.s.s.Y`G.o.o.o.Y`P.6.p.K",
".U.3.g.W.p.K`N.r.P.0.a`2.B.B.Y.o.o.D.o.s.6.K`n.K",
".t`7.W.K.p.j.r.K.P.j.p`I.Y`2.Y.o.B.B`2.B.K`n.K.j",
"`T.l`H`#.g.P.b`0`r.W.F.B`2.Y.s`V`P.s.s`P.g.k.r.C",
"`K`N`c.p.F.g.P`r.K.F.X.B.u.Y.s`V.F.s.s`P`h`0.0`8"
};
