/* XPM */
static const char *City_SquareTiles_xpm[] = {
/* width height num_colors chars_per_pixel */
"    24    24      128            2",
/* colors */
"`` c #0c0e0c",
"`. c #343a34",
"`# c #242624",
"`a c #444e4c",
"`b c #141a14",
"`c c #44463c",
"`d c #2c322c",
"`e c #545a54",
"`f c #443e3c",
"`g c #241e1c",
"`h c #342e2c",
"`i c #544e4c",
"`j c #1c1614",
"`k c #2c2e24",
"`l c #4c4644",
"`m c #141614",
"`n c #3c423c",
"`o c #1c221c",
"`p c #2c2624",
"`q c #3c3634",
"`r c #54564c",
"`s c #140e0c",
"`t c #3c3a34",
"`u c #1c1a14",
"`v c #34322c",
"`w c #44464c",
"`x c #5c5a54",
"`y c #443e44",
"`z c #3c3e44",
"`A c #34363c",
"`B c #4c4e44",
"`C c #24221c",
"`D c #54524c",
"`E c #4c4a44",
"`F c #2c2a24",
"`G c #3c3e34",
"`H c #1c1e24",
"`I c #34362c",
"`J c #0c120c",
"`K c #242a24",
"`L c #444a44",
"`M c #444234",
"`N c #5c5654",
"`O c #14120c",
"`P c #1c1e1c",
"`Q c #5c5e5c",
"`R c #4c524c",
"`S c #0c0e14",
"`T c #24262c",
"`U c #141a1c",
"`V c #444644",
"`W c #545a5c",
"`X c #241e24",
"`Y c #342e34",
"`Z c #544e54",
"`0 c #1c161c",
"`1 c #2c2e2c",
"`2 c #4c464c",
"`3 c #14161c",
"`4 c #3c4244",
"`5 c #1c2224",
"`6 c #2c262c",
"`7 c #545654",
"`8 c #3c3a3c",
".` c #1c1a1c",
".. c #444a4c",
".# c #444244",
".a c #343234",
".b c #5c5a5c",
".c c #4c4e4c",
".d c #242224",
".e c #545254",
".f c #4c4a4c",
".g c #2c2a2c",
".h c #3c3e3c",
".i c #343634",
".j c #44423c",
".k c #141214",
".l c #000000",
".m c #000000",
".n c #000000",
".o c #000000",
".p c #000000",
".q c #000000",
".r c #000000",
".s c #000000",
".t c #000000",
".u c #000000",
".v c #000000",
".w c #000000",
".x c #000000",
".y c #000000",
".z c #000000",
".A c #000000",
".B c #000000",
".C c #000000",
".D c #000000",
".E c #000000",
".F c #000000",
".G c #000000",
".H c #000000",
".I c #000000",
".J c #000000",
".K c #000000",
".L c #000000",
".M c #000000",
".N c #000000",
".O c #000000",
".P c #000000",
".Q c #000000",
".R c #000000",
".S c #000000",
".T c #000000",
".U c #000000",
".V c #000000",
".W c #000000",
".X c #000000",
".Y c #000000",
".Z c #000000",
".0 c #000000",
".1 c #000000",
".2 c #000000",
".3 c #000000",
".4 c #000000",
".5 c #000000",
".6 c #000000",
".7 c #000000",
".8 c #000000",
/* pixels */
"``.g`0.`.``m`3.`.``P`P.``J`X.``U.`.``P.`.`.k`P.`",
".k`v`v`t.j.j`8`V`E.f.f.e.c`t`v.i`V.#`h`v.h`4.c`q",
"`j`F.h`a.c...e.b.b`r.e.e.c`V`V`V`E`L`V.#`4.``#`t",
"`m`V.#.e`V`L.c`7`x.e`D`R.c.c`l...f.#.h.#.#`n.h.a",
"`U`V`E.f.#`E.c.e`7.e.c`D.c.f`E.c`E.#.h.h`n`8`.`d",
"`P`V.c`V`L.c`D.e`x.b.e`D.f.c.c`L`E`V.#.j`n.h`8`v",
"`P.c.c`R`i.c.c`D`7.e`D.e`7.e.c`E..`l`E`V.#.#.h`v",
"`m.c.c.c.c.c.c.e`7.c.e`R`7`7.c.f`E`V.f`V.#.#.h.i",
".`.c`R`R.c.c.e`7.e.e`R.e`R.c.c`D.f.c.#.#.j.#.h.i",
".`.j`D.c.c`D.e`7`7`7.e.c.e.c.f.f`V`V`V.j.h.h.h`.",
"`P`V`7.c`D.e`e`e`7`e.e`D.e`D.f`V.j.j.j.j.j.j.h`t",
".`.c`7`7`7`7`N`Q`x`7.e`D.c.c.f`E.j.j`V`V`V.#.h`t",
".k`D`7`7`7`e`Q.b`e.e`R`R.c.c.f`V`V`V`L.c`V.h.h`V",
".``R`7`7`7`7`Q.b`7.e`D`D.c.c.f.f`E`E`V`E.j`8.h.h",
".`.c.e`7`e`7`x.b`7`D`D`D.c.f.f.f`V`E`V`V.#.h.h`8",
"`0.c`7`7`7`7`7`e`7`D`i.c`R`E`V`V.f`V.h`V`V`V.h.h",
".``R`N`7`7`7`x.b`x`7`D`R`R.f`V.#`E`V.j.#`V.j`n.j",
".``D`e`7`e`7.b`Q`Q`7`D.e.c`V.j.j`V.c.#.j`L`E.#.h",
".`.c.e.e`7`7`x.b`Q`e`7`7`R`E`V.#.h`E`V.j`V`E`V.j",
".`.c.c`D`7`7.b`Q`Q`x`e`7`7`D.c.#`n`V.h`E.c`E.f.j",
".`.f.f.c`D`7`Q`Q`Q.b`x`7`N`x`D`V.#.#`L.f.f..`V`.",
"`m`V.j`V.f`7`7.b`7`x`e`e`7`x.f`V`V`E`V`V.f`V.j.i",
"`P`A`c.#`E.e`N`D.e`R`7`x.b`7.c`L`E`V.j.j.f.c.j.h",
"`3`k`w`L.e.e`N`7`D`7`7`7`e`x.f.c.f`E`V`E.c.g`1`n"
};
