/* XPM */
static const char *Cliff1_xpm[] = {
/* width height num_colors chars_per_pixel */
"    24    24      128            2",
/* colors */
"`` c #000000",
"`. c #8f832e",
"`# c #31453c",
"`a c #4a1700",
"`b c #754800",
"`c c #c3c4c3",
"`d c #00241f",
"`e c #ab8717",
"`f c #7c6422",
"`g c #6c6624",
"`h c #a09270",
"`i c #58441f",
"`j c #492f00",
"`k c #a1741a",
"`l c #260000",
"`m c #252619",
"`n c #682f00",
"`o c #746e6c",
"`p c #001300",
"`q c #283331",
"`r c #a3aaa8",
"`s c #7b5521",
"`t c #545152",
"`u c #91791d",
"`v c #698577",
"`w c #44544f",
"`x c #4b3b00",
"`y c #e3e4e4",
"`z c #ac9c3e",
"`A c #161600",
"`B c #8e9c99",
"`C c #675600",
"`D c #c0ac78",
"`E c #a4843f",
"`F c #4c4224",
"`G c #3b2800",
"`H c #343533",
"`I c #8d6400",
"`J c #878786",
"`K c #4a6461",
"`L c #6b4600",
"`M c #d4d4d5",
"`N c #697372",
"`O c #9e9c9c",
"`P c #805434",
"`Q c #180000",
"`R c #1b312b",
"`S c #271500",
"`T c #919291",
"`U c #602400",
"`V c #a07b3d",
"`W c #683a00",
"`X c #864a00",
"`Y c #572e00",
"`Z c #b4b7b5",
"`0 c #1b1b1d",
"`1 c #b8864c",
"`2 c #a4a4a5",
"`3 c #747473",
"`4 c #925813",
"`5 c #473a31",
"`6 c #282828",
"`7 c #646464",
"`8 c #4c2200",
".` c #8d6836",
".. c #f4f4ff",
".# c #bdbcbc",
".a c #be9a3d",
".b c #907c50",
".c c #b8932d",
".d c #bca26c",
".e c #807234",
".f c #595a59",
".g c #a38f45",
".h c #a07b1b",
".i c #94894f",
".j c #8c624c",
".k c #753d00",
".l c #ba9144",
".m c #c0aa64",
".n c #484848",
".o c #3a1900",
".p c #adacab",
".q c #cccccc",
".r c #edecec",
".s c #dcdbdb",
".t c #8f773a",
".u c #ad7b00",
".v c #6c5927",
".w c #192520",
".x c #7b8480",
".y c #342d2c",
".z c #3b3c3d",
".A c #644630",
".B c #380c00",
".C c #8caaa4",
".D c #8c7a84",
".E c #593900",
".F c #563c27",
".G c #665e59",
".H c #334b46",
".I c #816b28",
".J c #7b5c1c",
".K c #495c59",
".L c #687c7a",
".M c #7c5c40",
".N c #7c7c7a",
".O c #6b6c6c",
".P c #a18559",
".Q c #754b20",
".R c #643e34",
".S c #5c2e34",
".T c #743e34",
".U c #bc9e64",
".V c #94868c",
".W c #ac9049",
".X c #8c8e34",
".Y c #9c9e8c",
".Z c #574b1c",
".0 c #001c1c",
".1 c #2a3c38",
".2 c #8f6c19",
".3 c #261d00",
".4 c #ffffff",
".5 c #a88630",
".6 c #462f1f",
".7 c #b2b1b4",
".8 c #3c4347",
/* pixels */
".q.r.q.4.4.4.r.4.s.r`y`y`y.s.s`c`M.s.s`y.s.s.r.q",
"``.n`p`H```0```H```6`A`t`p.f`A.z`p`m```A```0`m`t",
"`Z.....r.r.4`c.q.q`c`M`c.q`M`M.p`c.s.q.q.q`M.s`c",
"`q`H`H.w`H`6`O`T`J`J.N`6`H`q`0`````p`A`A````.w.8",
"`t`2.N.N`D```2`J`7.f.w.j`j`Q.x.N`3`7.f.n.n`G`T`J",
"`3`y.L`h.m```T`7`H`0`p.b`U```p`````````A`````Z`Z",
"`T`y.N.t.g`F`7.8.y```p`p.t.E`8`Y`Y`W`n`a.B```M`c",
"`T..`J.M.``G`H`6`A```````V.v.g.a.a.c.c`s.a`n`M.p",
".x..`T`P.I`G```````````````````````````````p.#`2",
"`3`y.Y.Q`z.E`````````Q``````````````````````.p`O",
"`O.q`T.v`E`i`G`W`n`W`G`W`L`j.E`W`W`Y.E.B`l``.p.Y",
".N.#`O`j.W`j.T.Q`f.Q`j.v.I.J`f.j.j.J`s`j`L`G.7`Z",
"`c.r`Z`J.N`J`J.N.O`3.N`3`3`o`7`7.O`7.f`7`7`J.r`c",
"```t`p`6```0``.z`p`0```t``.8`A`H```0```````0`0.8",
".#.4`y.r`y.4`c.q`M`c`c`c`M.q`M.p`c`y.q`M.#.s.s.#",
"`7.n.8```p```p`0```p```6`````p`````p`m`0```A.f`t",
".N`T`2`A`p```A.z```6```H`````H``.z``.8.n``.z`M`T",
"`J`c`2```p`````````````0`````p```H`p```p`````y.p",
"`J`M`2`p`A```````````d`R``````````````````.0.4`O",
"`T`y`O```````R`w`T.H`K`w.w.w``````````````.0`y`O",
".O`c.p````.O.O.8.0`````0`````````````p`p`````M`O",
".N`Z`r`p.z.H`R```````````````````A`d````````.#`O",
"`3`Z`B.K`w.w`p````````````````.H.1`p````````.#`2",
"`3`2`B```q`p```A`A`p`p`0`````#.0```p`p``.w`p`J`T"
};
