/* XPM */
static const char *Concrete_xpm[] = {
/* width height num_colors chars_per_pixel */
"    24    24      128            2",
/* colors */
"`` c #3c3a34",
"`. c #5c6654",
"`# c #445244",
"`a c #5c524c",
"`b c #747a6c",
"`c c #6c7264",
"`d c #4c463c",
"`e c #545e4c",
"`f c #6c665c",
"`g c #545244",
"`h c #5c5e4c",
"`i c #44463c",
"`j c #646e5c",
"`k c #545a44",
"`l c #5c5e5c",
"`m c #646654",
"`n c #4c4e3c",
"`o c #443e3c",
"`p c #4c5a54",
"`q c #6c6e5c",
"`r c #4c5244",
"`s c #747264",
"`t c #545254",
"`u c #5c5a4c",
"`v c #848a7c",
"`w c #645e54",
"`x c #444e3c",
"`y c #646664",
"`z c #4c5254",
"`A c #344234",
"`B c #7c8274",
"`C c #645e5c",
"`D c #4c4e4c",
"`E c #747674",
"`F c #7c7a6c",
"`G c #4c4a4c",
"`H c #545e5c",
"`I c #6c6a5c",
"`J c #545644",
"`K c #5c624c",
"`L c #444a3c",
"`M c #545a54",
"`N c #646a54",
"`O c #746e64",
"`P c #4c5644",
"`Q c #747664",
"`R c #645a5c",
"`S c #5c6664",
"`T c #4c4a3c",
"`U c #546254",
"`V c #646e6c",
"`W c #44423c",
"`X c #6c6e6c",
"`Y c #545654",
"`Z c #5c5a5c",
"`0 c #3c4234",
"`1 c #64625c",
"`2 c #544e4c",
"`3 c #3c3e34",
"`4 c #5c665c",
"`5 c #5c5654",
"`6 c #747a74",
"`7 c #6c726c",
"`8 c #545e54",
".` c #6c6664",
".. c #7c7e74",
".# c #5c625c",
".a c #646254",
".b c #646a64",
".c c #4c5654",
".d c #54524c",
".e c #5c5e54",
".f c #444644",
".g c #646e64",
".h c #545a4c",
".i c #64665c",
".j c #4c4e44",
".k c #6c6e64",
".l c #4c524c",
".m c #74726c",
".n c #5c5a54",
".o c #444e44",
".p c #6c6a64",
".q c #54564c",
".r c #5c6254",
".s c #444a44",
".t c #545a5c",
".u c #646a5c",
".v c #4c564c",
".w c #74766c",
".x c #4c4a44",
".y c #444244",
".z c #54565c",
".A c #3c423c",
".B c #646264",
".C c #544e54",
".D c #000000",
".E c #000000",
".F c #000000",
".G c #000000",
".H c #000000",
".I c #000000",
".J c #000000",
".K c #000000",
".L c #000000",
".M c #000000",
".N c #000000",
".O c #000000",
".P c #000000",
".Q c #000000",
".R c #000000",
".S c #000000",
".T c #000000",
".U c #000000",
".V c #000000",
".W c #000000",
".X c #000000",
".Y c #000000",
".Z c #000000",
".0 c #000000",
".1 c #000000",
".2 c #000000",
".3 c #000000",
".4 c #000000",
".5 c #000000",
".6 c #000000",
".7 c #000000",
".8 c #000000",
/* pixels */
"`l`E.r.B.e.n`Y`M`Y`l`Y`1.q.d.d`3.x.f`Z.t`Y`Z`Z`Y",
"`w.d.e`2`T.j.j.h.h.q.h.q`1.h.e.n.j.e.#`M`Y`D`8.j",
".c`1.r.C.d`g.v.x.n`D.l.q.s`M.#`l`8`Y`l.q.l.#.s`M",
".i.d.n.i.d.B.j.#.h.h.#.h.q.d.l`Y`Y`M.s`M.v`M.#`l",
".`.A`..i.d.e`M.#.r`1`1.e.q`M.l`l`Y.q.r.e.A.#`Y.e",
"`4.#`1.r.r.n.#.b.e.e.e.e.h.v.q.r.d.e`l.#.j.#`8.n",
".b`y`m`s.i`l.#.i.q.e.e`1`M.#.e.j`r.q.q`D`i.l.#.b",
".i`q.r.i.q.e.u.l.e.#.e`M.i.e.#.e.r.q.d.d.q`M`M.i",
".g`q`r`q.r.e.k.l.b.n.i.#.e.r.h.r.e`h.#`l.q.i`Y`M",
".#`Z`k.n`1.r.i.#.q.r`M`M.e.i.e.u`Y`z`M.q`D.q.#.l",
"`M`Y.r`M`1.u.q.e.e.i.#.e.h.e.r`h.u`h.q.q.d`l`M`7",
"`Y.q`l.q.#.q.#.i.l.e.i.i.i.e.p`y`M.t.q.l`Y`M.i`M",
".e.n`S`8`Y`M.j`1.q.i.e.i.r.p.e`Y.#`M.n.n.d.q.e`l",
".#.n.h.n.h.r.i.#.j.i.q.l`h`l.e`W.q.d.s.#.i.s`M`Y",
".b`e`g.h.n.u`M.#.n.h`M`M.h.u.#.#.q.j.e.l`1.d.n.k",
"`7.w`X.e.r.r.r`L.e.w.e.e`1`M.r.#.e.u.r`M.j.d.k.i",
"`Q.n`c.u.e.q.u.e.u.u.i`c.e.b.i.e.i.i.l.#.#.i.k.i",
".i.i.r.i.h.i.r.r`c.#.k.k.#.i.r.e.i.e.i.q.q.s.d.l",
".k.e.w.x`B.l.e`i.q.e.l.n.A.r.n.i`M.k.b.k.b.e.e.q",
".e.p.q.u.i.k.i.u.r.i.n.i.j`M.q.l`M.n.e.e.#.i.#.e",
".p.r.b.h.i`1.q.e.i.h.a.q.p.i.l`1`M.i.b.k.#.r.w.n",
".i`l.i.r`Y`l.h.r.a.u.h.h`h.q.q.q.r`r.b.u.i.k.#.p",
"`y`1.e`M.#.i.i.k.b.e.i.q.m`1.k.i.i.p`b.k.i.i.e.w",
".q.i.#`Y.e.e`M.k.#.i.#.e`7.r.k.k.k.b`X.#`M.i`X.b"
};
