/* XPM */
static char * cukrovar_xpm[] = {
"24 24 560 2",
"  	c #2698B0",
". 	c #2598B0",
"+ 	c #2598B2",
"@ 	c #2399B3",
"# 	c #239AB5",
"$ 	c #249CB7",
"% 	c #249AB5",
"& 	c #249BB6",
"* 	c #259CB9",
"= 	c #239DBA",
"- 	c #229DBC",
"; 	c #229DBD",
"> 	c #249FC1",
", 	c #249EC2",
"' 	c #239FC4",
") 	c #259FC6",
"! 	c #279EC7",
"~ 	c #279DC8",
"{ 	c #22A1C7",
"] 	c #22A2C7",
"^ 	c #22A1C9",
"/ 	c #22A1CA",
"( 	c #22A1CB",
"_ 	c #22A1CC",
": 	c #2696AC",
"< 	c #2596AD",
"[ 	c #2497AE",
"} 	c #2397AF",
"| 	c #2398B1",
"1 	c #2399B2",
"2 	c #2398B2",
"3 	c #2499B2",
"4 	c #239AB4",
"5 	c #239BB6",
"6 	c #229BB7",
"7 	c #219BB9",
"8 	c #229DBE",
"9 	c #229DBF",
"0 	c #239DC1",
"a 	c #239DC3",
"b 	c #21A0C3",
"c 	c #20A0C4",
"d 	c #20A0C5",
"e 	c #22A0C7",
"f 	c #22A0C8",
"g 	c #22A0C9",
"h 	c #2694A7",
"i 	c #2594A7",
"j 	c #2494A8",
"k 	c #2395AA",
"l 	c #2396AC",
"m 	c #2397AE",
"n 	c #2497AD",
"o 	c #2498B0",
"p 	c #2299B1",
"q 	c #2299B2",
"r 	c #2199B3",
"s 	c #219CB6",
"t 	c #239BB8",
"u 	c #239CBB",
"v 	c #219DBC",
"w 	c #1F9DBD",
"x 	c #219EBE",
"y 	c #219EBF",
"z 	c #239FC2",
"A 	c #239FC5",
"B 	c #2691A0",
"C 	c #2692A2",
"D 	c #2694A3",
"E 	c #2594A5",
"F 	c #2494A6",
"G 	c #2494A7",
"H 	c #2595A7",
"I 	c #2595A8",
"J 	c #2496A9",
"K 	c #2598AC",
"L 	c #2498AD",
"M 	c #2399AE",
"N 	c #2298AE",
"O 	c #2696B0",
"P 	c #229BB4",
"Q 	c #1F9DB7",
"R 	c #229CB8",
"S 	c #239CB9",
"T 	c #249CBC",
"U 	c #249CBD",
"V 	c #249CBE",
"W 	c #268F9B",
"X 	c #26909C",
"Y 	c #26919E",
"Z 	c #25929F",
"` 	c #2492A0",
" .	c #2392A2",
"..	c #2593A1",
"+.	c #2493A2",
"@.	c #2494A3",
"#.	c #2596A7",
"$.	c #2496A8",
"%.	c #2396A8",
"&.	c #2696A9",
"*.	c #2894A8",
"=.	c #2D94AB",
"-.	c #2A94AC",
";.	c #2498AE",
">.	c #1F9CB0",
",.	c #229AB2",
"'.	c #229AB3",
").	c #2299B4",
"!.	c #239AB6",
"~.	c #239AB7",
"{.	c #239AB9",
"].	c #248E96",
"^.	c #288D97",
"/.	c #288F98",
"(.	c #27909A",
"_.	c #278F9B",
":.	c #278F9C",
"<.	c #298F9C",
"[.	c #2A8F9D",
"}.	c #298F9E",
"|.	c #2B91A2",
"1.	c #2B91A3",
"2.	c #3091A2",
"3.	c #247F91",
"4.	c #1B7288",
"5.	c #308FA5",
"6.	c #2795A8",
"7.	c #1F9AAB",
"8.	c #2199AE",
"9.	c #2199AF",
"0.	c #2198B0",
"a.	c #2498B2",
"b.	c #2398B3",
"c.	c #2199B4",
"d.	c #248B8B",
"e.	c #3F7380",
"f.	c #3F6D77",
"g.	c #417177",
"h.	c #4D6A77",
"i.	c #4C6878",
"j.	c #4B6878",
"k.	c #536279",
"l.	c #575F77",
"m.	c #555F76",
"n.	c #5A6075",
"o.	c #615D74",
"p.	c #5B5B6E",
"q.	c #393C4B",
"r.	c #1F2F3C",
"s.	c #3C6E7C",
"t.	c #338EA0",
"u.	c #1C96A9",
"v.	c #1E98A7",
"w.	c #1F98AB",
"x.	c #2595AF",
"y.	c #2C93AF",
"z.	c #2797AB",
"A.	c #1F9BA8",
"B.	c #316974",
"C.	c #4D445F",
"D.	c #664B67",
"E.	c #674D65",
"F.	c #69425F",
"G.	c #684C65",
"H.	c #6C5A67",
"I.	c #705966",
"J.	c #716069",
"K.	c #6B6669",
"L.	c #6D6568",
"M.	c #735F67",
"N.	c #67576A",
"O.	c #332235",
"P.	c #332839",
"Q.	c #485566",
"R.	c #457287",
"S.	c #3D879D",
"T.	c #2696A2",
"U.	c #2992A5",
"V.	c #2594A9",
"W.	c #1A9BAB",
"X.	c #1F98A9",
"Y.	c #3090A6",
"Z.	c #2A7F7A",
"`.	c #434A5A",
" +	c #685064",
".+	c #6B5465",
"++	c #5D4457",
"@+	c #2F2736",
"#+	c #3C2E42",
"$+	c #564658",
"%+	c #645D69",
"&+	c #666D72",
"*+	c #6F6F77",
"=+	c #6F5F6E",
"-+	c #605265",
";+	c #2C192B",
">+	c #402A3D",
",+	c #4C3D51",
"'+	c #4C4C62",
")+	c #526179",
"!+	c #497992",
"~+	c #358B9B",
"{+	c #1F949E",
"]+	c #1E97A3",
"^+	c #2494A4",
"/+	c #2792A4",
"(+	c #2E7F78",
"_+	c #3A3B49",
":+	c #6D4B60",
"<+	c #765466",
"[+	c #7A5668",
"}+	c #5B4D59",
"|+	c #554C56",
"1+	c #4F3B45",
"2+	c #452D31",
"3+	c #483335",
"4+	c #604049",
"5+	c #76495B",
"6+	c #534858",
"7+	c #251928",
"8+	c #423040",
"9+	c #382234",
"0+	c #301B2F",
"a+	c #4D3A51",
"b+	c #5E4F6F",
"c+	c #50697E",
"d+	c #3D828C",
"e+	c #308D96",
"f+	c #26919C",
"g+	c #1F949F",
"h+	c #24706B",
"i+	c #232432",
"j+	c #614659",
"k+	c #785A6A",
"l+	c #7F586B",
"m+	c #715867",
"n+	c #6B4B4A",
"o+	c #8F5754",
"p+	c #A25A54",
"q+	c #97524A",
"r+	c #8D4B47",
"s+	c #7D3C41",
"t+	c #372431",
"u+	c #261726",
"v+	c #4B394A",
"w+	c #372134",
"x+	c #351C31",
"y+	c #40243A",
"z+	c #5B4157",
"A+	c #725169",
"B+	c #665D71",
"C+	c #497883",
"D+	c #358992",
"E+	c #2F8A98",
"F+	c #256766",
"G+	c #252536",
"H+	c #553D51",
"I+	c #735869",
"J+	c #81566D",
"K+	c #805B70",
"L+	c #764F5C",
"M+	c #8F4D5A",
"N+	c #A24D58",
"O+	c #954C52",
"P+	c #875056",
"Q+	c #81555F",
"R+	c #6F5161",
"S+	c #6B5163",
"T+	c #775E72",
"U+	c #745A71",
"V+	c #75566F",
"W+	c #805E77",
"X+	c #826271",
"Y+	c #7A5766",
"Z+	c #7D5669",
"`+	c #766077",
" @	c #577186",
".@	c #398290",
"+@	c #2C7D6C",
"@@	c #263F42",
"#@	c #473346",
"$@	c #705367",
"%@	c #7C5E6C",
"&@	c #7C5865",
"*@	c #7D5D6E",
"=@	c #886578",
"-@	c #845E71",
";@	c #7A5366",
">@	c #855D71",
",@	c #835D71",
"'@	c #856273",
")@	c #826171",
"!@	c #765866",
"~@	c #7F606F",
"{@	c #856475",
"]@	c #7E5B6D",
"^@	c #846273",
"/@	c #7F6570",
"(@	c #745560",
"_@	c #68485B",
":@	c #5C6277",
"<@	c #3F7787",
"[@	c #2A7E6A",
"}@	c #365958",
"|@	c #423849",
"1@	c #5C4156",
"2@	c #795C6D",
"3@	c #7A5866",
"4@	c #805F70",
"5@	c #876779",
"6@	c #765768",
"7@	c #785B6C",
"8@	c #866B7B",
"9@	c #7C6271",
"0@	c #7B606E",
"a@	c #8D7481",
"b@	c #836E7A",
"c@	c #8C7683",
"d@	c #6F5663",
"e@	c #876D7B",
"f@	c #8E878D",
"g@	c #7D7B7C",
"h@	c #4C4244",
"i@	c #564D55",
"j@	c #375B61",
"k@	c #2B8785",
"l@	c #297C66",
"m@	c #3C6B65",
"n@	c #434853",
"o@	c #4B364A",
"p@	c #7F6274",
"q@	c #765666",
"r@	c #6C4B5B",
"s@	c #846675",
"t@	c #907784",
"u@	c #92808B",
"v@	c #958892",
"w@	c #80757D",
"x@	c #53424B",
"y@	c #8A7E87",
"z@	c #888089",
"A@	c #786F79",
"B@	c #4E424B",
"C@	c #7E6D75",
"D@	c #8D7C82",
"E@	c #59494D",
"F@	c #7D626A",
"G@	c #7F6874",
"H@	c #335053",
"I@	c #2C887D",
"J@	c #287C61",
"K@	c #377464",
"L@	c #455C5D",
"M@	c #3A2D3C",
"N@	c #5C3F50",
"O@	c #432735",
"P@	c #5B434C",
"Q@	c #432E36",
"R@	c #69585F",
"S@	c #93878C",
"T@	c #948A8E",
"U@	c #7A7175",
"V@	c #45363B",
"W@	c #544D54",
"X@	c #64636C",
"Y@	c #53525C",
"Z@	c #3A323A",
"`@	c #6F5F65",
" #	c #524349",
".#	c #6C6266",
"+#	c #88787F",
"@#	c #7E727C",
"##	c #2B4F4E",
"$#	c #288676",
"%#	c #267C58",
"&#	c #2E795D",
"*#	c #426A5E",
"=#	c #473F47",
"-#	c #5B3F4B",
";#	c #4B333C",
">#	c #8E8383",
",#	c #7B7071",
"'#	c #504344",
")#	c #4C3C3E",
"!#	c #7A696B",
"~#	c #7A686B",
"{#	c #483539",
"]#	c #584D56",
"^#	c #5A5965",
"/#	c #4E4D59",
"(#	c #332931",
"_#	c #473238",
":#	c #6B505C",
"<#	c #776C75",
"[#	c #6F6973",
"}#	c #6B6773",
"|#	c #2E4B4E",
"1#	c #337A6F",
"2#	c #267A51",
"3#	c #267954",
"4#	c #3C705A",
"5#	c #4B4748",
"6#	c #4D3139",
"7#	c #584448",
"8#	c #8A8885",
"9#	c #8E8887",
"0#	c #887C7C",
"a#	c #6E5B5E",
"b#	c #4C3237",
"c#	c #52343A",
"d#	c #473034",
"e#	c #564B52",
"f#	c #585763",
"g#	c #4C4D58",
"h#	c #2D262C",
"i#	c #56474A",
"j#	c #6A6F72",
"k#	c #597877",
"l#	c #4C7875",
"m#	c #487372",
"n#	c #37746E",
"o#	c #298273",
"p#	c #2E734B",
"q#	c #247A4E",
"r#	c #317452",
"s#	c #484D45",
"t#	c #42262C",
"u#	c #644D53",
"v#	c #81757A",
"w#	c #83777C",
"x#	c #796C71",
"y#	c #897A80",
"z#	c #7D6D73",
"A#	c #4C3D43",
"B#	c #383F3C",
"C#	c #4A5C56",
"D#	c #496860",
"E#	c #3E6B60",
"F#	c #346C5E",
"G#	c #347363",
"H#	c #307C68",
"I#	c #2D7D69",
"J#	c #2C7E6A",
"K#	c #2B7F6D",
"L#	c #29806E",
"M#	c #27816F",
"N#	c #2F7049",
"O#	c #24774B",
"P#	c #2D734E",
"Q#	c #435746",
"R#	c #302924",
"S#	c #575350",
"T#	c #727773",
"U#	c #6E7973",
"V#	c #61756C",
"W#	c #607E72",
"X#	c #507667",
"Y#	c #416D5C",
"Z#	c #396754",
"`#	c #3B6F5B",
" $	c #38735E",
".$	c #327660",
"+$	c #2E7B63",
"@$	c #2B7C64",
"#$	c #2A7C64",
"$$	c #2A7D65",
"%$	c #297D66",
"&$	c #297E68",
"*$	c #287E6A",
"=$	c #277E6A",
"-$	c #2E6E45",
";$	c #267446",
">$	c #2B724A",
",$	c #396246",
"'$	c #29412C",
")$	c #486450",
"!$	c #456D58",
"~$	c #417058",
"{$	c #356E53",
"]$	c #307456",
"^$	c #2A7856",
"/$	c #257955",
"($	c #277755",
"_$	c #297858",
":$	c #287757",
"<$	c #287859",
"[$	c #27795B",
"}$	c #287A5D",
"|$	c #2B7A5F",
"1$	c #2A7A60",
"2$	c #297B61",
"3$	c #297C63",
"4$	c #287C64",
"5$	c #287C65",
"6$	c #2D6F43",
"7$	c #2A7043",
"8$	c #2B7043",
"9$	c #326D46",
"0$	c #366B46",
"a$	c #356C47",
"b$	c #2C724C",
"c$	c #2A734C",
"d$	c #2B744D",
"e$	c #2A744D",
"f$	c #28774F",
"g$	c #287750",
"h$	c #297652",
"i$	c #2C7755",
"j$	c #2D7757",
"k$	c #2D7658",
"l$	c #2C7859",
"m$	c #2B785A",
"n$	c #2A795B",
"o$	c #2A7A5D",
"p$	c #287A5E",
"q$	c #287B5F",
"r$	c #2C7041",
"s$	c #2D6F40",
"t$	c #2B7040",
"u$	c #2A7140",
"v$	c #2C7040",
"w$	c #287345",
"x$	c #287245",
"y$	c #2A7145",
"z$	c #2E7147",
"A$	c #2F7046",
"B$	c #307047",
"C$	c #2D724A",
"D$	c #2D724C",
"E$	c #2B734D",
"F$	c #2D7550",
"G$	c #2C7551",
"H$	c #2C7654",
"I$	c #2B7754",
"J$	c #2A7756",
"K$	c #2A7858",
"L$	c #297859",
"M$	c #28785A",
"N$	c #2F6E3F",
"O$	c #27713D",
"P$	c #25723C",
"Q$	c #29703B",
"R$	c #2E6E40",
"S$	c #2D6E41",
"T$	c #2C6E41",
"U$	c #2B7042",
"V$	c #297142",
"W$	c #297242",
"X$	c #2E7046",
"Y$	c #2D7048",
"Z$	c #2A7149",
"`$	c #29754C",
" %	c #26764E",
".%	c #25764E",
"+%	c #2A754F",
"@%	c #2A7450",
"#%	c #297551",
"$%	c #2A7654",
"%%	c #297656",
"&%	c #287656",
"  . + @ # $ % & * = - ; > , ' ) ! ~ { ] ^ / ( _ ",
": < [ } | 1 2 3 4 5 6 7 ; 8 9 0 a a b c d e f g ",
"h i j k l m l n o p q r s 6 t u v w x x y z ' A ",
"B C D E F G H I J K L M N . O + P Q R S S T U V ",
"W X Y Z `  ...+.@.#.$.%.&.*.=.-.;.>.,.'.).!.~.{.",
"].^./.(._.:.<.[.}.|.1.|.2.3.4.5.6.7.8.9.0.a.b.c.",
"d.e.f.g.h.i.j.k.l.m.n.o.p.q.r.s.t.u.v.w.x.y.z.A.",
"B.C.D.E.F.G.H.I.J.K.L.M.N.O.P.Q.R.S.T.U.V.W.X.Y.",
"Z.`. +.+++@+#+$+%+&+*+=+-+;+>+,+'+)+!+~+{+]+^+/+",
"(+_+:+<+[+}+|+1+2+3+4+5+6+7+8+9+0+a+b+c+d+e+f+g+",
"h+i+j+k+l+m+n+o+p+q+r+s+t+u+v+w+x+y+z+A+B+C+D+E+",
"F+G+H+I+J+K+L+M+N+O+P+Q+R+S+T+U+V+W+X+Y+Z+`+ @.@",
"+@@@#@$@%@&@*@=@-@;@>@,@'@)@!@~@{@]@^@/@(@_@:@<@",
"[@}@|@1@2@3@4@5@6@7@8@9@0@a@b@c@d@e@f@g@h@i@j@k@",
"l@m@n@o@p@q@r@s@t@u@v@w@x@y@z@A@B@C@D@E@F@G@H@I@",
"J@K@L@M@N@O@P@Q@R@S@T@U@V@W@X@Y@Z@`@ #.#+#@###$#",
"%#&#*#=#-#;#>#,#'#)#!#~#{#]#^#/#(#_#:#<#[#}#|#1#",
"2#3#4#5#6#7#8#9#0#a#b#c#d#e#f#g#h#i#j#k#l#m#n#o#",
"p#q#r#s#t#u#v#w#x#y#z#A#B#C#D#E#F#G#H#I#J#K#L#M#",
"N#O#P#Q#R#S#T#U#V#W#X#Y#Z#`# $.$+$@$#$$$%$&$*$=$",
"-$;$>$,$'$)$!$~${$]$^$/$($_$:$<$[$}$|$1$2$3$4$5$",
"6$7$8$9$0$a$b$c$c$d$d$e$f$g$h$i$j$k$l$m$n$o$p$q$",
"r$s$s$t$u$v$w$x$y$z$A$B$C$D$E$F$G$G$H$I$J$K$L$M$",
"u$N$N$O$P$Q$R$S$T$U$V$W$X$Y$Z$`$ %.%+%@%#%$%%%&%"};
