/* XPM */
static char *drevorubec_xpm[] = {
/* width height num_colors chars_per_pixel */
"    24    24       64            2",
/* colors */
"`` c #0c0600",
"`. c #376539",
"`# c #313a1c",
"`a c #259066",
"`b c #3c1d00",
"`c c #2b7f37",
"`d c #24a8ad",
"`e c #315339",
"`f c #432c16",
"`g c #34825c",
"`h c #4c3b22",
"`i c #56311c",
"`j c #2f9691",
"`k c #422d29",
"`l c #332115",
"`m c #29874d",
"`n c #23aebf",
"`o c #344620",
"`p c #513b37",
"`q c #34625c",
"`r c #269b84",
"`s c #3e2516",
"`t c #485028",
"`u c #4c2f18",
"`v c #312c21",
"`w c #25a096",
"`x c #4c302b",
"`y c #26957a",
"`z c #2f7f4a",
"`A c #290f00",
"`B c #4c2614",
"`C c #2f5c54",
"`D c #288a62",
"`E c #307438",
"`F c #32726a",
"`G c #443a1c",
"`H c #44482c",
"`I c #4c4624",
"`J c #594446",
"`K c #44584c",
"`L c #3c5e3c",
"`M c #271811",
"`N c #446a4c",
"`O c #3c7258",
"`P c #2ca6a4",
"`Q c #5c381c",
"`R c #1eb4cb",
"`S c #343634",
"`T c #30483c",
"`U c #445a34",
"`V c #3c5434",
"`W c #348654",
"`X c #348767",
"`Y c #341800",
"`Z c #5c3e3c",
"`0 c #347c76",
"`1 c #29a2a7",
"`2 c #3f3c37",
"`3 c #404844",
"`4 c #386a34",
"`5 c #22aeb4",
"`6 c #342620",
"`7 c #343220",
"`8 c #3c723c",
/* pixels */
"`n`n`R`R`R`R`R`R`R`R`R`R`R`R`R`R`R`R`R`R`R`R`R`R",
"`n`n`R`R`R`R`R`R`R`R`R`R`R`R`R`R`R`R`R`R`R`R`R`R",
"`n`n`n`n`n`n`n`n`n`R`R`R`R`R`R`R`R`R`R`R`R`R`R`R",
"`d`d`d`5`n`n`n`n`n`n`n`n`n`R`n`R`R`R`R`R`R`R`R`R",
"`d`d`d`d`d`d`5`5`5`n`n`n`n`n`n`n`R`n`n`n`R`R`R`R",
"`d`d`d`d`d`d`d`d`d`d`d`d`d`d`n`n`n`n`n`n`n`R`R`R",
"`w`1`d`d`d`d`d`d`d`d`P`j`0`C`F`1`n`n`5`n`n`n`n`R",
"`w`d`d`w`w`w`P`w`j`0`C`2`x`x`k`C`w`d`d`5`5`5`5`n",
"`w`w`w`j`F`0`j`q`2`k`x`x`k`p`K`0`w`d`d`d`d`d`d`d",
"`w`w`w`F`J`v`S`2`x`x`h`3`T`v`l`v`K`0`j`1`d`d`d`d",
"`r`r`X`2`k`s`x`x`k`k`2`l`A`A`B`Q`Q`u`#`e`F`j`w`d",
"`y`D`3`k`k`x`p`x`x`k`s`s`s`s`i`i`i`u`f`f`f`7`T`q",
"`y`C`k`k`k`Z`J`p`x`k`u`B`x`f`s`s`s`f`u`f`f`f`s`s",
"`a`O`k`k`p`J`J`p`p`f`u`u`s`Y`s`s`s`u`u`B`f`f`7`C",
"`e`7`f`x`J`p`p`p`x`u`Y`Y`f`B`b`u`u`u`u`f`u`V`X`r",
"`.`7`f`l`p`p`p`k`b`Y`l`s`u`i`b`u`u`u`u`H`O`y`j`r",
"`W`o`f`s`l`2`p`l`s`s`l`l`i`u`b`B`u`h`N`X`y`y`y`y",
"`m`z`7`s`l`M`M`l`l`v`6`l`f`u`f`G`L`g`a`y`y`y`y`y",
"`m`m`.`f`f`l```M`l`6`s`b`B`u`t`z`D`a`a`a`a`a`a`a",
"`m`m`z`o`f`f`M`A`l`f`f`f`H`4`W`D`D`a`a`a`a`a`a`a",
"`m`m`m`E`v`s`s`M`s`f`h`U`z`m`m`m`D`a`D`a`a`a`a`a",
"`c`c`c`z`e`s`f`f`h`t`8`z`m`m`m`m`m`m`m`m`m`D`D`a",
"`c`c`c`c`c`#`u`I`4`c`m`m`m`m`m`m`m`m`m`m`m`m`m`m",
"`c`c`c`c`c`4`V`E`c`c`c`c`c`c`c`m`m`z`m`m`m`m`m`m"
};
