/* XPM */
static char *e_budr_xpm[] = {
/* width height num_colors chars_per_pixel */
"    24    24       64            2",
/* colors */
"`` c #1c1a1c",
"`. c #945a54",
"`# c #643e3c",
"`a c #343e34",
"`b c #cc5a5c",
"`c c #4c5249",
"`d c #ec6664",
"`e c #3c2a24",
"`f c #b45254",
"`g c #543e3c",
"`h c #7c3e3c",
"`i c #d46664",
"`j c #2c2e27",
"`k c #444a43",
"`l c #5c4e44",
"`m c #545a4f",
"`n c #bc625c",
"`o c #44463c",
"`p c #f46e6c",
"`q c #3c3634",
"`r c #34362f",
"`s c #a45a54",
"`t c #3c463c",
"`u c #dc6264",
"`v c #e46664",
"`w c #3c3e38",
"`x c #cc6264",
"`y c #54564c",
"`z c #54322c",
"`A c #c45a5c",
"`B c #7c564c",
"`C c #744e4c",
"`D c #242224",
"`E c #4c4e44",
"`F c #7c4a44",
"`G c #743a34",
"`H c #8c4a44",
"`I c #3c322c",
"`J c #b45a5c",
"`K c #f46a6c",
"`L c #ff6e6c",
"`M c #ac5e5c",
"`N c #9c5854",
"`O c #dc6864",
"`P c #c4605c",
"`Q c #644e4c",
"`R c #bc5a54",
"`S c #d46264",
"`T c #544e44",
"`U c #44322c",
"`V c #4c564c",
"`W c #ec6a6c",
"`X c #2c322c",
"`Y c #444e44",
"`Z c #545e54",
"`0 c #343a34",
"`1 c #e46a6c",
"`2 c #3c423c",
"`3 c #ff7274",
"`4 c #64423c",
"`5 c #cc5e5c",
"`6 c #3c3a34",
"`7 c #74524c",
"`8 c #242624",
/* pixels */
"`3`L`L`L`L`L`L`3`L`3`3`3`L`3`3`L`L`3`3`3`L`L`L`L",
"`L`3`L`3`3`3`L`L`L`L`3`L`L`3`3`3`3`3`L`3`L`L`L`3",
"`L`L`3`L`3`3`3`3`3`L`3`3`L`L`L`3`3`L`L`L`L`3`L`3",
"`L`3`L`3`3`L`L`3`L`L`3`3`L`L`3`L`3`L`L`L`L`L`3`L",
"`L`L`L`L`L`3`L`3`L`3`L`L`L`L`L`L`L`L`L`L`L`3`L`L",
"`L`3`3`L`L`3`L`3`L`L`L`3`L`L`L`3`L`3`L`L`3`L`L`3",
"`L`3`3`3`L`3`L`L`L`L`L`L`L`L`L`3`L`L`3`3`L`L`L`3",
"`L`3`L`L`L`L`3`3`L`W`x`M`n`1`L`L`L`L`L`L`L`L`L`L",
"`3`L`L`L`L`K`P`N`7`l`Y`E`k`T`B`M`i`L`L`L`L`L`L`L",
"`L`L`L`L`R`4`w`2`2`t`k`Y`E`E`k`k`k`7`M`1`L`L`L`3",
"`L`L`d`G`D`X`0`w`2`t`k`Y`Y`E`Y`k`Y`Y`Y`l`.`O`3`L",
"`L`L`b```8`X`0`t`k`c`c`c`c`c`c`Y`Y`E`c`c`k`C`p`L",
"`L`3`v`e`j`0`2`k`Y`c`V`y`m`Z`c`E`c`m`m`c`k`s`L`3",
"`L`L`L`#`r`a`2`k`Y`c`c`c`c`c`c`c`c`V`V`Y`Q`1`L`3",
"`L`L`3`H`j`r`0`2`k`Y`Y`c`c`c`c`V`c`Y`Y`Y`N`3`3`3",
"`3`L`3`A`e`8`j`r`w`2`t`k`k`o`k`Y`2`w`2`T`O`L`L`L",
"`L`L`L`L`d`f`h`z`U`U`U`I`I`r`6`r`q`g`F`J`L`L`L`L",
"`L`L`3`3`L`L`3`L`K`W`W`v`u`S`5`P`S`p`3`L`3`3`L`L",
"`L`3`3`L`L`L`L`3`L`3`L`L`3`L`3`3`3`3`L`L`L`3`L`L",
"`L`L`L`3`L`3`L`L`L`3`L`L`L`3`L`3`L`L`L`3`3`3`L`L",
"`3`L`L`L`L`L`3`L`3`3`3`L`L`L`L`L`L`3`L`L`L`L`L`L",
"`L`3`3`L`L`L`3`3`3`L`3`3`L`3`3`L`L`L`L`L`3`L`L`L",
"`L`3`L`3`L`3`L`3`3`3`3`L`3`L`L`3`L`L`L`3`L`L`L`L",
"`L`L`L`3`L`L`3`L`L`3`3`L`3`3`3`L`L`3`L`L`3`L`L`3"
};
