/* XPM */
static char *e_budriky_xpm[] = {
/* width height num_colors chars_per_pixel */
"    24    24       64            2",
/* colors */
"`` c #2c2e2c",
"`. c #a4464c",
"`# c #6c4244",
"`a c #d45a64",
"`b c #3c423c",
"`c c #54463c",
"`d c #bc5a5c",
"`e c #944244",
"`f c #ec626c",
"`g c #444e44",
"`h c #64524c",
"`i c #9c5654",
"`j c #d46264",
"`k c #bc5e60",
"`l c #343634",
"`m c #4c423c",
"`n c #ac5654",
"`o c #444a44",
"`p c #84524c",
"`q c #ff666c",
"`r c #74524c",
"`s c #44423c",
"`t c #54564c",
"`u c #4c564c",
"`v c #cc6264",
"`w c #ac5e5c",
"`x c #e45e64",
"`y c #4c4e44",
"`z c #e46264",
"`A c #c45e64",
"`B c #343e34",
"`C c #74564c",
"`D c #3c2a2c",
"`E c #8c4a4c",
"`F c #7c4244",
"`G c #544e44",
"`H c #845a54",
"`I c #6c4a44",
"`J c #b45a5c",
"`K c #8c5654",
"`L c #34322c",
"`M c #dc5e64",
"`N c #c4585c",
"`O c #f4666c",
"`P c #7c4e4c",
"`Q c #5c524c",
"`R c #944e4c",
"`S c #5c4644",
"`T c #3c3e3c",
"`U c #7c5654",
"`V c #6c524c",
"`W c #dc6264",
"`X c #3c3634",
"`Y c #b45e5c",
"`Z c #9c5a5c",
"`0 c #ac5a5c",
"`1 c #ff6a6f",
"`2 c #44463e",
"`3 c #4c5248",
"`4 c #e4666c",
"`5 c #d45e64",
"`6 c #3c463c",
"`7 c #ec666c",
"`8 c #c46264",
/* pixels */
"`1`1`1`1`1`1`1`1`1`1`1`1`1`1`1`1`1`1`1`1`1`1`1`1",
"`1`1`1`1`1`1`1`1`1`1`1`1`1`1`1`1`1`1`1`1`1`1`1`1",
"`1`1`1`1`1`1`1`1`1`1`1`1`1`1`1`1`1`1`1`1`1`1`1`1",
"`1`1`1`1`1`1`1`1`1`1`1`1`1`1`1`1`1`1`1`1`1`1`1`1",
"`1`1`1`1`1`1`1`1`1`1`1`1`n`d`1`1`1`1`1`1`1`1`1`1",
"`1`1`1`1`1`1`1`1`1`1`1`N`L`S`O`1`1`1`1`1`1`1`1`1",
"`1`1`1`1`1`1`1`1`1`1`1`e```s`W`1`1`1`1`1`1`1`1`1",
"`1`1`1`1`1`f`q`1`1`1`1`.`X`2`A`1`1`1`1`1`M`7`1`1",
"`1`1`1`1`E`c`p`z`1`1`1`1`z`W`O`1`1`1`1`N`m`h`w`1",
"`1`1`1`M`X`b`2`0`1`1`1`1`1`1`1`1`1`1`1`W`r`g`y`v",
"`1`1`1`q`P`Q`h`4`1`1`1`1`1`1`1`7`i`Y`1`1`7`8`k`O",
"`1`1`1`1`O`7`4`1`1`1`1`1`1`1`5`#`b`G`j`1`1`1`1`1",
"`1`1`1`1`1`1`1`1`1`1`1`1`1`1`F`l`2`o`J`1`1`1`1`1",
"`1`1`1`1`O`f`1`1`1`1`1`1`1`x`D`B`2`6`i`1`1`1`1`1",
"`1`1`1`4`U`S`R`q`1`1`1`1`1`f`F`T`o`V`k`1`1`1`1`1",
"`1`1`a`C`u`3`2`i`1`1`1`1`1`1`1`A`v`O`1`1`1`1`1`1",
"`1`1`F`3`u`3`g`0`1`1`1`1`1`1`1`1`1`1`1`1`1`1`1`1",
"`1`1`I`t`u`3`V`7`1`1`1`1`1`1`1`1`1`1`1`1`1`1`1`1",
"`1`O`K`H`Z`w`j`1`1`1`1`1`1`1`1`1`1`1`1`1`1`1`1`1",
"`1`1`q`1`1`1`1`1`1`1`1`1`1`1`1`1`1`1`1`1`1`1`1`1",
"`1`1`1`1`1`1`1`1`1`1`1`1`1`1`1`1`1`1`1`1`1`1`1`1",
"`1`1`1`1`1`1`1`1`1`1`1`1`1`1`1`1`1`1`1`1`1`1`1`1",
"`1`1`1`1`1`1`1`1`1`1`1`1`1`1`1`1`1`1`1`1`1`1`1`1",
"`1`1`1`1`1`1`1`1`1`1`1`1`1`1`1`1`1`1`1`1`1`1`1`1"
};
