/* XPM */
static char *e_mraveniste_xpm[] = {
/* width height num_colors chars_per_pixel */
"    24    24       64            2",
/* colors */
"`` c #341e14",
"`. c #844e44",
"`# c #5c3a24",
"`a c #74462c",
"`b c #ac665c",
"`c c #9c5a54",
"`d c #442e1c",
"`e c #64422c",
"`f c #744e34",
"`g c #8c564c",
"`h c #74463c",
"`i c #3c261c",
"`j c #643e24",
"`k c #c47274",
"`l c #543224",
"`m c #8c5244",
"`n c #7c4a34",
"`o c #bc6e6c",
"`p c #a4625c",
"`q c #6c422c",
"`r c #744a2c",
"`s c #b46a64",
"`t c #a45e5c",
"`u c #4c2e1c",
"`v c #945654",
"`w c #7c4a3c",
"`x c #442a1c",
"`y c #643a34",
"`z c #6c462c",
"`A c #342214",
"`B c #845244",
"`C c #5c3e2c",
"`D c #9c5e54",
"`E c #7c4e34",
"`F c #8c5254",
"`G c #744a3c",
"`H c #543624",
"`I c #4c321c",
"`J c #945a4c",
"`K c #3c2a1c",
"`L c #c47674",
"`M c #643e34",
"`N c #844e4c",
"`O c #5c3a2c",
"`P c #744634",
"`Q c #ac6664",
"`R c #9c5a5c",
"`S c #744644",
"`T c #643e2c",
"`U c #54322c",
"`V c #8c524c",
"`W c #6c4234",
"`X c #744a34",
"`Y c #b46a6c",
"`Z c #442a24",
"`0 c #6c4634",
"`1 c #34221c",
"`2 c #7c4e3c",
"`3 c #4c3224",
"`4 c #945a54",
"`5 c #000000",
"`6 c #000000",
"`7 c #000000",
"`8 c #000000",
/* pixels */
"`L`L`L`L`L`L`L`L`L`L`L`L`L`L`L`L`L`L`L`L`L`L`L`L",
"`L`L`L`L`L`L`L`L`L`L`L`L`L`L`L`L`L`L`L`L`L`L`L`L",
"`L`L`L`L`L`L`L`L`L`L`L`L`L`L`L`L`L`L`L`L`L`L`L`L",
"`L`L`L`L`L`L`L`L`L`L`L`L`L`L`L`L`L`L`L`L`L`L`L`L",
"`L`L`L`L`L`L`L`L`L`L`L`L`L`L`L`L`L`L`L`L`L`L`L`L",
"`L`L`L`L`L`L`L`L`L`k`p`g`s`L`L`L`L`L`L`L`L`L`L`L",
"`L`L`L`L`L`L`L`k`p`.`e`T`W`D`k`L`L`L`L`L`L`L`L`L",
"`L`L`L`L`L`k`c`G`T`q`z`q`q`T`B`s`L`L`L`L`L`L`L`L",
"`L`L`L`L`L`v`I`#`e`q`z`z`z`z`q`w`p`L`L`L`L`L`L`L",
"`L`L`L`L`L`M`u`#`q`z`z`X`f`X`X`a`q`m`Y`L`L`L`L`L",
"`L`L`L`L`Q`i`I`T`q`q`X`X`a`a`X`X`r`z`w`b`L`L`L`L",
"`L`L`L`L`R```H`e`z`z`X`X`a`r`X`X`X`X`z`2`o`L`L`L",
"`L`L`L`L`N`i`#`T`e`q`z`a`X`X`r`E`E`r`X`X`D`L`L`L",
"`L`L`L`L`S`i`H`#`T`e`q`z`X`X`X`X`X`X`X`X`n`s`L`L",
"`L`L`L`L`y`i`u`l`#`#`T`T`q`X`X`X`X`X`X`z`z`g`L`L",
"`L`L`L`L`U`A`K`d`3`H`#`T`T`q`a`z`r`X`X`a`z`z`Q`L",
"`L`L`L`L`F`1`A`i`x`d`3`H`#`#`j`j`q`q`z`q`X`c`o`L",
"`L`L`L`L`L`V`Z`A`A`K`d`3`H`H`H`#`C`T`P`c`o`L`L`L",
"`L`L`L`L`L`L`o`t`V`h`O`3`3`H`H`#`0`4`o`L`L`L`L`L",
"`L`L`L`L`L`L`L`L`L`L`k`Q`c`B`G`J`o`L`L`L`L`L`L`L",
"`L`L`L`L`L`L`L`L`L`L`L`L`L`L`k`L`L`L`L`L`L`L`L`L",
"`L`L`L`L`L`L`L`L`L`L`L`L`L`L`L`L`L`L`L`L`L`L`L`L",
"`L`L`L`L`L`L`L`L`L`L`L`L`L`L`L`L`L`L`L`L`L`L`L`L",
"`L`L`L`L`L`L`L`L`L`L`L`L`L`L`L`L`L`L`L`L`L`L`L`L"
};
