/* XPM */
static char *e_terrprevis_xpm[] = {
/* width height num_colors chars_per_pixel */
"    24    24      128            2",
/* colors */
"`` c #444c34",
"`. c #34a678",
"`# c #747922",
"`a c #94aa44",
"`b c #2c7e2c",
"`c c #97ddeb",
"`d c #798f1c",
"`e c #587a28",
"`f c #74ae34",
"`g c #ccdea4",
"`h c #346e24",
"`i c #8e8a1c",
"`j c #9c9214",
"`k c #549614",
"`l c #747644",
"`m c #a4d2a4",
"`n c #4c9920",
"`o c #5dc9dc",
"`p c #2caca0",
"`q c #748618",
"`r c #546321",
"`s c #70cfdf",
"`t c #9cc254",
"`u c #849644",
"`v c #4ac1d5",
"`w c #54861c",
"`x c #d4e6d4",
"`y c #b8e0a4",
"`z c #b4a63c",
"`A c #949514",
"`B c #34966c",
"`C c #25b6cd",
"`D c #847a1c",
"`E c #4c7e24",
"`F c #667b26",
"`G c #e4e27c",
"`H c #616f21",
"`I c #787c30",
"`J c #6c924c",
"`K c #84ba9c",
"`L c #84851c",
"`M c #84d2b4",
"`N c #34b8c0",
"`O c #7ca234",
"`P c #447654",
"`Q c #9ca26c",
"`R c #499c36",
"`S c #b6e7ed",
"`T c #585e14",
"`U c #797e24",
"`V c #a4a65c",
"`W c #a9e3ec",
"`X c #849214",
"`Y c #48661c",
"`Z c #9c9a18",
"`0 c #5c9e1c",
"`1 c #b4b234",
"`2 c #6c8224",
"`3 c #3c8a44",
"`4 c #6c8e1c",
"`5 c #c8c888",
"`6 c #70c8b4",
"`7 c #7cd2e4",
"`8 c #648a24",
".` c #ffffff",
".. c #ccd26c",
".# c #74a674",
".a c #54a654",
".b c #40a054",
".c c #2c5a1c",
".d c #eaee94",
".e c #b4ba6c",
".f c #949e24",
".g c #748a44",
".h c #a4a624",
".i c #b49a34",
".j c #545e4c",
".k c #8cd8e4",
".l c #acb24c",
".m c #4c9254",
".n c #dcea94",
".o c #5c9e64",
".p c #8ca634",
".q c #cfeff4",
".r c #64663c",
".s c #949254",
".t c #c4b24c",
".u c #4c8634",
".v c #6c6e14",
".w c #acae44",
".x c #ac8e2c",
".y c #acca5c",
".z c #54c6dc",
".A c #c4e2a0",
".B c #8cc698",
".C c #c4d284",
".D c #8c9264",
".E c #f4f2a4",
".F c #5c823c",
".G c #bcae54",
".H c #3cbed4",
".I c #b4d2b4",
".J c #3c802c",
".K c #848634",
".L c #e4ea94",
".M c #347224",
".N c #7c7e54",
".O c #748a1c",
".P c #48861c",
".Q c #446e24",
".R c #a4a224",
".S c #bcba44",
".T c #24aeb4",
".U c #cceaec",
".V c #a4b664",
".W c #7c9614",
".X c #647624",
".Y c #689614",
".Z c #64823c",
".0 c #34bad4",
".1 c #84962c",
".2 c #94a23c",
".3 c #dce6ac",
".4 c #7c7a24",
".5 c #d4e294",
".6 c #3c6a14",
".7 c #7c8224",
".8 c #6c8820",
/* pixels */
"`S`c`s`v`C`C`C`C`C`C`C`C`C`C`C`C`C`C`C`C`C.H.z`s",
"`C`C`C`C`C`C`C`C`C`C`C`C`C`C`C`C`C`C`C`C`C`C`C`C",
"`C`C`C.0`o`s`s`s.k`v`C.0`c.q.q.k.0`o`c`o`C`C`C`S",
"`C`C`C`C`C`C`C`C`C`C`C`C`C`C`C`C`C`C`C`C`C`C`v`s",
"`C`C`C`C`C`C`C`C`C`C`C`C`C`C`C`C`C`C`C`C`C`C`C`C",
"`C`C`C`C`C`C`C`C`C`C`C`C`C`C`C.0.0.0`C`C.0.0.0.0",
"`C.k`S`W`W`C`C`C`C`C`C`C`C`C`C`C`C`C`C`C`C`C`C`N",
"`C.q.``W`C`C`C`o`W`o.0`C`C`C`C`C`C`C`C`C`6`y.n.d",
"`C`C`o`C`C`C`C`C`C`C`C`C`v`o.z.H`C`C`C`M.A.d.d.E",
"`C`C`C`C`C`C`C`v`7`W.k`o.0`C`C`C`N`6.B`m.A.3`g.B",
"`C`C`C`C`C`C`C`C`C`C`C`C.T`p.b`n`k`k`k`k`k`k`k`k",
"`C`C`C`C`C`C`C`C`C`C`C`.`R`k`k`k`k`k`k`n`n`k`k`k",
"`C`C`7`S`S`S`c`v`C`C`C`R`k`k`k`k`k`n`n`k`k`n`n`k",
"`C`c`W.k`o`v`C`C`C`C.b`R`k.Y`k`k`w`k`k`k`n`R.a`k",
"`C`C`C`C`C`C`C`C.H`p`R`B`P`8.u.V.g`E`k.y`0`f`t.p",
"`C`C`C`C`C`C`C`C`C`..P``.s.N`5`5.D.j.C.d`y.L.t.x",
"`o.H`C.0.0.H`o`s`7`O`L`I`V``.r`l.e.Z`1`G.5`z.i.G",
"`C.0`s`S`c.U`x.I.2`A`A.S.l`h.Q`u.K.h`Z`a.R`j.S..",
"`v`W.`.o`3`b`b`b`d`A`A`Z`i`F`e.4`U`A`L`A`A`A`A`Q",
"`K.#.m`b`b`b`b.J`A`A`A`d`L`#`#.7`A`A.8`A`A`i`L.F",
"`b`b`b`b`b`b`b`8`A`A`A`q.v`F`q`A`A`A`A`L`U`#`U.X",
"`b`b`b`b`b`b`b`X`A`A.Y`T.K.f`A`i`i`A.8`F`H`T`#`#",
"`b`b`b`b`b`b.J`A`A.W.P.1.w.h.O`D`#`J`#`#`i`#`r`#",
"`b`b`b`b`b`b`b`4`d.6.v.c.M`2`e`r`r`H`H`2`A`Y`Y`F"
};
