/* XPM */
static char *e_terrup_xpm[] = {
/* width height num_colors chars_per_pixel */
"    24    24      128            2",
/* colors */
"`` c #000000",
"`. c #348234",
"`# c #8cb68c",
"`a c #24b6cc",
"`b c #7cae7c",
"`c c #1c461c",
"`d c #d4e6d4",
"`e c #5cc6dc",
"`f c #142214",
"`g c #8cd6e4",
"`h c #54aebc",
"`i c #246624",
"`j c #4c9254",
"`k c #74c6d4",
"`l c #001214",
"`m c #a4d2c4",
"`n c #6c969c",
"`o c #3cb2c4",
"`p c #44727c",
"`q c #74d2e4",
"`r c #8ccad4",
"`s c #5cc2d4",
"`t c #245e24",
"`u c #f4faff",
"`v c #44bed4",
"`w c #143234",
"`x c #1c7684",
"`y c #64a274",
"`z c #0c1a0c",
"`A c #dcf2f4",
"`B c #8cdae4",
"`C c #74aebc",
"`D c #54bed4",
"`E c #148294",
"`F c #84cad4",
"`G c #34bacc",
"`H c #000a00",
"`I c #344a4c",
"`J c #cceef4",
"`K c #6cc6d4",
"`L c #5c9e64",
"`M c #74cedc",
"`N c #a4e2ec",
"`O c #94ced4",
"`P c #243234",
"`Q c #141e1c",
"`R c #3cbacc",
"`S c #accaac",
"`T c #2cb6cc",
"`U c #9cd2dc",
"`V c #2c7e2c",
"`W c #6ca2a4",
"`X c #84d6e4",
"`Y c #1c5a64",
"`Z c #4cbed4",
"`0 c #2c7684",
"`1 c #0c1a1c",
"`2 c #84c2cc",
"`3 c #3c8a44",
"`4 c #94c6ac",
"`5 c #0c4a54",
"`6 c #cceaec",
"`7 c #64cadc",
"`8 c #142e34",
".` c #5c9a5c",
".. c #1ca6bc",
".# c #44bad4",
".a c #84ba9c",
".b c #547e84",
".c c #1c3234",
".d c #2c3e3c",
".e c #5ca684",
".f c #24722c",
".g c #b4d2b4",
".h c #74a674",
".i c #9cdeec",
".j c #b4e6ec",
".k c #0c3a44",
".l c #74b6ac",
".m c #2c525c",
".n c #74aab4",
".o c #6cc2d4",
".p c #94be94",
".q c #4c966c",
".r c #e4eee4",
".s c #6c9ea4",
".t c #54c6dc",
".u c #6ccedc",
".v c #1c626c",
".w c #2c7e8c",
".x c #0c525c",
".y c #3c863c",
".z c #6ca66c",
".A c #94deec",
".B c #7cc6d4",
".C c #7cd2e4",
".D c #ffffff",
".E c #000e14",
".F c #d4f2f4",
".G c #94d6dc",
".H c #7caeb4",
".I c #347e34",
".J c #d4eaf4",
".K c #142224",
".L c #64c2d4",
".M c #247684",
".N c #7ccedc",
".O c #ace2ec",
".P c #001618",
".Q c #8cced6",
".R c #14869c",
".S c #3cbed4",
".T c #2cbad4",
".U c #9cd6e4",
".V c #4cc2d6",
".W c #000600",
".X c #5ccadc",
".Y c #246224",
".Z c #0c1e0c",
".0 c #54c2d4",
".1 c #0c1e1c",
".2 c #7ccad4",
".3 c #7cd6e4",
".4 c #34bad4",
".5 c #000a0c",
".6 c #94cedc",
".7 c #3cbad4",
".8 c #2cb6d4",
/* pixels */
".6.Q.N`r`k`a`a`a`a`a`a`T`a`a`a`a`a`a`a`a`a.S.t.u",
"`r`r`r`r`Z`a`a`a`a`a`a`a`a`a`a`a`a`a`a`a`a`a`a`a",
"`a.L.o.7.X.u`M`q`g.V`a.4.i`J.F`B.T`e.A.X`a`a`a.j",
".8`a`a`a`G`Z`D`D`s`s`s.L`K`K`K.L`s.0`s`a`a`a.V`q",
"`a`a`a`Z`k`r`r`r`r`r`r`r`r`r`r`r`r`r`r.o`R`a`a`a",
"`a`a`a`G`s`s`D`Z`Z`0`8`1``.M`G`v.0`K`F`r.L.T.4.4",
"`a`B.j.O`N`a`a`a.k``````````.v`Z.L`Z`s`r`D`a`a`a",
"`a`J.D.O`a`a`E.W```````````````I`2`F`r`F.#`v`a.C",
"`a`a.X`a`a`5`````````````````````Q.s`r`r`r`r`X`u",
"`a`a`a`a.P``````````````````````````.b.6.Q`r.J.j",
"`a`a`a.P`````````````````````w````````.x`k`r.0.3",
"`a.8`a````````.W.R.5`````````o.m````````.d.L`a`a",
"`a`a`p```````P.V.8.E````````..`a`x``````.c`a`a`a",
"`a`g`n.K.K.w`a`a`a`l`````````h.B`r.n`Q.1`Y`a.t`A",
"`T`Z`K`k.B.B`K`K.B`1`````````C`r.Q`U.G`e`v.T`a`q",
"`a`a`T`D`k.2`F`F`F`Q````````.H.Q`r`r`4.j`v.T`G`T",
".X.S.8.4.T.S`7`M.C.K`````````W.l.e.q.y`#`m.O.U`K",
".8.T.u.j.A`6`d.g.p`f`````````i`V`V`V`V`V`V`y`O`U",
".V`N.D`L`3`V`V`V`V`z````````.Y`V`V`V`V`V`V`V`S.r",
".a.h`j`V`V`V`V`V`V.Z`````````t`V`V`V`V`V`V`V`V.`",
"`V`V`V`V`V`V`V`V`V.Z````````.Y`V`V`V`V`V`V`V`V`V",
"`V`V`V`V`V`V`V`V`V`c```````H`V`V`V.I`V`V`V`b`V`3",
"`V`V`V`V`V`V`V`V`V`V.f`t`t`V`V`V.I.z`V`V`V`V`V`V",
"`V`V`V`V`V`V`V`V`V`V`V`V`V`V`V`V`.`V.I`V`V`V`V`V"
};
