/* XPM */
static char *e_terrdown_xpm[] = {
/* width height num_colors chars_per_pixel */
"    24    24      128            2",
/* colors */
"`` c #000000",
"`. c #348234",
"`# c #accaac",
"`a c #24b6cc",
"`b c #64b6c4",
"`c c #1c461c",
"`d c #246224",
"`e c #5ccadc",
"`f c #54867c",
"`g c #cceef4",
"`h c #7ccad4",
"`i c #44bad4",
"`j c #446264",
"`k c #0c262c",
"`l c #94deec",
"`m c #2c4244",
"`n c #7cd6e4",
"`o c #2c626c",
"`p c #5c9a5c",
"`q c #1c869c",
"`r c #1c5a1c",
"`s c #34bacc",
"`t c #84ba9c",
"`u c #8ccad4",
"`v c #4cc2d6",
"`w c #001214",
"`x c #ace2ec",
"`y c #94ced9",
"`z c #24722c",
"`A c #f4faff",
"`B c #243634",
"`C c #3492a4",
"`D c #5cc2d4",
"`E c #0c424c",
"`F c #6ccadc",
"`G c #5c929c",
"`H c #74a674",
"`I c #94d2dc",
"`J c #000a00",
"`K c #dcf2f4",
"`L c #7cd2e4",
"`M c #54bed4",
"`N c #a4deec",
"`O c #147284",
"`P c #1c96ac",
"`Q c #3cbacf",
"`R c #6cc2d4",
"`S c #74d2e4",
"`T c #2cb6cf",
"`U c #64828c",
"`V c #84cad4",
"`W c #44bed4",
"`X c #347e34",
"`Y c #143614",
"`Z c #3c5e64",
"`0 c #8cd6e4",
"`1 c #64a274",
"`2 c #1c525c",
"`3 c #8cd2dc",
"`4 c #54c2d4",
"`5 c #2c7e2c",
"`6 c #74cad4",
"`7 c #2c7e8c",
"`8 c #4c9254",
".` c #1c4e1c",
".. c #4c7a80",
".# c #74c6d4",
".a c #24424c",
".b c #344e54",
".c c #141a1c",
".d c #1c5e64",
".e c #343e3c",
".f c #3c4644",
".g c #bce6ec",
".h c #2c96ac",
".i c #3c8a44",
".j c #44929c",
".k c #248ea4",
".l c #2c3e3c",
".m c #7cae7c",
".n c #1c4a54",
".o c #d4f2f4",
".p c #5c828c",
".q c #4cb6c4",
".r c #e4eee4",
".s c #147a8c",
".t c #246a24",
".u c #9cdae4",
".v c #9ccad4",
".w c #64c2d4",
".x c #9cd2dc",
".y c #6ca66c",
".z c #54828c",
".A c #d4eaf4",
".B c #b4e6ec",
".C c #2c722c",
".D c #ffffff",
".E c #64969c",
".F c #245254",
".G c #14262c",
".H c #84d6e4",
".I c #4cbed4",
".J c #7cc6d4",
".K c #7ccedc",
".L c #5c9e64",
".M c #8cced6",
".N c #00160c",
".O c #5cc6dc",
".P c #000e00",
".Q c #3cbed4",
".R c #2cbad4",
".S c #84cedc",
".T c #54c6dc",
".U c #74cedc",
".V c #9cdeec",
".W c #9cd6e4",
".X c #000600",
".Y c #1c4a1c",
".Z c #246624",
".0 c #6ccedc",
".1 c #a4e2ec",
".2 c #147684",
".3 c #6cc6d4",
".4 c #143a14",
".5 c #8cdae4",
".6 c #2c9aac",
".7 c #2c762c",
".8 c #34bad4",
/* pixels */
"`y.M.K`u.#`a`a`a`a`a`a`T`a`a`a`a`a`a`a`a`a.Q.T.0",
"`u`u`u`u.I`a`a`a`a`a`a`a`a`a`a`a`a`a`a`a`a`a`a`a",
"`a.w`R`Q`e.0.U`S`0`v`a.8.V`g.o.5.R.O`l`e`a`a`a.B",
"`T`a`a`a`s.I`M`M`D`D`D.w.3.3.3.w`D`4`D`a`a`a`v`S",
"`a`a`a.I.#`u`u`u`u`u`u`u`u`u`u`u`u`u`u`R`Q`a`a`a",
"`a`a`a`s`D`D`M.I.I`W`i`7```w.h`W`4.3`V`u.w.R.8.8",
"`a.5.B`x.1`a`a`a`a`a`P``````.d.I.w.I`D`u`M`a`a`a",
"`a`g.D`x`a`a`a.O`N`F.j```````j`V`V`V`u`V`i`W`a`L",
"`a`a`e`a`a`a`T`M.#`h`G```````Z.3.#`V`u`u`u`u.H`A",
"`a`a`a`a`a`T`4`6.S.u.E```````2`u`u`u.M`y.M`u.A.B",
"`a`a`a`a`a`a`s`T`a`a.s``````.F`u.I`T`a`a.#`u`4`n",
"`a`T`a`a`a`a`a`a`a`a.s``````.n.w`Q`a`a.w`u.w`a`a",
"`a`a`L.B.g.B`l`v`T`a.2```````E`a`T`M`u`u.#`a`a`a",
"`a`0.W`3`F`C`a`a`a`a`O``````.a.J`u`u`u`b`k.X.q`K",
"`T.I.3.#.c``.G`b.J.J..```````m`u.M.x.p```````q`S",
"`a`a`T`o````````.z`V..``````.l.M`u`m````````.6`T",
"`e.Q`T.k`J````````.b`U```````B`f.X``````.e.v.W.3",
"`T.R.0.B`I.f````````.X``````.P````````.Y`5`1`y.x",
"`v.1.D.L.i`5.`````````````````````.N`d`5`5`5`#.r",
"`t`H`8`5`5`5`5.t`J``````````````.4`5`5`5`5`5`5`p",
"`5`5`5`5`5`5`5`5`5`Y````````.X`r`5`5`5`5`5`5`5`5",
"`5`5`5`5`5`5`5`5`5`5`c``````.C`5`5`X`5`5`5.m`5.i",
"`5`5`5`5`5`5`5`5`5`5`5.7.Z`z`5`5`X.y`5`5`5`5`5`5",
"`5`5`5`5`5`5`5`5`5`5`5`5`5`5`5`5`.`5`X`5`5`5`5`5"
};
