/* XPM */
static char *e_trava1_xpm[] = {
/* width height num_colors chars_per_pixel */
"    24    24       64            2",
/* colors */
"`` c #002a00",
"`. c #5c9600",
"`# c #246200",
"`a c #b4d638",
"`b c #94ba19",
"`c c #447e00",
"`d c #7c9e00",
"`e c #144a00",
"`f c #446a00",
"`g c #5c7e00",
"`h c #7caa14",
"`i c #ffffff",
"`j c #345200",
"`k c #749600",
"`l c #c4f654",
"`m c #9cc624",
"`n c #5c8a00",
"`o c #94b214",
"`p c #143a00",
"`q c #bce64c",
"`r c #245a00",
"`s c #447a00",
"`t c #244e00",
"`u c #84b20c",
"`v c #749e00",
"`w c #5c9200",
"`x c #003600",
"`y c #3c6200",
"`z c #bcde3c",
"`A c #9cc224",
"`B c #547200",
"`C c #648a00",
"`D c #649e00",
"`E c #dcff64",
"`F c #345a00",
"`G c #3c6a00",
"`H c #547f00",
"`I c #143200",
"`J c #a4ce2c",
"`K c #547a00",
"`L c #1c5200",
"`M c #1c4200",
"`N c #94ba2c",
"`O c #7ca600",
"`P c #447200",
"`Q c #84aa00",
"`R c #a4c634",
"`S c #c4ea54",
"`T c #649600",
"`U c #1c4a00",
"`V c #94b224",
"`W c #84b21c",
"`X c #bcde4c",
"`Y c #84aa14",
"`Z c #74a200",
"`0 c #002e00",
"`1 c #7ca200",
"`2 c #446e00",
"`3 c #5c8200",
"`4 c #5c8e00",
"`5 c #245200",
"`6 c #648e00",
"`7 c #345e00",
"`8 c #3c6e00",
/* pixels */
"`#`7`L`p`8`7`l`x`x`4`2`x`8`7`n`P`5```h`P`p`P`H`U",
"`e`L`.`D`H`4`0`4`H`n`M`r`p`H`q`v`Z`c`H`4```5`h`H",
"`#`w`D`r`G`H`4`U`P`G`n`H`h`7`P`8`4`J`2`n`2`s`k`8",
"```e`W`P`k`s`U`x`7`p`H`G`T`P`n`n`7`k`C`H`H`2`C`G",
"`c`0`U`b`7`Y`u`m`K`C`O`M`k`Y`t`M`F`C`C`Q`v`3`b`T",
"`Z`w`G`p`b`O`b`u`n`H`a`t`````6`y`A`M`K`J`k`f`M`g",
"`U`H`P`C`K`y`3`T`n`Y`0`y`x`y`7`2`5`i`i`M`p```K`B",
"`P`i`i`i`i`i`i`i`i`i`i`y`k`J`i`i`i`i`i`K`H```P`j",
"`x`i`i`i`i`i`i`i`i`i`i`y`2`g`i`i`i`i`i`y`U`f`t`P",
"`4`i`i`F`C`i`i```f`i`i`M`K`F`k`d`g`i`i`3`y`2`y`v",
"```i`i`3`n`i`i`K`M`i`i`F`1`p`3`G`Q`i`i`I`y```u`F",
"`T`i`i`7`Q`i`i`C`u`i`i`F`u`m`g```t`i`i`C`K```A`K",
"`K`M```M`M`i`i`Q`v`5`C`A`t`y`C`F`K`i`i`I`F`v`g`2",
"`G`H`P`n`3`i`i`7`k`O`p`1`C`f`f`y`f`i`i`h`C`y`M`3",
"`n`P`h`k`5`i`i`I`t`1`1`C`y`k`y`R`j`i`i`K`F`y`d`B",
"`M`f`t`x`b`i`i`Y`y`P`y`k`A`2`t`B```i`i`C`0`H```o",
"`0`y`M`K`p`i`i`A`B`y`H`M`k`j`a`K`d`i`i`6```I`A`M",
"`p`7`3`i`i`i`i`i`i`B`k`p`S`M`i`i`i`i`i`i`i`i`y`I",
"`2`5`H`i`i`i`i`i`i`g`b`C`y`E`i`i`i`i`i`i`i`i`o`Y",
"`h`u`n`p`k`M`j`z`K`3`F`t`t`g`M`g`A`t`f`g`k`F`t`I",
"`5`7`P`y`k`3`k`b`t`d`j`g`t`k`g`K`C`p`b`g`Y`k```F",
"`N`K```H`g`P`B`m`I`g`Y`C```C`p`C`M`y`k`B`1`C`X`K",
"`p`h`5`k`g`T`o`1`3`y```j`k`B`C`y`k`p`y`C`C`j`f``",
"`h```P```J`y`f`K`j`g`j`V`g`j`y`k`t`C`t`y`A`M`o`M"
};
