/* XPM */
static char * farma_xpm[] = {
"24 24 555 2",
"  	c #1FACB2",
". 	c #20ADB4",
"+ 	c #20AEB6",
"@ 	c #1FADB7",
"# 	c #1EAFB9",
"$ 	c #1EB0BA",
"% 	c #20AFBC",
"& 	c #20B0BD",
"* 	c #20B2C0",
"= 	c #1EB1C0",
"- 	c #1EB2C2",
"; 	c #1EB3C4",
"> 	c #1EB4C4",
", 	c #1EB5C6",
"' 	c #1EB6C8",
") 	c #1DB5C9",
"! 	c #1CB7CB",
"~ 	c #1DB7CD",
"{ 	c #20B7CB",
"] 	c #1FB7CC",
"^ 	c #1FB7CD",
"/ 	c #1EB8D0",
"( 	c #1DB8D0",
"_ 	c #1DB9D1",
": 	c #20AAAE",
"< 	c #20ABAF",
"[ 	c #20ACB1",
"} 	c #1EACB2",
"| 	c #1EACB5",
"1 	c #1EAEB6",
"2 	c #20ADB7",
"3 	c #20AEB9",
"4 	c #20AFBA",
"5 	c #1FAFBB",
"6 	c #1EB0BE",
"7 	c #1EB1BF",
"8 	c #1EB2C0",
"9 	c #1EB3C1",
"0 	c #1EB4C3",
"a 	c #1DB3C4",
"b 	c #1DB4C6",
"c 	c #1DB5C7",
"d 	c #1FB5C7",
"e 	c #1EB5C7",
"f 	c #1EB5C9",
"g 	c #1EB6CC",
"h 	c #1DB6CD",
"i 	c #1CB7CD",
"j 	c #21A8A8",
"k 	c #21A9A9",
"l 	c #21AAAB",
"m 	c #20A9AC",
"n 	c #1FAAAE",
"o 	c #20ABB0",
"p 	c #21ABB0",
"q 	c #21ACB2",
"r 	c #21ADB4",
"s 	c #1FADB5",
"t 	c #1FAEB7",
"u 	c #1FAFB8",
"v 	c #1FAFB9",
"w 	c #20B0BB",
"x 	c #1FB2BD",
"y 	c #1EB1BE",
"z 	c #1DB2C0",
"A 	c #1FB3C2",
"B 	c #1EB3C3",
"C 	c #1EB4C6",
"D 	c #1DB4C7",
"E 	c #1CB5C8",
"F 	c #22A49F",
"G 	c #22A6A1",
"H 	c #22A7A3",
"I 	c #20A6A4",
"J 	c #21A7A6",
"K 	c #21A8A7",
"L 	c #22A8A9",
"M 	c #23A9AA",
"N 	c #22AAAC",
"O 	c #21AAAD",
"P 	c #20ACB0",
"Q 	c #21ADB2",
"R 	c #20ADB3",
"S 	c #1FADB4",
"T 	c #1FAEB5",
"U 	c #1EAFB8",
"V 	c #1FB0B9",
"W 	c #20B0BA",
"X 	c #20B1BC",
"Y 	c #20B2BF",
"Z 	c #1EB2BF",
"` 	c #1DB3C1",
" .	c #24A299",
"..	c #23A39A",
"+.	c #23A49D",
"@.	c #22A49D",
"#.	c #21A59F",
"$.	c #22A6A0",
"%.	c #23A6A2",
"&.	c #23A7A3",
"*.	c #23A8A5",
"=.	c #22A9AA",
"-.	c #22ABAC",
";.	c #20ABAE",
">.	c #20ACAF",
",.	c #1FAEB3",
"'.	c #20AEB5",
").	c #20AFB7",
"!.	c #20B0B9",
"~.	c #1EB1BC",
"{.	c #1EB2BD",
"].	c #24A093",
"^.	c #24A195",
"/.	c #22A29A",
"(.	c #21A39D",
"_.	c #22A39E",
":.	c #23A59F",
"<.	c #23A6A0",
"[.	c #21A5A1",
"}.	c #21A6A3",
"|.	c #22A7A4",
"1.	c #23A8A7",
"2.	c #22A9A9",
"3.	c #21A9AA",
"4.	c #1FA9AA",
"5.	c #20AAAC",
"6.	c #21ABAF",
"7.	c #1EACB1",
"8.	c #1FADB3",
"9.	c #1FAEB4",
"0.	c #1DAEB5",
"a.	c #1DAFB7",
"b.	c #1EB0B9",
"c.	c #279F89",
"d.	c #25A18D",
"e.	c #279CA1",
"f.	c #259E95",
"g.	c #229F9E",
"h.	c #27A099",
"i.	c #20A198",
"j.	c #20A39B",
"k.	c #20A49B",
"l.	c #21A49B",
"m.	c #22A59D",
"n.	c #23A69D",
"o.	c #28A49E",
"p.	c #24A6A7",
"q.	c #1DA7AA",
"r.	c #1DAAA6",
"s.	c #21A8A5",
"t.	c #26A7AB",
"u.	c #20AAAB",
"v.	c #1DABA8",
"w.	c #1DADA7",
"x.	c #1EABA9",
"y.	c #20ACB2",
"z.	c #16A289",
"A.	c #279E7D",
"B.	c #359678",
"C.	c #40A055",
"D.	c #43A057",
"E.	c #449F50",
"F.	c #499C57",
"G.	c #499B58",
"H.	c #4B9D5A",
"I.	c #4B9D5B",
"J.	c #4A9E5A",
"K.	c #3FA25B",
"L.	c #359D6E",
"M.	c #2F9B85",
"N.	c #2C998C",
"O.	c #339A89",
"P.	c #389784",
"Q.	c #40908D",
"R.	c #28A59B",
"S.	c #16ACA2",
"T.	c #22A7A9",
"U.	c #24A6AB",
"V.	c #18AEAB",
"W.	c #25907B",
"X.	c #26593B",
"Y.	c #48622C",
"Z.	c #84A323",
"`.	c #8AA421",
" +	c #81A31C",
".+	c #879D12",
"++	c #879B10",
"@+	c #8A9E13",
"#+	c #8CA015",
"$+	c #8B9F14",
"%+	c #8A9E14",
"&+	c #889A1E",
"*+	c #6A7C27",
"=+	c #30411F",
"-+	c #374243",
";+	c #565E5A",
">+	c #626B54",
",+	c #586B62",
"'+	c #3E8C7F",
")+	c #25A39A",
"!+	c #21A5A5",
"~+	c #21A6A6",
"{+	c #1BABA2",
"]+	c #368164",
"^+	c #39341D",
"/+	c #57480F",
"(+	c #96A10C",
"_+	c #9A9F07",
":+	c #8CA410",
"<+	c #859F09",
"[+	c #87A00A",
"}+	c #8BA40E",
"|+	c #89A20D",
"1+	c #89A20C",
"2+	c #869F08",
"3+	c #8C9D02",
"4+	c #859414",
"5+	c #4D550E",
"6+	c #313125",
"7+	c #565551",
"8+	c #696A52",
"9+	c #6E705E",
"0+	c #5F6E66",
"a+	c #498882",
"b+	c #27A397",
"c+	c #1AA69A",
"d+	c #27A19A",
"e+	c #2B8258",
"f+	c #3A3221",
"g+	c #494816",
"h+	c #82A90E",
"i+	c #8CA205",
"j+	c #84AA10",
"k+	c #8DA206",
"l+	c #8A9C03",
"m+	c #8D9F04",
"n+	c #90A106",
"o+	c #92A408",
"p+	c #8C9E03",
"q+	c #8B9C04",
"r+	c #899B06",
"s+	c #7C881B",
"t+	c #191B02",
"u+	c #2C2C27",
"v+	c #626359",
"w+	c #6C6F5E",
"x+	c #796E64",
"y+	c #66736A",
"z+	c #3D917D",
"A+	c #27A18F",
"B+	c #28A099",
"C+	c #297D55",
"D+	c #3F2D28",
"E+	c #46411E",
"F+	c #86A814",
"G+	c #99A103",
"H+	c #90A408",
"I+	c #8EA511",
"J+	c #8CA210",
"K+	c #8CA20F",
"L+	c #8EA412",
"M+	c #8DA411",
"N+	c #8BA10F",
"O+	c #909A0E",
"P+	c #95A102",
"Q+	c #919B0F",
"R+	c #555417",
"S+	c #100906",
"T+	c #484144",
"U+	c #727067",
"V+	c #7E7365",
"W+	c #7C7764",
"X+	c #5A7966",
"Y+	c #398D7E",
"Z+	c #20A195",
"`+	c #2C744C",
" @	c #3B2F22",
".@	c #433D13",
"+@	c #92A00F",
"@@	c #92A708",
"#@	c #92A310",
"$@	c #8FA40C",
"%@	c #8BA109",
"&@	c #889F07",
"*@	c #89A209",
"=@	c #8BA40D",
"-@	c #919B0B",
";@	c #929D07",
">@	c #919F08",
",@	c #848E19",
"'@	c #262906",
")@	c #18131A",
"!@	c #5D5451",
"~@	c #84766E",
"{@	c #7A7C68",
"]@	c #585C4B",
"^@	c #3B5347",
"/@	c #358C77",
"(@	c #2C6F46",
"_@	c #3A2E1D",
":@	c #423E10",
"<@	c #93A311",
"[@	c #8FAC0A",
"}@	c #8DA50C",
"|@	c #8DA703",
"1@	c #89A200",
"2@	c #8EA704",
"3@	c #8DA404",
"4@	c #8DA407",
"5@	c #899F05",
"6@	c #89A008",
"7@	c #879F05",
"8@	c #8CA407",
"9@	c #899C16",
"0@	c #677124",
"a@	c #0A0B01",
"b@	c #253025",
"c@	c #565448",
"d@	c #3E412F",
"e@	c #302A1E",
"f@	c #2D3930",
"g@	c #1A6952",
"h@	c #2E6B43",
"i@	c #3F301B",
"j@	c #3B390B",
"k@	c #8B9C19",
"l@	c #85A30F",
"m@	c #89A311",
"n@	c #8CA30D",
"o@	c #899E0B",
"p@	c #8EA112",
"q@	c #8D9E16",
"r@	c #889613",
"s@	c #818D0F",
"t@	c #798A10",
"u@	c #74850D",
"v@	c #718009",
"w@	c #687108",
"x@	c #636319",
"y@	c #272208",
"z@	c #060A03",
"A@	c #291F16",
"B@	c #30261A",
"C@	c #36261F",
"D@	c #282E27",
"E@	c #2D7A62",
"F@	c #316741",
"G@	c #3E2C16",
"H@	c #3A3612",
"I@	c #697412",
"J@	c #687C13",
"K@	c #616E0B",
"L@	c #5D640B",
"M@	c #585D09",
"N@	c #505505",
"O@	c #4D5006",
"P@	c #4A4C08",
"Q@	c #474809",
"R@	c #44450A",
"S@	c #43420B",
"T@	c #414009",
"U@	c #3F3E06",
"V@	c #403C14",
"W@	c #393220",
"X@	c #23160F",
"Y@	c #3D2620",
"Z@	c #3A3026",
"`@	c #382F29",
" #	c #26352B",
".#	c #2F8668",
"+#	c #2D603A",
"@#	c #3E2A16",
"##	c #3A301E",
"$#	c #414008",
"%#	c #3F400E",
"&#	c #453D0A",
"*#	c #433811",
"=#	c #443A16",
"-#	c #3C3412",
";#	c #373313",
">#	c #383618",
",#	c #3A381C",
"'#	c #4A341E",
")#	c #462F25",
"!#	c #3E2E24",
"~#	c #3E3523",
"{#	c #3F3C29",
"]#	c #3C3D32",
"^#	c #334732",
"/#	c #384E3A",
"(#	c #2E5C42",
"_#	c #3B6550",
":#	c #3B6D57",
"<#	c #218B64",
"[#	c #315E39",
"}#	c #442F1D",
"|#	c #3F322B",
"1#	c #3D3319",
"2#	c #3B3124",
"3#	c #453221",
"4#	c #44351F",
"5#	c #433922",
"6#	c #3F3B22",
"7#	c #3B3F26",
"8#	c #3D472C",
"9#	c #3E4F32",
"0#	c #355D35",
"a#	c #356346",
"b#	c #326B51",
"c#	c #327951",
"d#	c #2E8151",
"e#	c #2C8556",
"f#	c #31895B",
"g#	c #2F8C5F",
"h#	c #229564",
"i#	c #2C9068",
"j#	c #348C69",
"k#	c #1D9769",
"l#	c #3A5C30",
"m#	c #334922",
"n#	c #384B27",
"o#	c #3D532E",
"p#	c #375832",
"q#	c #39643B",
"r#	c #317241",
"s#	c #317846",
"t#	c #327E4C",
"u#	c #2F8350",
"v#	c #2B8652",
"w#	c #2A8853",
"x#	c #298853",
"y#	c #298956",
"z#	c #298B58",
"A#	c #268B59",
"B#	c #258C5B",
"C#	c #258E5B",
"D#	c #268D5C",
"E#	c #268E5E",
"F#	c #259061",
"G#	c #259062",
"H#	c #259064",
"I#	c #229165",
"J#	c #24823B",
"K#	c #28813D",
"L#	c #2B7F3E",
"M#	c #2A8241",
"N#	c #248642",
"O#	c #1E8743",
"P#	c #2C8447",
"Q#	c #2C8449",
"R#	c #2A854A",
"S#	c #27854B",
"T#	c #25874D",
"U#	c #25884E",
"V#	c #278750",
"W#	c #288851",
"X#	c #278953",
"Y#	c #268954",
"Z#	c #268A56",
"`#	c #268B57",
" $	c #268B58",
".$	c #268D5A",
"+$	c #248E5D",
"@$	c #248E5F",
"#$	c #238E5F",
"$$	c #2B7E34",
"%$	c #2C7C33",
"&$	c #307C36",
"*$	c #307E39",
"=$	c #2B803A",
"-$	c #27823C",
";$	c #258440",
">$	c #258441",
",$	c #268543",
"'$	c #268444",
")$	c #278446",
"!$	c #288548",
"~$	c #288549",
"{$	c #29864A",
"]$	c #29874C",
"^$	c #27874D",
"/$	c #27884F",
"($	c #278951",
"_$	c #278952",
":$	c #278A53",
"<$	c #278B56",
"[$	c #268C57",
"}$	c #258C58",
"|$	c #248C59",
"1$	c #277F2D",
"2$	c #277E2E",
"3$	c #287E2F",
"4$	c #2A8033",
"5$	c #278134",
"6$	c #258135",
"7$	c #238338",
"8$	c #248339",
"9$	c #25823A",
"0$	c #27823D",
"a$	c #29823F",
"b$	c #2A8240",
"c$	c #2A8342",
"d$	c #2A8444",
"e$	c #298446",
"f$	c #298648",
"g$	c #298749",
"h$	c #288649",
"i$	c #28874B",
"j$	c #28894D",
"k$	c #26884E",
"l$	c #268950",
"m$	c #268A52",
"n$	c #2A7D2D",
"o$	c #2A7D2F",
"p$	c #2A7D30",
"q$	c #2A7C31",
"r$	c #2A7C32",
"s$	c #287E32",
"t$	c #287F32",
"u$	c #277F34",
"v$	c #297F37",
"w$	c #2B7F38",
"x$	c #2C803A",
"y$	c #2B7F3A",
"z$	c #2B813C",
"A$	c #2B813D",
"B$	c #2A823F",
"C$	c #2A8341",
"D$	c #2A8443",
"E$	c #298443",
"F$	c #298545",
"G$	c #298646",
"H$	c #278647",
"I$	c #278749",
"J$	c #27884B",
"K$	c #297D2F",
"L$	c #297D30",
"M$	c #2A7D31",
"N$	c #2D7C32",
"O$	c #2C7B2D",
"P$	c #2B7B2E",
"Q$	c #2A7B2F",
"R$	c #2B7F35",
"S$	c #2B7D36",
"T$	c #2B7E37",
"U$	c #2A8039",
"V$	c #2A803A",
"W$	c #2A813C",
"X$	c #2B823E",
"Y$	c #28813E",
"Z$	c #298240",
"`$	c #298442",
" %	c #278343",
".%	c #278545",
"+%	c #278646",
"  . + @ # $ % & * = - ; > , ' ) ! ~ { ] ^ / ( _ ",
": < [ } | 1 2 3 4 5 6 7 8 9 0 a b c d e f g h i ",
"j k l m n o p q r s t u v w x y z 9 A A B C D E ",
"F G H I J K L M N O < P Q R S T U V W X Y Z ` 0 ",
" ...+.@.#.$.%.&.*.J j =.-.-.;.>.[ ,.'.).!.$ ~.{.",
"].^. ./.(._.@.:.<.[.}.|.1.2.3.4.5.6.7.8.9.0.a.b.",
"c.d.e.f.g.h.i.j.k.l.m.n.o.p.q.r.s.t.u.v.w.x.;.y.",
"z.A.B.C.D.E.F.G.H.H.I.J.K.L.M.N.O.P.Q.R.S.T.U.V.",
"W.X.Y.Z.`. +.+++@+#+$+%+&+*+=+-+;+>+,+'+)+!+~+{+",
"]+^+/+(+_+:+<+[+}+|+1+2+3+4+5+6+7+8+9+0+a+b+c+d+",
"e+f+g+h+i+j+k+l+m+n+o+p+q+r+s+t+u+v+w+x+y+z+A+B+",
"C+D+E+F+G+H+I+J+K+L+M+N+O+P+Q+R+S+T+U+V+W+X+Y+Z+",
"`+ @.@+@@@#@$@%@&@*@=@2+-@;@>@,@'@)@!@~@{@]@^@/@",
"(@_@:@<@[@}@|@1@2@3@4@5@6@7@8@9@0@a@b@c@d@e@f@g@",
"h@i@j@k@l@m@n@o@p@q@r@s@t@u@v@w@x@y@z@A@B@C@D@E@",
"F@G@H@I@J@K@L@M@N@O@P@Q@R@S@T@U@V@W@X@Y@Z@`@ #.#",
"+#@###$#%#&#*#=#-#;#>#,#'#)#!#~#{#]#^#/#(#_#:#<#",
"[#}#|#1#2#3#4#5#6#7#8#9#0#a#b#c#d#e#f#g#h#i#j#k#",
"l#m#n#o#p#q#r#s#t#u#v#w#x#y#z#A#B#C#D#E#F#G#H#I#",
"J#K#L#M#N#O#P#Q#R#S#T#U#V#W#X#Y#Z#`# $.$D#+$@$#$",
"$$%$&$*$=$-$;$>$,$'$)$!$~${$]$^$/$($_$:$<$[$}$|$",
"1$2$3$4$5$6$7$8$9$0$a$M#b$c$d$e$f$g$h$i$j$k$l$m$",
"n$n$o$p$q$r$s$t$u$v$w$x$y$z$A$B$C$D$E$F$G$H$I$J$",
"n$K$L$M$%$N$O$P$Q$M$$$R$S$T$U$V$W$X$Y$Z$`$ %.%+%"};
