/* XPM */
static char * lihovar_xpm[] = {
"24 24 565 2",
"  	c #20ACB3",
". 	c #22ACB4",
"+ 	c #23ADB5",
"@ 	c #21AEB5",
"# 	c #1FAFB5",
"$ 	c #1DB0B6",
"% 	c #1EB0BE",
"& 	c #1EB1C0",
"* 	c #1EB2C2",
"= 	c #1CB2C3",
"- 	c #1CB3C5",
"; 	c #1DB3C6",
"> 	c #1FB3C5",
", 	c #1EB5C7",
"' 	c #1CB7CA",
") 	c #1BB5CC",
"! 	c #1FB4D0",
"~ 	c #23B3D1",
"{ 	c #1FB7CC",
"] 	c #1FB7CD",
"^ 	c #20B8D0",
"/ 	c #20B7D0",
"( 	c #20B7D1",
"_ 	c #1EABAE",
": 	c #20ABAF",
"< 	c #21ABB2",
"[ 	c #22ABB3",
"} 	c #23ABB5",
"| 	c #23AAB5",
"1 	c #24ACB5",
"2 	c #24ACB6",
"3 	c #24AEB8",
"4 	c #22ADB9",
"5 	c #22AEBB",
"6 	c #23AFBD",
"7 	c #27AEBD",
"8 	c #25B0BE",
"9 	c #22B3C0",
"0 	c #1FB3C0",
"a 	c #21B3C1",
"b 	c #23B3C3",
"c 	c #1EB5C6",
"d 	c #1DB5C7",
"e 	c #1DB5C9",
"f 	c #1EB6CC",
"g 	c #1EB6CD",
"h 	c #21A7A6",
"i 	c #20A9A9",
"j 	c #1FABAC",
"k 	c #1DABAF",
"l 	c #1EAAB2",
"m 	c #1FAAB2",
"n 	c #1FACAF",
"o 	c #1FADB0",
"p 	c #1FAEB2",
"q 	c #1DAEB3",
"r 	c #1DAFB5",
"s 	c #1EB0B7",
"t 	c #1EB0B8",
"u 	c #1EB1B9",
"v 	c #1EB3BA",
"w 	c #1EB2B9",
"x 	c #1FB2BA",
"y 	c #21B3BB",
"z 	c #1EB3C1",
"A 	c #1DB3C2",
"B 	c #1DB3C3",
"C 	c #1EB4C6",
"D 	c #1EB4C7",
"E 	c #1EB4C8",
"F 	c #25A39F",
"G 	c #22A6A1",
"H 	c #1EA8A3",
"I 	c #1CA9A5",
"J 	c #20AAA8",
"K 	c #22A9A9",
"L 	c #1FA9AA",
"M 	c #20ABAB",
"N 	c #1EAAAC",
"O 	c #1EACAF",
"P 	c #1FADB1",
"Q 	c #1EAEB3",
"R 	c #1AAFB3",
"S 	c #1AAEB3",
"T 	c #1DAFB6",
"U 	c #1EAFB8",
"V 	c #1EAFB9",
"W 	c #1DAFB9",
"X 	c #1DB1BB",
"Y 	c #1EB2BC",
"Z 	c #1FB3BF",
"` 	c #1FB2C0",
" .	c #1FB2C1",
"..	c #1FB2C2",
"+.	c #20A49A",
"@.	c #22A49B",
"#.	c #26A39A",
"$.	c #2E9B96",
"%.	c #389090",
"&.	c #458F92",
"*.	c #3E8B8E",
"=.	c #408E91",
"-.	c #419095",
";.	c #429398",
">.	c #3E9097",
",.	c #3C8E95",
"'.	c #3A8D95",
").	c #358D96",
"!.	c #3496A0",
"~.	c #32A4AE",
"{.	c #24A8B1",
"].	c #1DAEB4",
"^.	c #1FB0B9",
"/.	c #1FB0BB",
"(.	c #1FB0BC",
"_.	c #16A697",
":.	c #1DA496",
"<.	c #309C94",
"[.	c #266464",
"}.	c #4A6068",
"|.	c #5B5A68",
"1.	c #2F2F35",
"2.	c #67676F",
"3.	c #686872",
"4.	c #73747E",
"5.	c #6C6F78",
"6.	c #5F626C",
"7.	c #605967",
"8.	c #4C5461",
"9.	c #335560",
"0.	c #2C747A",
"a.	c #31A0A1",
"b.	c #23ADAA",
"c.	c #1DADB0",
"d.	c #1EADB4",
"e.	c #1FAEB6",
"f.	c #21ADB6",
"g.	c #20ADB7",
"h.	c #20AEB7",
"i.	c #1CA392",
"j.	c #1AA595",
"k.	c #349689",
"l.	c #2D403A",
"m.	c #6B5858",
"n.	c #594E4C",
"o.	c #2B210C",
"p.	c #675152",
"q.	c #775966",
"r.	c #80635F",
"s.	c #755F4D",
"t.	c #6C5849",
"u.	c #71504E",
"v.	c #372D2F",
"w.	c #4C5055",
"x.	c #35373E",
"y.	c #2C4B53",
"z.	c #348189",
"A.	c #26A6A6",
"B.	c #1FA9B1",
"C.	c #22A9B5",
"D.	c #27A6AD",
"E.	c #28A8A9",
"F.	c #24ABAC",
"G.	c #3C9879",
"H.	c #45917A",
"I.	c #5A8871",
"J.	c #3C4122",
"K.	c #5E4628",
"L.	c #684128",
"M.	c #744720",
"N.	c #6A4326",
"O.	c #5F4020",
"P.	c #745424",
"Q.	c #885B2A",
"R.	c #7C421E",
"S.	c #704127",
"T.	c #1E0A06",
"U.	c #2F2323",
"V.	c #442C33",
"W.	c #403239",
"X.	c #2D3D43",
"Y.	c #2C6262",
"Z.	c #349390",
"`.	c #21A8A1",
" +	c #16ADA5",
".+	c #1CABA9",
"++	c #24A7AD",
"@+	c #81866C",
"#+	c #757865",
"$+	c #807961",
"%+	c #5E461E",
"&+	c #6F4618",
"*+	c #6D3910",
"=+	c #874D27",
"-+	c #764318",
";+	c #6C3F0A",
">+	c #845516",
",+	c #894C12",
"'+	c #894314",
")+	c #664314",
"!+	c #130A00",
"~+	c #070805",
"{+	c #1F1A1A",
"]+	c #352F2C",
"^+	c #343732",
"/+	c #37393F",
"(+	c #426D6A",
"_+	c #369C90",
":+	c #1AA99F",
"<+	c #18AAA7",
"[+	c #22A6A9",
"}+	c #6A956F",
"|+	c #479069",
"1+	c #518D67",
"2+	c #4A4724",
"3+	c #704D28",
"4+	c #776039",
"5+	c #A08974",
"6+	c #74563A",
"7+	c #754F2E",
"8+	c #774E2F",
"9+	c #7C5637",
"0+	c #6E4B29",
"a+	c #60401F",
"b+	c #1C0B06",
"c+	c #06030A",
"d+	c #030408",
"e+	c #121714",
"f+	c #2A2E2C",
"g+	c #4F4B56",
"h+	c #707071",
"i+	c #4E6E6A",
"j+	c #3C9696",
"k+	c #24A3A0",
"l+	c #1DA999",
"m+	c #4F9F73",
"n+	c #26956D",
"o+	c #309172",
"p+	c #436149",
"q+	c #605641",
"r+	c #57533E",
"s+	c #373E34",
"t+	c #4C6049",
"u+	c #496751",
"v+	c #617D74",
"w+	c #70837A",
"x+	c #4D5741",
"y+	c #514833",
"z+	c #1E0E0D",
"A+	c #100109",
"B+	c #0D0105",
"C+	c #0A0202",
"D+	c #160A0D",
"E+	c #5E4A3E",
"F+	c #7C5A42",
"G+	c #5D523D",
"H+	c #3F7A75",
"I+	c #289D97",
"J+	c #1CA992",
"K+	c #579E76",
"L+	c #379173",
"M+	c #269276",
"N+	c #25906B",
"O+	c #2B8A62",
"P+	c #358362",
"Q+	c #2A4633",
"R+	c #3E835F",
"S+	c #269771",
"T+	c #279684",
"U+	c #3D877A",
"V+	c #244F35",
"W+	c #30684A",
"X+	c #2F5545",
"Y+	c #030E07",
"Z+	c #030500",
"`+	c #060500",
" @	c #140906",
".@	c #804D1D",
"+@	c #7F460A",
"@@	c #695621",
"#@	c #4B8871",
"$@	c #299E94",
"%@	c #1EA390",
"&@	c #579C77",
"*@	c #3D8F6C",
"=@	c #24946E",
"-@	c #2B8F70",
";@	c #219470",
">@	c #238B69",
",@	c #2C654A",
"'@	c #288C64",
")@	c #1C9C6E",
"!@	c #279574",
"~@	c #2F9377",
"{@	c #299777",
"]@	c #2B9672",
"^@	c #259776",
"/@	c #135746",
"(@	c #060707",
"_@	c #0E0201",
":@	c #241A0C",
"<@	c #895511",
"[@	c #834E10",
"}@	c #6A4D22",
"|@	c #3C553D",
"1@	c #39917D",
"2@	c #1EA08D",
"3@	c #4DA16D",
"4@	c #3E9163",
"5@	c #298F60",
"6@	c #378964",
"7@	c #2C8B62",
"8@	c #358962",
"9@	c #427B5E",
"0@	c #397B5E",
"a@	c #37735A",
"b@	c #396555",
"c@	c #276B56",
"d@	c #269472",
"e@	c #1F9971",
"f@	c #1E9773",
"g@	c #2E8F75",
"h@	c #164233",
"i@	c #050802",
"j@	c #302416",
"k@	c #6F4927",
"l@	c #6E4627",
"m@	c #563B22",
"n@	c #070E02",
"o@	c #12442B",
"p@	c #328E6C",
"q@	c #579768",
"r@	c #4E7754",
"s@	c #356141",
"t@	c #455844",
"u@	c #405E45",
"v@	c #4E5D48",
"w@	c #4E5949",
"x@	c #4E5346",
"y@	c #574946",
"z@	c #594243",
"A@	c #3E453F",
"B@	c #3A705B",
"C@	c #28926C",
"D@	c #2E9070",
"E@	c #269371",
"F@	c #318968",
"G@	c #1C3320",
"H@	c #483425",
"I@	c #684D3D",
"J@	c #645641",
"K@	c #68684E",
"L@	c #43452D",
"M@	c #4F4430",
"N@	c #77604E",
"O@	c #55926C",
"P@	c #5D6E5A",
"Q@	c #43483B",
"R@	c #594945",
"S@	c #5C574C",
"T@	c #6B554E",
"U@	c #696151",
"V@	c #626250",
"W@	c #595B49",
"X@	c #5B5B4A",
"Y@	c #515544",
"Z@	c #43543E",
"`@	c #477F5F",
" #	c #366C51",
".#	c #2B8E68",
"+#	c #26835E",
"@#	c #34442F",
"##	c #786453",
"$#	c #877758",
"%#	c #88785A",
"&#	c #89785E",
"*#	c #867760",
"=#	c #837662",
"-#	c #807662",
";#	c #3F9262",
">#	c #637A61",
",#	c #474A3B",
"'#	c #595044",
")#	c #58604B",
"!#	c #6C5D4C",
"~#	c #836554",
"{#	c #886D5A",
"]#	c #81705A",
"^#	c #867961",
"/#	c #8B7761",
"(#	c #937864",
"_#	c #818469",
":#	c #41543B",
"<#	c #2C865E",
"[#	c #267352",
"}#	c #181B0E",
"|#	c #595D49",
"1#	c #837558",
"2#	c #747957",
"3#	c #5E805A",
"4#	c #518863",
"5#	c #498865",
"6#	c #468665",
"7#	c #428952",
"8#	c #868B6C",
"9#	c #7B6753",
"0#	c #896F5D",
"a#	c #837F61",
"b#	c #927A5F",
"c#	c #8D7B5E",
"d#	c #92765B",
"e#	c #94745A",
"f#	c #8B7557",
"g#	c #877757",
"h#	c #8A7858",
"i#	c #817355",
"j#	c #414E31",
"k#	c #2E875A",
"l#	c #296C4C",
"m#	c #182013",
"n#	c #437155",
"o#	c #3B855F",
"p#	c #398861",
"q#	c #368B65",
"r#	c #2E8E66",
"s#	c #269369",
"t#	c #20976A",
"u#	c #397E41",
"v#	c #787E56",
"w#	c #957459",
"x#	c #907759",
"y#	c #887957",
"z#	c #8C7254",
"A#	c #867554",
"B#	c #847A57",
"C#	c #7C7E59",
"D#	c #6E7E56",
"E#	c #607E52",
"F#	c #577E51",
"G#	c #467F54",
"H#	c #22673B",
"I#	c #2D8656",
"J#	c #2D8C5D",
"K#	c #237D51",
"L#	c #2A895A",
"M#	c #268D5D",
"N#	c #268E5F",
"O#	c #278F61",
"P#	c #258F61",
"Q#	c #239064",
"R#	c #229266",
"S#	c #38793A",
"T#	c #6A7D4D",
"U#	c #7E7952",
"V#	c #6C7C4E",
"W#	c #5E814C",
"X#	c #5A7C49",
"Y#	c #4A7F48",
"Z#	c #427E46",
"`#	c #397E44",
" $	c #328247",
".$	c #2A8447",
"+$	c #288648",
"@$	c #32824F",
"#$	c #2E824F",
"$$	c #2C8854",
"%$	c #278A55",
"&$	c #258854",
"*$	c #2A8B59",
"=$	c #278B58",
"-$	c #268D5A",
";$	c #268D5C",
">$	c #248D5D",
",$	c #248E5F",
"'$	c #248F60",
")$	c #2D7B35",
"!$	c #467A3D",
"~$	c #4A733A",
"{$	c #3A7938",
"]$	c #2E8039",
"^$	c #2C8039",
"/$	c #2D7F3E",
"($	c #2B7F40",
"_$	c #2B8444",
":$	c #268344",
"<$	c #248445",
"[$	c #258748",
"}$	c #298549",
"|$	c #288549",
"1$	c #28874C",
"2$	c #26874D",
"3$	c #288850",
"4$	c #27874F",
"5$	c #278952",
"6$	c #278A53",
"7$	c #278B56",
"8$	c #258B56",
"9$	c #258C58",
"0$	c #258D5A",
"a$	c #1D8232",
"b$	c #257E32",
"c$	c #2A7C32",
"d$	c #298034",
"e$	c #268134",
"f$	c #2A7F3A",
"g$	c #2A7F3B",
"h$	c #2A7F3D",
"i$	c #2C8140",
"j$	c #2C8041",
"k$	c #2B8142",
"l$	c #258441",
"m$	c #268542",
"n$	c #288544",
"o$	c #288546",
"p$	c #278547",
"q$	c #288649",
"r$	c #28874B",
"s$	c #28894D",
"t$	c #26884E",
"u$	c #268950",
"v$	c #268A52",
"w$	c #23802F",
"x$	c #21812F",
"y$	c #287E30",
"z$	c #2A7C30",
"A$	c #297D30",
"B$	c #228233",
"C$	c #228234",
"D$	c #228136",
"E$	c #258239",
"F$	c #26823A",
"G$	c #26823B",
"H$	c #29813C",
"I$	c #2C813D",
"J$	c #2A813F",
"K$	c #278340",
"L$	c #298443",
"M$	c #298545",
"N$	c #298646",
"O$	c #278647",
"P$	c #278749",
"Q$	c #27884B",
"R$	c #34782E",
"S$	c #2B7C2E",
"T$	c #277E2E",
"U$	c #2C7D2E",
"V$	c #2E7C2E",
"W$	c #287D2D",
"X$	c #297C2E",
"Y$	c #297C2F",
"Z$	c #2B7D33",
"`$	c #2B7D34",
" %	c #2B7D35",
".%	c #2A7E36",
"+%	c #2C7E37",
"@%	c #2E7E39",
"#%	c #2C7F3A",
"$%	c #27813C",
"%%	c #23833C",
"&%	c #28823E",
"*%	c #298240",
"=%	c #298442",
"-%	c #278343",
";%	c #278545",
">%	c #278646",
"  . + @ # $ % & * = - ; > , ' ) ! ~ { { ] ^ / ( ",
"_ : < [ } | 1 2 3 4 5 6 7 8 9 0 a b c d e f g g ",
"h i j k l m n o p q r s t u v w x y z A B C D E ",
"F G H I J K L M N O P Q R S T U V W X Y Z `  ...",
"+.@.#.$.%.&.*.=.-.;.>.,.'.).!.~.{.].r s ^./.(.(.",
"_.:.<.[.}.|.1.2.3.4.5.6.7.8.9.0.a.b.c.d.e.f.g.h.",
"i.j.k.l.m.n.o.p.q.r.s.t.u.v.w.x.y.z.A.B.C.D.E.F.",
"G.H.I.J.K.L.M.N.O.P.Q.R.S.T.U.V.W.X.Y.Z.`. +.+++",
"@+#+$+%+&+*+=+-+;+>+,+'+)+!+~+{+]+^+/+(+_+:+<+[+",
"}+|+1+2+3+4+5+6+7+8+9+0+a+b+c+d+e+f+g+h+i+j+k+l+",
"m+n+o+p+q+r+s+t+u+v+w+x+y+z+A+B+C+D+E+F+G+H+I+J+",
"K+L+M+N+O+P+Q+R+S+T+U+V+W+X+Y+Z+`+ @.@+@@@#@$@%@",
"&@*@=@-@;@>@,@'@)@!@~@{@]@^@/@(@_@:@<@[@}@|@1@2@",
"3@4@5@6@7@8@9@0@a@b@c@d@e@f@g@h@i@j@k@l@m@n@o@p@",
"q@r@s@t@u@v@w@x@y@z@A@B@C@D@E@F@G@H@I@J@K@L@M@N@",
"O@P@Q@R@S@T@U@V@W@X@Y@Z@`@ #.#+#@###$#%#&#*#=#-#",
";#>#,#'#)#!#~#{#]#^#/#(#_#:#<#[#}#|#1#2#3#4#5#6#",
"7#8#9#0#a#b#c#d#e#f#g#h#i#j#k#l#m#n#o#p#q#r#s#t#",
"u#v#w#x#y#z#A#B#C#D#E#F#G#H#I#J#K#L#M#N#O#P#Q#R#",
"S#T#U#V#W#X#Y#Z#`# $.$+$@$#$$$%$&$*$=$-$;$>$,$'$",
")$!$~${$]$^$/$($_$:$<$[$}$|$1$2$3$4$5$6$7$8$9$0$",
"a$b$c$d$e$e$f$g$h$i$j$k$l$m$n$o$p$p$q$r$s$t$u$v$",
"w$x$w$y$z$A$B$C$D$E$F$G$F$H$I$J$K$l$L$M$N$O$P$Q$",
"R$S$T$U$V$U$W$X$Y$Z$`$ %.%+%@%#%$%%%&%*%=%-%;%>%"};
