/* XPM */
static const char *MetalPlateCliff_xpm[] = {
/* width height num_colors chars_per_pixel */
"    24    24      128            2",
/* colors */
"`` c #000000",
"`. c #838388",
"`# c #6c1600",
"`a c #333b3f",
"`b c #5c0000",
"`c c #131f1f",
"`d c #505850",
"`e c #290f00",
"`f c #001300",
"`g c #292100",
"`h c #4e3c26",
"`i c #292135",
"`j c #744e28",
"`k c #000024",
"`l c #001426",
"`m c #4d4245",
"`n c #c45a3c",
"`o c #150000",
"`p c #706b63",
"`q c #41251c",
"`r c #ecca94",
"`s c #374649",
"`t c #62676a",
"`u c #b0a494",
"`v c #4e4c4a",
"`w c #2b2e2c",
"`x c #2c2f37",
"`y c #5e5957",
"`z c #543224",
"`A c #3e3c41",
"`B c #161300",
"`C c #a4845c",
"`D c #000b00",
"`E c #252127",
"`F c #3f2e37",
"`G c #876e59",
"`H c #28272b",
"`I c #1c2b2f",
"`J c #5e5053",
"`K c #5e5a65",
"`L c #34121d",
"`M c #42404d",
"`N c #10203c",
"`O c #181526",
"`P c #343239",
"`Q c #999591",
"`R c #71797f",
"`S c #191a00",
"`T c #74624c",
"`U c #525256",
"`V c #150d00",
"`W c #3d3538",
"`X c #000c15",
"`Y c #000015",
"`Z c #342020",
"`0 c #1c1f24",
"`1 c #2b2935",
"`2 c #624244",
"`3 c #3f3123",
"`4 c #4f4c55",
"`5 c #434243",
"`6 c #161418",
"`7 c #5f5f67",
"`8 c #1a1a25",
".` c #0c1a1c",
".. c #9c1a0c",
".# c #ffffff",
".a c #7c3614",
".b c #ac7e4c",
".c c #bc867c",
".d c #8c3a34",
".e c #e0e0d4",
".f c #3d1919",
".g c #bcbabc",
".h c #c48644",
".i c #b09e84",
".j c #6c4848",
".k c #8a7a71",
".l c #6c2e24",
".m c #6f6461",
".n c #948284",
".o c #5c3a1c",
".p c #80583c",
".q c #581a18",
".r c #beaba0",
".s c #a89264",
".t c #bc1a00",
".u c #9c7e84",
".v c #603640",
".w c #a496a4",
".x c #53575d",
".y c #71564c",
".z c #5c3e34",
".A c #784618",
".B c #ac9289",
".C c #7c6e64",
".D c #4c2200",
".E c #4c0e14",
".F c #2a1700",
".G c #acaeac",
".H c #251923",
".I c #444749",
".J c #7c7878",
".K c #846238",
".L c #947e74",
".M c #544327",
".N c #000e29",
".O c #8c8684",
".P c #6f6f77",
".Q c #242e54",
".R c #1c2336",
".S c #4c331a",
".T c #968d8c",
".U c #604414",
".V c #515f61",
".W c #342f2b",
".X c #7c727c",
".Y c #341111",
".Z c #341e14",
".0 c #4c2a30",
".1 c #342827",
".2 c #3c3644",
".3 c #342a36",
".4 c #341711",
".5 c #34181c",
".6 c #344248",
".7 c #001a2c",
".8 c #4c464b",
/* pixels */
"`7`P`A`6`m`6`U`6`U.3`4`P`E`A`8.x`8`U`0`y`H`P`1`x",
"`1`8`E`6`w`V`H`6`H`8`E`0`8`E`8`E`O`E`8`E`E`8`0`E",
"`E`X`1`1`6`H`x.W`1`P`x`H`1`1.3.W`1`1`E.H`6.H`O`8",
".``D`````D```Y`Y`Y`X`6`6`X`X`X`V`f`V`X`X`D```Y``",
"`P`8`V`B`V`6`X`6`V`X`o`o`6`V`V`D`V`6`Y`V`V`V`V``",
"`4`P`X`X`Y`M.t.g.U`8`D`X`5`W`A`A`1`0.I`D`Y`Y.N`6",
"`4`P```V`Y`D`D`D`g`y```H`H`8`B`H`o`6`E`````Y```8",
".x`a`X`S.``o`D`D.D`5```8`8`4`C`4.s.`.x`0`6`E`1`6",
"`4`H`X`e.R```V`6.m.W`0`P`h`X`Y.H`E`D`X`l.``X`X`8",
"`s`x`D`H`y.r`````t`.`Q.B`N`Q`6`Y```0`l`l```A.N`6",
"`W`0`D`o````.S`6.T`8.8.m``.J`````l`M`X`H`6`1.I`6",
"`5`E`X`X`V`0`V`B`O`6`p`X```X`l`X`o`Y`Y.8```O`Y`6",
"`6`O`o`D`````````````````Y`````Y`D```D`D```````6",
"`V`o`D```````Y`o`V`o`V`V`o`o`o```````Y`D`V`D`D`D",
"`V`````6`8`E`8`8`6`8`8`6`0`Y```````````D`6`6`6`O",
"`E`E`E`0`x`P`6`6`6`6`6`6`O`0`0`E`X`X`V`6`X`X`6`6",
".8`M`5`A`W`A`V`V`D`D```V`D`V`o`````````````V`D`B",
"`M`W`P`a`P`P`P`P`A`M`A`M`A`A`P`P`P`P`P`P`A`5`M`M",
"`P`1`1`E`E`E`E`H`1`x`x.W`x`1`H`E`E`E`H`H`1`x`P`x",
"`1`E`0`0`8`8`0`0`0`E`H`H`E`E`0`0`8`8`0`0`E`E`H`H",
"`O`X`X`X`X`X`X`X`6`6`6`6`6`X`X`X`X`X`X`X`6`6`6`6",
"`6`X`D`X`D`o`Y`V`V`V`V`6`V`V`D`D```D`o`D`V`X`V`V",
"`V`D`D```D`````D`D```D`D`D`D`D```````D`D`D`D`D`D",
"`V```````o`D`V`````D`````````D```D`V`D```D`D`o``"
};
