/* XPM */
static const char *MetalPlateTiles_xpm[] = {
/* width height num_colors chars_per_pixel */
"    24    24      128            2",
/* colors */
"`` c #000000",
"`. c #848284",
"`# c #444244",
"`a c #c4c2c4",
"`b c #242224",
"`c c #a4a2a4",
"`d c #646264",
"`e c #e4e2e4",
"`f c #141214",
"`g c #949294",
"`h c #545254",
"`i c #d4d2d4",
"`j c #343234",
"`k c #b4b2b4",
"`l c #747274",
"`m c #f4f2f4",
"`n c #0c0a0c",
"`o c #8c8a8c",
"`p c #4c4a4c",
"`q c #cccacc",
"`r c #2c2a2c",
"`s c #acaaac",
"`t c #6c6a6c",
"`u c #1c1a1c",
"`v c #9c9a9c",
"`w c #5c5a5c",
"`x c #dcdadc",
"`y c #3c3a3c",
"`z c #bcbabc",
"`A c #7c7a7c",
"`B c #eceaec",
"`C c #ffffff",
"`D c #000600",
"`E c #848684",
"`F c #444644",
"`G c #c4c6c4",
"`H c #242624",
"`I c #a4a6a4",
"`J c #646664",
"`K c #e4e6e4",
"`L c #141614",
"`M c #949694",
"`N c #545654",
"`O c #d4d6d4",
"`P c #343634",
"`Q c #b4b6b4",
"`R c #747674",
"`S c #f4f6f4",
"`T c #0c0e0c",
"`U c #8c8e8c",
"`V c #4c4e4c",
"`W c #cccecc",
"`X c #2c2e2c",
"`Y c #acaeac",
"`Z c #6c6e6c",
"`0 c #1c1e1c",
"`1 c #9c9e9c",
"`2 c #5c5e5c",
"`3 c #dcdedc",
"`4 c #3c3e3c",
"`5 c #bcbebc",
"`6 c #7c7e7c",
"`7 c #000000",
"`8 c #000000",
".` c #000000",
".. c #000000",
".# c #000000",
".a c #000000",
".b c #000000",
".c c #000000",
".d c #000000",
".e c #000000",
".f c #000000",
".g c #000000",
".h c #000000",
".i c #000000",
".j c #000000",
".k c #000000",
".l c #000000",
".m c #000000",
".n c #000000",
".o c #000000",
".p c #000000",
".q c #000000",
".r c #000000",
".s c #000000",
".t c #000000",
".u c #000000",
".v c #000000",
".w c #000000",
".x c #000000",
".y c #000000",
".z c #000000",
".A c #000000",
".B c #000000",
".C c #000000",
".D c #000000",
".E c #000000",
".F c #000000",
".G c #000000",
".H c #000000",
".I c #000000",
".J c #000000",
".K c #000000",
".L c #000000",
".M c #000000",
".N c #000000",
".O c #000000",
".P c #000000",
".Q c #000000",
".R c #000000",
".S c #000000",
".T c #000000",
".U c #000000",
".V c #000000",
".W c #000000",
".X c #000000",
".Y c #000000",
".Z c #000000",
".0 c #000000",
".1 c #000000",
".2 c #000000",
".3 c #000000",
".4 c #000000",
".5 c #000000",
".6 c #000000",
".7 c #000000",
".8 c #000000",
/* pixels */
"`````n`D```````n`````````````D``````````````````",
"```.`.`N`E`R`d`U`i`l`M`Z`d`w`E`C`R`d`h`w`w`6`R`Y",
"```U`0`d`A`g`d`6`J`M`o`J`A`t`M`X`M`t`d`t`N`f`y`k",
"```Z`V`w`d`.`d`w`Z`Z`Z`l`Z`A`F`p`V`w`J`h`l`2`J`A",
"```6`2`l`Z`Z`J`t`l`l`R`t`Z`Z`p`t`h`h`y`d`t`d`R`g",
"```E`y`F`F`d`h`h`l`J`E`E`v`w`Z`y`P`A`w`Z`V`n`y`s",
"```A`w`h`N`l`2`y`w`Z`w`l`A`6`l`h`h`.`p`l`Z`t`E`o",
"```E`A`p`l`N`h`#`R`2`R`6`V`.`Z`d`4`R`w`w`A`.`A`1",
"```5`P`N`d`J`R`A`t`t`E`o`J`w`N`Z`d`h`p`w`2`n`u`k",
"```5`6`2`w`2`l`l`d`Z`l`U`o`A`N`F`N`Z`V`R`l`2`V`c",
"```R`E`6`w`h`J`J`R`Z`h`d`A`R`J`4`V`V`w`t`d`l`p`v",
"```.`L`4`4`d`U`l`2`N`d`J`t`Z`Z`t`2`V`d`t`R```H`c",
"```.`h`2`l`v`.`Z`A`w`N`o`.`d`t`d`d`V`V`h`p`F`h`Y",
"```M`d`V`A`A`F`w`p`M`J`t`w`J`2`F`F`#`w`#`V`d`p`I",
"`n`E`n`w`N`N`w`h`t`A`N`w`V`2`F`w`#`w`J`Z`Z`D`H`g",
"```R`h`V`h`Z`N`h`J`R`6`d`p`J`l`F`w`w`F`h`w`d`d`z",
"`D`A`A`R`t`w`N`J`V`l`t`h`2`V`#`V`h`E`l`w`R`R`R`Q",
"`n`l`X`F`V`t`6`1`M`l`t`R`l`Z`J`Z`2`F`N`V`d`T`4`x",
"```6`d`d`d`M`E`E`q`.`6`l`l`A`c`R`t`t`N`N`R`p`w`a",
"```U`A`l`E`c`d`o`U`U`E`E`6`o`.`E`6`A`l`6`l`l`t`3",
"```Y`b`N`R`A`E`.`E`E`A`v`6`g`U`6`v`M`l`6`R`f`#`1",
"```c`U`Z`6`M`o`E`E`M`U`g`E`g`E`U`6`6`t`R`Z`6`v`Q",
"`D`W`1`J`c`.`1`v`o`A`1`M`M`M`R`g`A`.`6`t`g`6`U`5",
"```q`F`6`v`E`1`1`y`R`o`o`6`o`U`b`l`E`6`t`.`L`y`Q"
};
