/* XPM */
static char *most_xpm[] = {
/* width height ncolors chars_per_pixel */
"24 24 556 2",
/* colors */
"   c #26956A",
" . c #1FADB9",
" X c #248847",
" o c #37362C",
" O c #2B8544",
" + c #23AEB3",
" @ c #293632",
" # c #36322B",
" $ c #4D413B",
" % c #278340",
" & c #2C352B",
" * c #26665D",
" = c #32A7A4",
" - c #1EB9CF",
" ; c #3D604C",
" : c #249D7F",
" > c #28A99A",
" , c #213520",
" < c #24A4A0",
" 1 c #2A7D2F",
" 2 c #2A2E1F",
" 3 c #297D2E",
" 4 c #242B23",
" 5 c #2A281F",
" 6 c #313F33",
" 7 c #28884E",
" 8 c #41352F",
" 9 c #41332F",
" 0 c #18140A",
" q c #1DB1BA",
" w c #2A6C64",
" e c #3E332C",
" r c #54443B",
" t c #402F2E",
" y c #288544",
" u c #278543",
" i c #288344",
" p c #20ACB3",
" a c #278343",
" s c #0B0F07",
" d c #20AFA9",
" f c #2C9E80",
" g c #2A803C",
" h c #29803B",
" j c #298B5C",
" k c #28AB9D",
" l c #2C6B48",
" z c #1A523D",
" x c #423D33",
" c c #5BACA1",
" v c #248B57",
" b c #25A79A",
" n c #1FA69E",
" m c #2F7E58",
" M c #26884F",
" N c #1EB1BE",
" B c #403131",
" V c #3E312F",
" C c #288547",
" Z c #53403D",
" A c #21956B",
" S c #1FACB5",
" D c #238542",
" F c #239263",
" G c #28803D",
" H c #329FAA",
" J c #1FA9AB",
" K c #2A7F35",
" L c #433D37",
" P c #1EB4CB",
" I c #579193",
" U c #2CA89A",
" Y c #28A5A0",
" T c #1DB4CA",
" R c #327568",
" E c #299B76",
" W c #483832",
" Q c #3F3D33",
" ! c #1EA8A0",
" ~ c #31877E",
" ^ c #20B8B9",
" / c #2D271E",
" ( c #258851",
" ) c #26492E",
" _ c #206249",
" ` c #28AFB7",
" ' c #44322E",
" ] c #28986B",
" [ c #28874A",
" { c #1F2E1A",
" } c #1DA595",
" | c #337C4B",
".  c #3A352E",
".. c #20AEB9",
".X c #21ACBA",
".o c #3D3627",
".O c #1EAEB7",
".+ c #1D2122",
".@ c #1DAEB6",
".# c #26A18A",
".$ c #47453E",
".% c #4D423A",
".& c #21ABB0",
".* c #288240",
".= c #20B8D0",
".- c #1FB8CF",
".; c #27ADA2",
".: c #1EB6CE",
".> c #238F5C",
"., c #2A8A59",
".< c #42422F",
".1 c #278A56",
".2 c #269B76",
".3 c #8E9394",
".4 c #1EB3C4",
".5 c #2A7C2E",
".6 c #22A19D",
".7 c #21A19C",
".8 c #27874C",
".9 c #2F7754",
".0 c #21ADB3",
".q c #3B3228",
".w c #278442",
".e c #2D7848",
".r c #1C2B10",
".t c #29734E",
".y c #22AAAA",
".u c #2A5C2E",
".i c #297F3A",
".p c #257975",
".a c #287F39",
".s c #1E1B12",
".d c #278A59",
".f c #2B825D",
".g c #2A7C31",
".h c #238C55",
".j c #26A49A",
".k c #2E5C49",
".l c #25A099",
".z c #25986E",
".x c #1EB0BD",
".c c #4EA3A7",
".v c #45332B",
".b c #23AFB8",
".n c #298647",
".m c #2CA08C",
".M c #2C2019",
".N c #20ADB5",
".B c #3C302C",
".V c #328A67",
".C c #2E3B28",
".Z c #2D8141",
".A c #3B2E2B",
".S c #47423A",
".D c #38694C",
".F c #28813C",
".G c #483C3B",
".H c #2D7076",
".J c #433E36",
".K c #258E5A",
".L c #297E33",
".P c #1DB3C9",
".I c #1AB5C6",
".U c #18190F",
".Y c #298754",
".T c #272B21",
".R c #2F9571",
".E c #1EB2C0",
".W c #23A29A",
".Q c #16150D",
".! c #24271E",
".~ c #2A844B",
".^ c #1FA296",
"./ c #383A2B",
".( c #20AFB8",
".) c #41312A",
"._ c #28B1AC",
".` c #111308",
".' c #218577",
".] c #1F2319",
".[ c #229164",
".{ c #20AAAE",
".} c #229E85",
".| c #20B7CF",
"X  c #1FB7CE",
"X. c #1E523C",
"XX c #297E36",
"Xo c #287E35",
"XO c #35291E",
"X+ c #2A7D2D",
"X@ c #3A4030",
"X# c #248952",
"X$ c #1FA499",
"X% c #28864C",
"X& c #2E5945",
"X* c #1FAFBA",
"X= c #3B645F",
"X- c #1CA296",
"X; c #2E7F48",
"X: c #0F4537",
"X> c #298343",
"X, c #2F7949",
"X< c #288342",
"X1 c #1FAEB0",
"X2 c #1DAEAE",
"X3 c #283528",
"X4 c #3A2926",
"X5 c #298039",
"X6 c #123A30",
"X7 c #1FA9A6",
"X8 c #473B36",
"X9 c #298B5A",
"X0 c #425B48",
"Xq c #22A69F",
"Xw c #256849",
"Xe c #1DB4C5",
"Xr c #238B54",
"Xt c #2A8851",
"Xy c #287B2E",
"Xu c #278C4E",
"Xi c #1FA49C",
"Xp c #2A6C3A",
"Xa c #368A74",
"Xs c #1DA69A",
"Xd c #1EA49B",
"Xf c #294036",
"Xg c #31211D",
"Xh c #362218",
"Xj c #2C5346",
"Xk c #278544",
"Xl c #20ACB4",
"Xz c #393328",
"Xx c #1FACB3",
"Xc c #2D8040",
"Xv c #4F4037",
"Xb c #377D6B",
"Xn c #1BAEAF",
"Xm c #249262",
"XM c #1DAAB1",
"XN c #353124",
"XB c #28803B",
"XV c #2D3226",
"XC c #297C3C",
"XZ c #1EA9A8",
"XA c #278B5B",
"XS c #23A6A3",
"XD c #5A4A45",
"XF c #2B2C24",
"XG c #1F1D0B",
"XH c #443736",
"XJ c #314337",
"XK c #287D31",
"XL c #1F4339",
"XP c #3D352F",
"XI c #26B1B3",
"XU c #299A95",
"XY c #20AEB7",
"XT c #2C6335",
"XR c #1FADAC",
"XE c #20ABAD",
"XW c #27823D",
"XQ c #24372A",
"X! c #25823B",
"X~ c #133D2D",
"X^ c #278D5E",
"X/ c #4B3C36",
"X( c #1FB6CD",
"X) c #268D5D",
"X_ c #1EB6CC",
"X` c #21A8A4",
"X' c #298E56",
"X] c #26A99F",
"X[ c #23AB9C",
"X{ c #1EB3C2",
"X} c #2A7C2C",
"X| c #238C50",
"o  c #343E33",
"o. c #248A51",
"oX c #29986D",
"oo c #1F736A",
"oO c #44322F",
"o+ c #40362B",
"o@ c #328476",
"o# c #268749",
"o$ c #1FAEB9",
"o% c #3F322A",
"o& c #1DAEB7",
"o* c #252117",
"o= c #1FADAF",
"o- c #278240",
"o; c #195643",
"o: c #258F5F",
"o> c #268D60",
"o, c #1E645F",
"o< c #372E22",
"o1 c #20A8A6",
"o2 c #1FA8A5",
"o3 c #29A69B",
"o4 c #28A69A",
"o5 c #1EB3C5",
"o6 c #297C2E",
"o7 c #2A8750",
"o8 c #1FB0BC",
"o9 c #2D956A",
"o0 c #40342E",
"oq c #4E483F",
"ow c #40322E",
"oe c #2F7555",
"or c #3E302C",
"ot c #21A9B4",
"oy c #259562",
"ou c #29813B",
"oi c #322B2A",
"op c #21A8AA",
"oa c #20A8A9",
"os c #284841",
"od c #25A5A4",
"of c #21A7A0",
"og c #403C31",
"oh c #34A095",
"oj c #1A150F",
"ok c #278750",
"ol c #2DA48E",
"oz c #1CA39B",
"ox c #21A496",
"oc c #24A78F",
"ov c #1BB2BB",
"ob c #288647",
"on c #20ADB6",
"om c #258844",
"oM c #2A8674",
"oN c #185552",
"oB c #1EABB4",
"oV c #2B8140",
"oC c #2A9060",
"oZ c #21AAAD",
"oA c #328F89",
"oS c #268E5C",
"oD c #268C5C",
"oF c #293124",
"oG c #1DB5CA",
"oH c #297E34",
"oJ c #238E59",
"oK c #2E7C64",
"oL c #4AAAB1",
"oP c #277E32",
"oI c #2B624A",
"oU c #268B52",
"oY c #278953",
"oT c #268952",
"oR c #010600",
"oE c #2B4433",
"oW c #258951",
"oQ c #2D3E35",
"o! c #2B864D",
"o~ c #29864B",
"o^ c #29844B",
"o/ c #278649",
"o( c #1FAFB8",
"o) c #29B1AE",
"o_ c #2E5743",
"o` c #1EAFB7",
"o' c #2B8343",
"o] c #239366",
"o[ c #100F08",
"o{ c #2E823C",
"o} c #359685",
"o| c #26362E",
"O  c #4B4138",
"O. c #298037",
"OX c #278B56",
"Oo c #2A7D2E",
"OO c #1DB4C3",
"O+ c #37442E",
"O@ c #297D2D",
"O# c #443731",
"O$ c #258954",
"O% c #20A69B",
"O& c #248953",
"O* c #287B2C",
"O= c #28864D",
"O- c #1FB1BB",
"O; c #1EAFBA",
"O: c #20A391",
"O> c #248649",
"O, c #309B8D",
"O< c #3E2D2B",
"O1 c #2E8D60",
"O2 c #398461",
"O3 c #202214",
"O4 c #2E8B60",
"O5 c #110E02",
"O6 c #221C16",
"O7 c #22A7AA",
"O8 c #20A9A8",
"O9 c #463D36",
"O0 c #20A7A8",
"Oq c #322F1F",
"Ow c #2A3221",
"Oe c #1CA9A4",
"Or c #325F4D",
"Ot c #1EB4C7",
"Oy c #297D30",
"Ou c #2C2823",
"Oi c #35765D",
"Op c #2F2B1C",
"Oa c #48362E",
"Os c #114B3D",
"Od c #1FB1BE",
"Of c #23A197",
"Og c #383632",
"Oh c #26241D",
"Oj c #298547",
"Ok c #1FACB4",
"Ol c #3A312A",
"Oz c #1EACB3",
"Ox c #219E8B",
"Oc c #29823D",
"Ov c #209C8A",
"Ob c #346E48",
"On c #239062",
"Om c #473F3A",
"OM c #28803C",
"ON c #20A9AB",
"OB c #2F9285",
"OV c #228E61",
"OC c #1FA9AA",
"OZ c #239158",
"OA c #3A2820",
"OS c #297F33",
"OD c #22A6A3",
"OF c #297D33",
"OG c #21A6A2",
"OH c #443737",
"OJ c #483831",
"OK c #191A10",
"OL c #2B7C2B",
"OP c #3B3F2E",
"OI c #23A59A",
"OU c #1FB1C1",
"OY c #3D3930",
"OT c #1DB2B5",
"OR c #268547",
"OE c #29AEAD",
"OW c #25A188",
"OQ c #123E37",
"O! c #298240",
"O~ c #20ADAE",
"O^ c #21ABAF",
"O/ c #209662",
"O( c #28823F",
"O) c #2F8E5D",
"O_ c #28958B",
"O` c #26A6AA",
"O' c #20B6CF",
"O] c #1FB6CE",
"O[ c #3B7469",
"O{ c #1EB6CD",
"O} c #20A8A4",
"O| c #21A6A5",
"+  c #1EAAA2",
"+. c #2A654B",
"+X c #1EA6A2",
"+o c #24A39E",
"+O c #1EB3C3",
"++ c #28403C",
"+@ c #2C291F",
"+# c #21A59B",
"+$ c #1DB1C2",
"+% c #317B55",
"+& c #19B5BE",
"+* c #393B2F",
"+= c #27874B",
"+- c #50463F",
"+; c #20AEBB",
"+: c #2B211E",
"+> c #3E342A",
"+, c #122A23",
"+< c #3D3229",
"+1 c #288242",
"+2 c #20ABB1",
"+3 c #1FABB0",
"+4 c #3D2A29",
"+5 c #296F4D",
"+6 c #276855",
"+7 c #20ACA7",
"+8 c #25ADA2",
"+9 c #1CB8CE",
"+0 c #297F39",
"+q c #1BA9AC",
"+w c #39746A",
"+e c #2A8C5B",
"+r c #1FB3C7",
"+t c #268A57",
"+y c #1EB3C6",
"+u c #297C2F",
"+i c #287C2E",
"+p c #22B0C0",
"+a c #475E64",
"+s c #31A090",
"+d c #27874E",
"+f c #1EB0BC",
"+g c #3D362C",
"+h c #1EAEBC",
"+j c #393C28",
"+k c #26A18F",
"+l c #2F593F",
"+z c #298446",
"+x c #288445",
"+c c #3A3429",
"+v c #5C6C68",
"+b c #5C5051",
"+n c #393028",
"+m c #2C8E60",
"+M c #373026",
"+N c #21A8AB",
"+B c #453E37",
"+V c #342C23",
"+C c #1B1D11",
"+Z c #1EB5C9",
"+A c #2C453C",
"+S c #238E57",
"+D c #1DB3C8",
"+F c #332622",
"+G c #308C7B",
"+H c #4E4E43",
"+J c #134A41",
"+K c #2AA596",
"+L c #46372E",
"+P c #3E3A30",
"+I c #23A499",
"+U c #1EB2BF",
"+Y c #101810",
"+T c #23894D",
"+R c #21A297",
"+E c #2AA28C",
"+W c #20AFB7",
"+Q c #278647",
"+! c #39362B",
"+~ c #23AEB0",
"+^ c #259366",
"+/ c #193E33",
"+( c #38302A",
"+) c #20AEAD",
"+_ c #2AAAA3",
"+` c #342E26",
"+' c #2F8491",
"+] c #298035",
"+[ c #1A4F41",
"+{ c #297E35",
"+} c #6B858A",
"+| c #3F3834",
"@  c #1DB2C1",
"@. c #2C281E",
"@X c #1FA498",
"@o c None",
/* pixels */
"O~X1.Xo& ++h q.E+&@ +p.I+y+r+Z PO{O]O'.|.:.= -+9",
"XM.{otOzX2oB.( HoLo$X*ov N+UX{+OOOOt.P PX_X(X .-",
"+q YX7 J.yXnOT.H+a `.@.0o`o(O-.x N+U+O.4Xe+DoG T",
"XU+} I+ O}O`+~ooX~ ^Ozo=Ok.N SXY..+;O;o8 NOU+$o5",
" UXLX=X[ <OG do,XQXIoaopoZO^.&+2XlXlOzon.O .Od+f",
"X]X:++ kXd.W+8oNX3OEofX`o2o1O8OCONXE+3 pXx.bXx+W",
"+KOs 2o3X-+R+_+J./.;XiOIXq !OeXSodXZO7+NXR+'+v.c",
"+k+[XhOBoc.mo}+/OAoA.j.7.6+o+IO% nO|ODO0+).p.+ =",
".#o;OqXb+6 @ 4OuXNO[+G >@X.^OfX$Xs b }+X._X6OQo)",
" : zXO.$. Ol+L $ ro0XFosoMoloxozO_+w c.lo4oR w+7",
".2X.@.+<.S+-OJOYo%Xz+g 'oi+A R+so@+b.3oh *O5 ~+#",
".z+..TX@ ;XJXP+V.A+|XH Q e.oo<XfXjo[.k.'+,.]O,O:",
"  XwOp.<O2 EoI & t+n+!O O9+>.q.)Xg sOiXa+YoQ+EOx",
" F+5O3OP.9 AoX.Vo_ #owoOor+P x.%.U.soqo|.QOrOWOv",
"oJ+m.t+%oCOn.[o] ].foE+:+FOm Z+H.` /Xv W+@X& f.}",
"Xt voS.K+S+eX)o>o:Xmo9oe 6.B+B+` 0+c.JO#O<+(o oK",
".8 (X#o.oU.1.hOXX9 jX^O/O4X0XD 5+C+* L o BX8Oa _",
"O>o^.~o~O=O&o7oWXr+t.doD.>O1.DOKo*og 8.vOg V.C.R",
"+1X>+z+z CobX%+=+dokoToYO$OZ loj.!X/+4OH.GXV m+^",
"XB.FO( %X< iXk yOR+Qo#+=o!X' )O6oFO++M 9X4+loyOV",
"oPXoO..aOM GOcXWo-.w a+x.n 7 {Oho+ |ObOw ,O).,XA",
" 3+u+u.LoH K.i h gOMO!.*omXpXG.M+jX;XuX,.eX| M.Y",
"Oo.5 1Xyo6o6.gOF+{XXX5+0X!.Z.u.rXT O uOj [ Xo/+T",
" 1o6 1 1X+O@OLX}O*+iOyXKOS+]o{XCoVou hoV DXco'OR"
};
