/* XPM */
static char * obchod_xpm[] = {
"24 24 568 2",
"  	c #25AAB1",
". 	c #21AEB0",
"+ 	c #1EAFB2",
"@ 	c #21ADB3",
"# 	c #21AEB6",
"$ 	c #1DB0B8",
"% 	c #1CB2B8",
"& 	c #1EB2BA",
"* 	c #1EB2BC",
"= 	c #20B2BE",
"- 	c #20B2C0",
"; 	c #20B3C2",
"> 	c #1AB6C0",
", 	c #1BB6C1",
"' 	c #1DB6C4",
") 	c #1FB5C9",
"! 	c #20B5CD",
"~ 	c #21B5D0",
"{ 	c #1FB6D3",
"] 	c #1CB8D3",
"^ 	c #1CB9D3",
"/ 	c #20B6D0",
"( 	c #20B7D0",
"_ 	c #1BBAD0",
": 	c #1FAAAB",
"< 	c #20ABAD",
"[ 	c #22AAB0",
"} 	c #24A9B3",
"| 	c #24AAB5",
"1 	c #21ACB6",
"2 	c #24AAB8",
"3 	c #24ABBA",
"4 	c #21ADBC",
"5 	c #1EAFBD",
"6 	c #1CB1BF",
"7 	c #1BB2C0",
"8 	c #1FAFC5",
"9 	c #20B0C6",
"0 	c #1FB2C6",
"a 	c #1EB3C5",
"b 	c #1CB5C5",
"c 	c #1CB6C5",
"d 	c #20B5C4",
"e 	c #1FB6C6",
"f 	c #1FB6CA",
"g 	c #20B4CE",
"h 	c #20B4D1",
"i 	c #1EB6D3",
"j 	c #1EA9A4",
"k 	c #22A7A7",
"l 	c #25A6AC",
"m 	c #22A9AF",
"n 	c #1EABB0",
"o 	c #1EACB1",
"p 	c #1CACB3",
"q 	c #1DACB4",
"r 	c #1FACB5",
"s 	c #21ABB7",
"t 	c #24ABB8",
"u 	c #24ACB8",
"v 	c #1FAFBB",
"w 	c #1EB1BD",
"x 	c #1FB1BE",
"y 	c #1EB1BF",
"z 	c #1DB2C0",
"A 	c #18B6BF",
"B 	c #1BB5C1",
"C 	c #1DB4C5",
"D 	c #1CB4CA",
"E 	c #1EB4CD",
"F 	c #21B2CF",
"G 	c #21A79E",
"H 	c #27A4A1",
"I 	c #24A5A6",
"J 	c #19A9A6",
"K 	c #19ABA4",
"L 	c #23A9A3",
"M 	c #24A8A3",
"N 	c #26A8A3",
"O 	c #29A5A1",
"P 	c #299E9D",
"Q 	c #289898",
"R 	c #239190",
"S 	c #1B9284",
"T 	c #249E92",
"U 	c #28A49F",
"V 	c #2CABAC",
"W 	c #29AAB2",
"X 	c #25ABB7",
"Y 	c #1CB1BE",
"Z 	c #22AEBE",
"` 	c #22AFC0",
" .	c #1BB4C2",
"..	c #19B4C1",
"+.	c #22B2C4",
"@.	c #1FA598",
"#.	c #26A29B",
"$.	c #23A39F",
"%.	c #1FA89D",
"&.	c #2EA195",
"*.	c #307C76",
"=.	c #225552",
"-.	c #1D4947",
";.	c #173A3A",
">.	c #193234",
",.	c #1C2C30",
"'.	c #1D282D",
").	c #201F20",
"!.	c #2B3233",
"~.	c #253B3B",
"{.	c #1E4546",
"].	c #194F50",
"^.	c #216163",
"/.	c #247377",
"(.	c #337D87",
"_.	c #35909A",
":.	c #28ADB3",
"<.	c #1CB2B9",
"[.	c #21B0BD",
"}.	c #1AA594",
"|.	c #22A197",
"1.	c #24A198",
"2.	c #299A8F",
"3.	c #1C5C55",
"4.	c #1A2627",
"5.	c #2A2422",
"6.	c #211B18",
"7.	c #18120D",
"8.	c #1C1611",
"9.	c #231D14",
"0.	c #2D261F",
"a.	c #372E2C",
"b.	c #302725",
"c.	c #322823",
"d.	c #2F241C",
"e.	c #30241A",
"f.	c #30261A",
"g.	c #292619",
"h.	c #262421",
"i.	c #0B292A",
"j.	c #227F80",
"k.	c #25ABB1",
"l.	c #1EACBA",
"m.	c #1FA28E",
"n.	c #1FA18E",
"o.	c #28A08E",
"p.	c #2A655D",
"q.	c #21211E",
"r.	c #262619",
"s.	c #5B5B56",
"t.	c #6D6D6B",
"u.	c #6D6D6C",
"v.	c #696A68",
"w.	c #656562",
"x.	c #656460",
"y.	c #7A7A75",
"z.	c #3B3633",
"A.	c #2D231F",
"B.	c #32251D",
"C.	c #362A20",
"D.	c #31281C",
"E.	c #2D261B",
"F.	c #2E2218",
"G.	c #252017",
"H.	c #131E21",
"I.	c #277379",
"J.	c #1CAEAF",
"K.	c #259B88",
"L.	c #259C88",
"M.	c #289583",
"N.	c #0C3731",
"O.	c #241618",
"P.	c #241D12",
"Q.	c #686866",
"R.	c #515151",
"S.	c #696969",
"T.	c #575656",
"U.	c #5E5E5E",
"V.	c #666666",
"W.	c #7C7A77",
"X.	c #3C3533",
"Y.	c #322723",
"Z.	c #332520",
"`.	c #382B23",
" +	c #362C23",
".+	c #33281F",
"++	c #33231A",
"@+	c #2F1F17",
"#+	c #191418",
"$+	c #195B5F",
"%+	c #24A7A7",
"&+	c #289781",
"*+	c #279881",
"=+	c #29947D",
"-+	c #426D65",
";+	c #615456",
">+	c #544F48",
",+	c #7C7C7F",
"'+	c #747474",
")+	c #787673",
"!+	c #6D6A68",
"~+	c #5F5E5E",
"{+	c #6A6A6E",
"]+	c #767171",
"^+	c #2E2825",
"/+	c #2A201E",
"(+	c #281C1A",
"_+	c #2C201C",
":+	c #2D231C",
"<+	c #2C2119",
"[+	c #2C2116",
"}+	c #261810",
"|+	c #1D1A1D",
"1+	c #0F5956",
"2+	c #29A4A1",
"3+	c #239879",
"4+	c #239A7A",
"5+	c #259979",
"6+	c #51887A",
"7+	c #727372",
"8+	c #69716B",
"9+	c #75777B",
"0+	c #7A7977",
"a+	c #77726A",
"b+	c #7E7971",
"c+	c #7F7D7C",
"d+	c #808085",
"e+	c #827D7D",
"f+	c #595453",
"g+	c #4E4A47",
"h+	c #443F3C",
"i+	c #3D3734",
"j+	c #352E2B",
"k+	c #2D2A22",
"l+	c #26281D",
"m+	c #1D1C13",
"n+	c #4C5858",
"o+	c #31998B",
"p+	c #25A59B",
"q+	c #229673",
"r+	c #209973",
"s+	c #219972",
"t+	c #4C8976",
"u+	c #676F6D",
"v+	c #576763",
"w+	c #707376",
"x+	c #797770",
"y+	c #605B4B",
"z+	c #656050",
"A+	c #74726C",
"B+	c #77787B",
"C+	c #8D8B8A",
"D+	c #7A7A78",
"E+	c #767976",
"F+	c #747675",
"G+	c #757574",
"H+	c #767372",
"I+	c #746F6D",
"J+	c #6D736C",
"K+	c #7E817E",
"L+	c #809596",
"M+	c #26A38F",
"N+	c #1FA296",
"O+	c #24936D",
"P+	c #23946D",
"Q+	c #22956D",
"R+	c #4B8872",
"S+	c #6E7473",
"T+	c #5D6A68",
"U+	c #6E7372",
"V+	c #79786E",
"W+	c #5E5843",
"X+	c #67614D",
"Y+	c #77746B",
"Z+	c #777879",
"`+	c #8C8D8B",
" @	c #787C78",
".@	c #6B7370",
"+@	c #5A6360",
"@@	c #5A5F5E",
"#@	c #717273",
"$@	c #807579",
"%@	c #838584",
"&@	c #979598",
"*@	c #7B9396",
"=@	c #1DA18C",
"-@	c #22A195",
";@	c #229367",
">@	c #308D68",
",@	c #209568",
"'@	c #418C6E",
")@	c #797875",
"!@	c #757975",
"~@	c #747B75",
"{@	c #787A75",
"]@	c #787773",
"^@	c #75716F",
"/@	c #787575",
"(@	c #79787A",
"_@	c #8A8D8C",
":@	c #7A7B7B",
"<@	c #6B706E",
"[@	c #5A6863",
"}@	c #5C6763",
"|@	c #737474",
"1@	c #7B7779",
"2@	c #7E8985",
"3@	c #999297",
"4@	c #699790",
"5@	c #1DA186",
"6@	c #239E8C",
"7@	c #219261",
"8@	c #2D8C63",
"9@	c #209366",
"0@	c #408A6D",
"a@	c #717471",
"b@	c #616663",
"c@	c #6C706F",
"d@	c #777877",
"e@	c #605F60",
"f@	c #565555",
"g@	c #727574",
"h@	c #747B78",
"i@	c #8B8D8C",
"j@	c #7B797A",
"k@	c #727473",
"l@	c #5D6965",
"m@	c #5E6764",
"n@	c #767475",
"o@	c #7B7778",
"p@	c #828A87",
"q@	c #979396",
"r@	c #63948A",
"s@	c #1F9E81",
"t@	c #249B86",
"u@	c #21915B",
"v@	c #298D5D",
"w@	c #229161",
"x@	c #3A8566",
"y@	c #667971",
"z@	c #54635F",
"A@	c #686C6E",
"B@	c #787679",
"C@	c #514D50",
"D@	c #232021",
"E@	c #6A6D6B",
"F@	c #737C77",
"G@	c #8C8C8C",
"H@	c #7C7879",
"I@	c #787878",
"J@	c #727B78",
"K@	c #737A77",
"L@	c #7D7679",
"M@	c #888B8A",
"N@	c #929695",
"O@	c #5A9384",
"P@	c #22997B",
"Q@	c #25987F",
"R@	c #258C53",
"S@	c #258C55",
"T@	c #238E59",
"U@	c #34855E",
"V@	c #518168",
"W@	c #55816C",
"X@	c #647970",
"Y@	c #747C77",
"Z@	c #53504F",
"`@	c #241C1C",
" #	c #6F6968",
".#	c #797876",
"+#	c #8B8B8B",
"@#	c #7D787A",
"##	c #6E6D6D",
"$#	c #646E6A",
"%#	c #6C7270",
"&#	c #7A7778",
"*#	c #7B757A",
"=#	c #8B8C8D",
"-#	c #899B93",
";#	c #4C927B",
">#	c #259775",
",#	c #269879",
"'#	c #2C864D",
")#	c #248A4D",
"!#	c #228C51",
"~#	c #2B8853",
"{#	c #328455",
"]#	c #348458",
"^#	c #44805F",
"/#	c #5C856D",
"(#	c #4B5D4E",
"_#	c #25251F",
":#	c #706968",
"<#	c #7B7676",
"[#	c #8C8D8D",
"}#	c #7A7879",
"|#	c #666867",
"1#	c #596561",
"2#	c #525B58",
"3#	c #757575",
"4#	c #7A787C",
"5#	c #7F9F91",
"6#	c #3D9071",
"7#	c #24966F",
"8#	c #239771",
"9#	c #2F8247",
"0#	c #248848",
"a#	c #238A48",
"b#	c #24884A",
"c#	c #228B4B",
"d#	c #218B4C",
"e#	c #278852",
"f#	c #388458",
"g#	c #3E6D4F",
"h#	c #273D2B",
"i#	c #677068",
"j#	c #747A75",
"k#	c #858E89",
"l#	c #767C78",
"m#	c #68716C",
"n#	c #586661",
"o#	c #4F5955",
"p#	c #777777",
"q#	c #7A797D",
"r#	c #8B908E",
"s#	c #679380",
"t#	c #2F8D68",
"u#	c #24956B",
"v#	c #21956C",
"w#	c #298341",
"x#	c #288442",
"y#	c #288543",
"z#	c #278645",
"A#	c #278746",
"B#	c #278847",
"C#	c #28874B",
"D#	c #29874D",
"E#	c #2C864F",
"F#	c #308450",
"G#	c #358253",
"H#	c #40875C",
"I#	c #458A61",
"J#	c #3F805A",
"K#	c #4A8263",
"L#	c #5A816C",
"M#	c #6A7B70",
"N#	c #797874",
"O#	c #7D7A76",
"P#	c #749383",
"Q#	c #3A8767",
"R#	c #249065",
"S#	c #249265",
"T#	c #2B8F65",
"U#	c #28813C",
"V#	c #28823D",
"W#	c #28823E",
"X#	c #27833F",
"Y#	c #278441",
"Z#	c #278543",
"`#	c #298446",
" $	c #278547",
".$	c #278649",
"+$	c #28854A",
"@$	c #2C854C",
"#$	c #2E854E",
"$$	c #27884E",
"%$	c #268A51",
"&$	c #268A55",
"*$	c #298556",
"=$	c #33855C",
"-$	c #3F8563",
";$	c #508769",
">$	c #3F8865",
",$	c #288A5F",
"'$	c #218F5F",
")$	c #258E5F",
"!$	c #2B8C60",
"~$	c #287E36",
"{$	c #287F37",
"]$	c #278038",
"^$	c #27813A",
"/$	c #27813B",
"($	c #27823D",
"_$	c #28813F",
":$	c #278341",
"<$	c #268442",
"[$	c #258443",
"}$	c #258545",
"|$	c #278545",
"1$	c #2A8646",
"2$	c #278647",
"3$	c #25894B",
"4$	c #23894C",
"5$	c #24874E",
"6$	c #278955",
"7$	c #258A56",
"8$	c #258C58",
"9$	c #248C58",
"0$	c #268C59",
"a$	c #278C5A",
"b$	c #297D30",
"c$	c #287D31",
"d$	c #287E33",
"e$	c #287F35",
"f$	c #288036",
"g$	c #288037",
"h$	c #288039",
"i$	c #26833C",
"j$	c #25843E",
"k$	c #24853F",
"l$	c #29843F",
"m$	c #298440",
"n$	c #2A8542",
"o$	c #2B8444",
"p$	c #2E8347",
"q$	c #2F8348",
"r$	c #28874A",
"s$	c #29874C",
"t$	c #2B864E",
"u$	c #2A8850",
"v$	c #258A52",
"w$	c #228D53",
"x$	c #2B7C2C",
"y$	c #2B7D2C",
"z$	c #2A7D2E",
"A$	c #297C2E",
"B$	c #287C2F",
"C$	c #277D2F",
"D$	c #267E30",
"E$	c #297D33",
"F$	c #297F35",
"G$	c #288137",
"H$	c #268339",
"I$	c #23843B",
"J$	c #24843C",
"K$	c #26843D",
"L$	c #27833E",
"M$	c #298340",
"N$	c #2B8341",
"O$	c #2C8341",
"P$	c #2D8343",
"Q$	c #2C8446",
"R$	c #2A8548",
"S$	c #26884B",
"T$	c #248A4C",
"U$	c #2D7C2A",
"V$	c #2B7D2B",
"W$	c #2B7D2E",
"X$	c #2A7D2D",
"Y$	c #297C2D",
"Z$	c #267E2D",
"`$	c #287D2F",
" %	c #2C7D30",
".%	c #2B7B30",
"+%	c #2A7D32",
"@%	c #287E34",
"#%	c #2D7B39",
"$%	c #2E7B3A",
"%%	c #2D7D3A",
"&%	c #2B7E3B",
"*%	c #29803C",
"=%	c #28813D",
"-%	c #27833C",
";%	c #27843D",
">%	c #268440",
",%	c #278444",
"'%	c #288446",
")%	c #298447",
"  . + @ # $ % & * = - ; > , ' ) ! ~ { ] ^ / ( _ ",
": < [ } | 1 2 3 4 5 6 7 8 9 0 a b c d e f g h i ",
"j k l m n o p q r s t u v w x w y z A B C D E F ",
"G H I J K L M N O P Q R S T U V W X Y Z `  ...+.",
"@.#.$.%.&.*.=.-.;.>.,.'.).!.~.{.].^./.(._.:.<.[.",
"}.|.1.2.3.4.5.6.7.8.9.0.a.b.c.d.e.f.g.h.i.j.k.l.",
"m.n.o.p.q.r.s.t.u.v.w.x.y.z.A.B.C.D.E.F.G.H.I.J.",
"K.L.M.N.O.P.Q.R.S.T.U.V.W.X.Y.Z.`. +.+++@+#+$+%+",
"&+*+=+-+;+>+,+'+)+!+~+{+]+^+/+(+_+:+<+[+}+|+1+2+",
"3+4+5+6+7+8+9+0+a+b+c+d+e+f+g+h+i+j+k+l+m+n+o+p+",
"q+r+s+t+u+v+w+x+y+z+A+B+C+D+E+F+G+H+I+J+K+L+M+N+",
"O+P+Q+R+S+T+U+V+W+X+Y+Z+`+ @.@+@@@#@$@%@&@*@=@-@",
";@>@,@'@)@!@~@{@]@^@/@(@_@:@<@[@}@|@1@2@3@4@5@6@",
"7@8@9@0@a@b@c@d@e@f@g@h@i@j@k@l@m@n@o@p@q@r@s@t@",
"u@v@w@x@y@z@A@B@C@D@E@F@G@H@I@J@K@o@L@M@N@O@P@Q@",
"R@S@T@U@V@W@X@Y@Z@`@ #.#+#@###$#%#&#*#=#-#;#>#,#",
"'#)#!#~#{#]#^#/#(#_#:#<#[#}#|#1#2#3#4#[#5#6#7#8#",
"9#0#a#b#c#d#e#f#g#h#i#j#k#l#m#n#o#p#q#r#s#t#u#v#",
"w#x#y#z#A#B#C#D#E#F#G#H#I#J#K#L#M#N#O#P#Q#R#S#T#",
"U#V#W#X#Y#Z#`# $.$+$@$#$$$%$&$*$=$-$;$>$,$'$)$!$",
"~${$]$^$/$($_$:$<$[$}$|$1$2$3$4$5$e#6$7$8$9$0$a$",
"b$b$c$d$e$f$g$h$^$i$j$k$l$m$n$o$p$q$r$s$t$u$v$w$",
"x$y$z$A$B$C$D$c$E$F$G$H$I$J$K$L$M$N$O$P$Q$R$S$T$",
"U$U$V$W$X$Y$Z$`$ %.%+%@%#%$%%%&%*%=%-%;%>%,%'%)%"};
