/* XPM */
static char * sklad_xpm[] = {
"24 24 560 2",
"  	c #21ACB3",
". 	c #22ADB3",
"+ 	c #21ADB5",
"@ 	c #20ADB6",
"# 	c #20AEB7",
"$ 	c #1EB2B6",
"% 	c #1CB2BC",
"& 	c #1BB2C3",
"* 	c #1DB2C6",
"= 	c #1FB2C3",
"- 	c #21B3C0",
"; 	c #1FB3C1",
"> 	c #1DB5C3",
", 	c #1CB6C5",
"' 	c #1EB6CB",
") 	c #20B5CE",
"! 	c #21B5D1",
"~ 	c #1FB7CE",
"{ 	c #20B8CE",
"] 	c #1FB8D0",
"^ 	c #1DB7CF",
"/ 	c #1DB8D1",
"( 	c #1DB9D2",
"_ 	c #21A9AD",
": 	c #21AAAE",
"< 	c #21ABB0",
"[ 	c #20ABB1",
"} 	c #20ACB3",
"| 	c #20ADB5",
"1 	c #23ABB9",
"2 	c #24ABBA",
"3 	c #24ADB9",
"4 	c #20B0B7",
"5 	c #1BB3B6",
"6 	c #19B5B8",
"7 	c #1EB0C7",
"8 	c #1FB0C9",
"9 	c #21B0C8",
"0 	c #1EB2C7",
"a 	c #1BB5C5",
"b 	c #1AB7C5",
"c 	c #1EB5C8",
"d 	c #1FB5CA",
"e 	c #1FB6CC",
"f 	c #1DB6CD",
"g 	c #1DB6CE",
"h 	c #1DB7CE",
"i 	c #21A7A6",
"j 	c #21A8A8",
"k 	c #21A9A9",
"l 	c #21AAAB",
"m 	c #20AAAC",
"n 	c #20ABAF",
"o 	c #18ADB6",
"p 	c #1DACB4",
"q 	c #23ABAF",
"r 	c #24ABAF",
"s 	c #22ADB4",
"t 	c #1DAEB8",
"u 	c #19B5AD",
"v 	c #1DB3B0",
"w 	c #21B1B7",
"x 	c #20B0BB",
"y 	c #1CB3BE",
"z 	c #19B5BF",
"A 	c #1EB2C2",
"B 	c #1FB2C4",
"C 	c #1EB4C5",
"D 	c #1EB4C7",
"E 	c #1EB5C9",
"F 	c #23A6A0",
"G 	c #22A7A1",
"H 	c #22A7A2",
"I 	c #22A8A4",
"J 	c #22A9A5",
"K 	c #22AAA7",
"L 	c #1EA9A8",
"M 	c #1FA9A9",
"N 	c #1FAAAC",
"O 	c #20ABB2",
"P 	c #1EACB9",
"Q 	c #1EACBD",
"R 	c #26ABB2",
"S 	c #27AAB4",
"T 	c #27A9BA",
"U 	c #25ABBC",
"V 	c #23AEBB",
"W 	c #1FAEB8",
"X 	c #20B0BC",
"Y 	c #20B0BE",
"Z 	c #20B1C0",
"` 	c #1FB2C1",
" .	c #1FB3C2",
"..	c #1FB4C3",
"+.	c #22A399",
"@.	c #22A49A",
"#.	c #22A59B",
"$.	c #22A69D",
"%.	c #22A69F",
"&.	c #23A7A0",
"*.	c #2AA29E",
"=.	c #26A4A3",
"-.	c #20A8A8",
";.	c #1FA8A8",
">.	c #24A7A3",
",.	c #2AA6A0",
"'.	c #29A5A6",
").	c #25A8AD",
"!.	c #1EABB3",
"~.	c #1DABB5",
"{.	c #23ABB4",
"].	c #27AAB0",
"^.	c #20ACB6",
"/.	c #20AEB9",
"(.	c #20AFBB",
"_.	c #1FB0BC",
":.	c #1FB0BD",
"<.	c #21A196",
"[.	c #21A296",
"}.	c #22A398",
"|.	c #20A59B",
"1.	c #1DA799",
"2.	c #1DA89E",
"3.	c #23A59D",
"4.	c #359F91",
"5.	c #489278",
"6.	c #5A8562",
"7.	c #777348",
"8.	c #677D58",
"9.	c #4E9277",
"0.	c #36A192",
"a.	c #29A8A3",
"b.	c #23AAAC",
"c.	c #1FABB2",
"d.	c #1FABB4",
"e.	c #1FACB5",
"f.	c #1EADB6",
"g.	c #1EAEB7",
"h.	c #1EAEB9",
"i.	c #219D97",
"j.	c #209F94",
"k.	c #229F92",
"l.	c #259F90",
"m.	c #26A090",
"n.	c #24A390",
"o.	c #2F9E80",
"p.	c #44916D",
"q.	c #618054",
"r.	c #817440",
"s.	c #8E6E32",
"t.	c #926A29",
"u.	c #9A692C",
"v.	c #9A6929",
"w.	c #936B2C",
"x.	c #81723C",
"y.	c #6C7E56",
"z.	c #59896E",
"A.	c #3A9E91",
"B.	c #31A2A2",
"C.	c #26A8AC",
"D.	c #1AAEAB",
"E.	c #1AAEAC",
"F.	c #21ABB2",
"G.	c #209F7D",
"H.	c #2A9B81",
"I.	c #2E9A81",
"J.	c #339978",
"K.	c #4C8C66",
"L.	c #6D7B57",
"M.	c #846F4B",
"N.	c #8B6A3F",
"O.	c #956734",
"P.	c #98652B",
"Q.	c #96662B",
"R.	c #956B2E",
"S.	c #8D6E2E",
"T.	c #916C2B",
"U.	c #956927",
"V.	c #946729",
"W.	c #916A31",
"X.	c #8C6E38",
"Y.	c #837435",
"Z.	c #737C50",
"`.	c #59896F",
" +	c #419985",
".+	c #35A396",
"++	c #31A3A2",
"@+	c #27996F",
"#+	c #478867",
"$+	c #6A7658",
"%+	c #806E45",
"&+	c #8D6C35",
"*+	c #966B2C",
"=+	c #966A2A",
"-+	c #956C29",
";+	c #916C26",
">+	c #916C27",
",+	c #926B2C",
"'+	c #93692F",
")+	c #97682D",
"!+	c #97672D",
"~+	c #95672D",
"{+	c #97692C",
"]+	c #996926",
"^+	c #9B6A22",
"/+	c #9C6827",
"(+	c #9A682C",
"_+	c #946C2F",
":+	c #827136",
"<+	c #6C7B4D",
"[+	c #5C8466",
"}+	c #2E8872",
"|+	c #496044",
"1+	c #836336",
"2+	c #916C28",
"3+	c #916D24",
"4+	c #9A6928",
"5+	c #98682C",
"6+	c #966A2B",
"7+	c #936A29",
"8+	c #986929",
"9+	c #9F642A",
"0+	c #A4612A",
"a+	c #A0672A",
"b+	c #99682E",
"c+	c #936932",
"d+	c #916A34",
"e+	c #936A2F",
"f+	c #986A2C",
"g+	c #9B6829",
"h+	c #97682E",
"i+	c #9B6832",
"j+	c #9D672D",
"k+	c #91692D",
"l+	c #79672E",
"m+	c #1E9778",
"n+	c #289163",
"o+	c #397038",
"p+	c #6B5B25",
"q+	c #9B6733",
"r+	c #9D6832",
"s+	c #9B6731",
"t+	c #99682F",
"u+	c #94682C",
"v+	c #906528",
"w+	c #94682A",
"x+	c #976A2C",
"y+	c #936C2C",
"z+	c #926C2D",
"A+	c #926C2E",
"B+	c #92662D",
"C+	c #96632E",
"D+	c #9A632F",
"E+	c #976A2D",
"F+	c #986B2B",
"G+	c #A06828",
"H+	c #986830",
"I+	c #656741",
"J+	c #45816A",
"K+	c #2B8F6A",
"L+	c #249570",
"M+	c #368C6F",
"N+	c #1D2B18",
"O+	c #583D1B",
"P+	c #84652D",
"Q+	c #926928",
"R+	c #966A29",
"S+	c #956A2C",
"T+	c #94692D",
"U+	c #92692F",
"V+	c #9A6934",
"W+	c #9A682D",
"X+	c #986924",
"Y+	c #966927",
"Z+	c #986A2A",
"`+	c #9B6825",
" @	c #93682A",
".@	c #89652F",
"+@	c #52461E",
"@@	c #3B7259",
"#@	c #24A292",
"$@	c #279161",
"%@	c #239466",
"&@	c #27916A",
"*@	c #296F4F",
"=@	c #1F3418",
"-@	c #473A1E",
";@	c #705627",
">@	c #906B33",
",@	c #976C2B",
"'@	c #986D29",
")@	c #96692C",
"!@	c #996733",
"~@	c #9B692C",
"{@	c #996A2B",
"]@	c #946B2A",
"^@	c #916C29",
"/@	c #976C2C",
"(@	c #9D6A2C",
"_@	c #8F6D2A",
":@	c #765C29",
"<@	c #443B1E",
"[@	c #284E3D",
"}@	c #2E917E",
"|@	c #12A58C",
"1@	c #298E5D",
"2@	c #249162",
"3@	c #229266",
"4@	c #2C8E65",
"5@	c #337D56",
"6@	c #367048",
"7@	c #357C4A",
"8@	c #4B5B31",
"9@	c #856037",
"0@	c #996833",
"a@	c #956A23",
"b@	c #986A30",
"c@	c #976C2D",
"d@	c #9A6927",
"e@	c #A16829",
"f@	c #9A6B30",
"g@	c #846A32",
"h@	c #5B6742",
"i@	c #497856",
"j@	c #227858",
"k@	c #27977C",
"l@	c #279982",
"m@	c #2C9984",
"n@	c #288E58",
"o@	c #268E5C",
"p@	c #249061",
"q@	c #238F62",
"r@	c #239060",
"s@	c #23905E",
"t@	c #249065",
"u@	c #32875F",
"v@	c #3A643E",
"w@	c #615A2E",
"x@	c #8F682F",
"y@	c #9B6824",
"z@	c #96682D",
"A@	c #946B28",
"B@	c #9A6723",
"C@	c #9D642C",
"D@	c #796535",
"E@	c #4B7142",
"F@	c #318E71",
"G@	c #269479",
"H@	c #1E9A7E",
"I@	c #1C9B80",
"J@	c #229A7F",
"K@	c #27987C",
"L@	c #248D52",
"M@	c #268C55",
"N@	c #298B59",
"O@	c #288B5C",
"P@	c #258D5D",
"Q@	c #22905D",
"R@	c #21915F",
"S@	c #2A8D61",
"T@	c #308B60",
"U@	c #367C4D",
"V@	c #445124",
"W@	c #86562F",
"X@	c #92662B",
"Y@	c #8E6725",
"Z@	c #8B6629",
"`@	c #6C5C2D",
" #	c #49744D",
".#	c #29916C",
"+#	c #1C996F",
"@#	c #229773",
"##	c #279476",
"$#	c #279378",
"%#	c #229679",
"&#	c #1D9979",
"*#	c #25894E",
"=#	c #28884F",
"-#	c #2A8851",
";#	c #2A8753",
">#	c #298954",
",#	c #298B55",
"'#	c #288B56",
")#	c #238E59",
"!#	c #248E5B",
"~#	c #318156",
"{#	c #113316",
"]#	c #1C1D06",
"^#	c #5F461B",
"/#	c #7E5B30",
"(#	c #503C15",
"_#	c #21441C",
":#	c #308961",
"<#	c #1E936F",
"[#	c #279168",
"}#	c #289269",
"|#	c #25936A",
"1#	c #25946E",
"2#	c #259470",
"3#	c #259472",
"4#	c #2A834B",
"5#	c #2A854A",
"6#	c #288649",
"7#	c #26884B",
"8#	c #26894C",
"9#	c #27894E",
"0#	c #2B8655",
"a#	c #288955",
"b#	c #238C54",
"c#	c #288A57",
"d#	c #2C6A46",
"e#	c #0F2310",
"f#	c #160F01",
"g#	c #3E2514",
"h#	c #302D1A",
"i#	c #30724C",
"j#	c #258E5E",
"k#	c #288F62",
"l#	c #238F68",
"m#	c #259068",
"n#	c #269067",
"o#	c #269168",
"p#	c #249468",
"q#	c #239569",
"r#	c #298341",
"s#	c #298442",
"t#	c #298543",
"u#	c #288645",
"v#	c #288746",
"w#	c #288747",
"x#	c #29864C",
"y#	c #29864D",
"z#	c #28884E",
"A#	c #288850",
"B#	c #2A8751",
"C#	c #2D804F",
"D#	c #1B4321",
"E#	c #204F2B",
"F#	c #377C52",
"G#	c #2D8959",
"H#	c #268D5A",
"I#	c #268E5B",
"J#	c #278E5F",
"K#	c #278E60",
"L#	c #288F60",
"M#	c #279062",
"N#	c #279063",
"O#	c #269165",
"P#	c #28813C",
"Q#	c #28823D",
"R#	c #28823E",
"S#	c #27833F",
"T#	c #278441",
"U#	c #278543",
"V#	c #298346",
"W#	c #298447",
"X#	c #288549",
"Y#	c #28864B",
"Z#	c #27864B",
"`#	c #28864D",
" $	c #31814F",
".$	c #2E8551",
"+$	c #288852",
"@$	c #258A54",
"#$	c #288A55",
"$$	c #2A8A57",
"%$	c #278B59",
"&$	c #278C5A",
"*$	c #278C5B",
"=$	c #268D5D",
"-$	c #268E5E",
";$	c #268F5F",
">$	c #287E36",
",$	c #287F37",
"'$	c #278038",
")$	c #27813A",
"!$	c #27813B",
"~$	c #27823D",
"{$	c #28813F",
"]$	c #298241",
"^$	c #288342",
"/$	c #268242",
"($	c #288546",
"_$	c #288647",
":$	c #248849",
"<$	c #218748",
"[$	c #218A4C",
"}$	c #23894D",
"|$	c #28874F",
"1$	c #2B8650",
"2$	c #278A53",
"3$	c #278A54",
"4$	c #278B56",
"5$	c #278B58",
"6$	c #268D58",
"7$	c #297D30",
"8$	c #287D31",
"9$	c #287E33",
"0$	c #287F35",
"a$	c #288036",
"b$	c #297F37",
"c$	c #298039",
"d$	c #29803A",
"e$	c #29813C",
"f$	c #29823E",
"g$	c #29833F",
"h$	c #2B8241",
"i$	c #2A8343",
"j$	c #278544",
"k$	c #278645",
"l$	c #288749",
"m$	c #28874A",
"n$	c #28884B",
"o$	c #28894D",
"p$	c #27894F",
"q$	c #278A50",
"r$	c #278A51",
"s$	c #2B7C2C",
"t$	c #2B7D2C",
"u$	c #2A7D2E",
"v$	c #297C2E",
"w$	c #287C2F",
"x$	c #287D2F",
"y$	c #297C30",
"z$	c #297D31",
"A$	c #298037",
"B$	c #2A8038",
"C$	c #2D7F3B",
"D$	c #2C803C",
"E$	c #2A813D",
"F$	c #288440",
"G$	c #278542",
"H$	c #288543",
"I$	c #288545",
"J$	c #288646",
"K$	c #278747",
"L$	c #278749",
"M$	c #27884A",
"N$	c #2D7C2A",
"O$	c #2B7D2B",
"P$	c #2B7D2E",
"Q$	c #2A7D2D",
"R$	c #297C2D",
"S$	c #2A7D2F",
"T$	c #2A7E30",
"U$	c #287D30",
"V$	c #287D32",
"W$	c #277E33",
"X$	c #248136",
"Y$	c #258136",
"Z$	c #268138",
"`$	c #28803A",
" %	c #29803C",
".%	c #2A813C",
"+%	c #27823E",
"@%	c #288340",
"#%	c #278341",
"$%	c #278443",
"%%	c #268545",
"&%	c #278646",
"  . + @ # # $ % & * = - ; > , ' ) ! ~ { ] ^ / ( ",
"_ : < [ } | 1 2 3 4 5 6 7 8 9 0 a b c d e f g h ",
"i j k l m n o p q r s t u v w x y z A B C D c E ",
"F G H I J K L M N O P Q R S T U V W X Y Z `  ...",
"+.@.#.$.%.&.*.=.-.;.>.,.'.).!.~.{.].^.# /.(._.:.",
"<.[.[.}.@.|.1.2.3.4.5.6.7.8.9.0.a.b.c.d.e.f.g.h.",
"i.j.k.l.m.n.o.p.q.r.s.t.u.v.w.x.y.z.A.B.C.D.E.F.",
"G.H.I.J.K.L.M.N.O.P.Q.R.S.T.U.V.W.X.Y.Z.`. +.+++",
"@+#+$+%+&+*+=+-+;+>+,+'+)+!+~+{+]+^+/+(+_+:+<+[+",
"}+|+1+2+3+4+5+6+7+8+9+0+a+b+c+d+e+f+g+h+i+j+k+l+",
"m+n+o+p+q+r+s+t+u+v+w+x+y+z+A+B+C+D+E+F+G+H+I+J+",
"K+L+M+N+O+P+Q+R+6+S+T+U+V+W+]+X+Y+Z+`+ @.@+@@@#@",
"$@%@&@*@=@-@;@>@,@'@)@!@~@{@]@^@/@(@_@:@<@[@}@|@",
"1@2@3@4@5@6@7@8@9@0@'@a@b@c@d@e@f@g@h@i@j@k@l@m@",
"n@o@p@q@r@s@t@u@v@w@x@y@z@A@B@C@D@E@F@G@H@I@J@K@",
"L@M@N@O@P@Q@R@S@T@U@V@W@X@Y@Z@`@ #.#+#@###$#%#&#",
"*#=#-#;#>#,#'#)#!#~#{#]#^#/#(#_#:#<#[#}#|#1#2#3#",
"4#5#6#7#8#9#0#a#b#c#d#e#f#g#h#i#j#k#l#m#n#o#p#q#",
"r#s#t#u#v#w#x#y#z#A#B#C#D#E#F#G#H#I#J#K#L#M#N#O#",
"P#Q#R#S#T#U#V#W#X#Y#Z#`# $.$+$@$#$$$%$&$*$=$-$;$",
">$,$'$)$!$~${$]$^$/$($_$:$<$[$}$|$1$+$2$3$4$5$6$",
"7$7$8$9$0$a$b$c$d$e$f$g$h$i$j$k$_$l$m$n$o$p$q$r$",
"s$t$u$v$w$x$y$z$9$0$A$B$C$D$E$f$F$G$H$I$J$K$L$M$",
"N$N$O$P$Q$R$R$S$T$U$V$W$X$Y$Z$`$ %.%+%@%#%$%%%&%"};
