/* XPM */
static const char *Sound_xpm[] = {
/* width height num_colors chars_per_pixel */
"    24    24       16            1",
/* colors */
"` c #000000",
". c #d77066",
"# c #960000",
"a c #bb3e37",
"b c #d11900",
"c c #af2800",
"d c #cf574a",
"e c #ffa68e",
"f c #d32b00",
"g c #4e0000",
"h c #ff876e",
"i c #ffb79d",
"j c #e95900",
"k c #e44326",
"l c #aa0000",
"m c #e76d4d",
/* pixels */
"`g##############ll###```",
"``g#caaaaaacaacccccl#g``",
"```#a......ddddaaaacc#g`",
"```#lckkkkdmmmm.hheee#g`",
"```##lfffkkkkkkkkdhei#g`",
"```###bffbbbbbbbbbmhe#g`",
"````g#ckmbbbfbbbbbm..#g`",
"````g#la.llbbbbbbbdmd#g`",
"````g##a.####llllbdda#g`",
"``````#a.#############g`",
"``````#cdc##gggggggggg``",
"``````#ccac#````````````",
"``````##ldc#````````````",
"``````g##dc#g```````````",
"```````g#dc##g``````````",
"```######ccc#g``````````",
"``g#lcccccaa#g``````````",
"`g#lcfdaacad#g``````````",
"`g#bkmiiiehm#g``````````",
"`g#bfjheiihm#g``````````",
"`g#bbfjheehm#g``````````",
"`g##llffkkkf#g``````````",
"``g##llbbccc#g``````````",
"```##########g``````````"
};
