/* XPM */
static char * stromy_xpm[] = {
"24 24 557 2",
"  	c #1DAEB3",
". 	c #1DAFB3",
"+ 	c #1EAFB4",
"@ 	c #1EAEB6",
"# 	c #1EAFB7",
"$ 	c #20AFB7",
"% 	c #21AFBA",
"& 	c #21B0BC",
"* 	c #21B0BE",
"= 	c #20B2C0",
"- 	c #20B2C1",
"; 	c #20B3C2",
"> 	c #1FB2C6",
", 	c #1FB3C6",
"' 	c #1FB4C9",
") 	c #1FB5CB",
"! 	c #1FB5CD",
"~ 	c #20B6CD",
"{ 	c #1FB7CE",
"] 	c #20B8CE",
"^ 	c #1FB8D0",
"/ 	c #1DB7CF",
"( 	c #1DB8D1",
"_ 	c #1DB9D2",
": 	c #21A9AC",
"< 	c #22A9AE",
"[ 	c #22AAB1",
"} 	c #21AAB4",
"| 	c #21ABB6",
"1 	c #21ACB7",
"2 	c #1FADB6",
"3 	c #20AEB8",
"4 	c #20AFB9",
"5 	c #20AFBB",
"6 	c #1FB0BC",
"7 	c #1FB0BE",
"8 	c #1FB0C1",
"9 	c #1FB1C2",
"0 	c #1FB2C3",
"a 	c #1FB2C5",
"b 	c #1EB3C7",
"c 	c #1EB4C8",
"d 	c #1EB4C9",
"e 	c #1FB5CA",
"f 	c #1FB6CC",
"g 	c #1DB6CD",
"h 	c #1DB6CE",
"i 	c #1DB7CE",
"j 	c #23A6A6",
"k 	c #23A7A8",
"l 	c #22A7AB",
"m 	c #21A9AF",
"n 	c #20A9B2",
"o 	c #20AAB4",
"p 	c #20ABB0",
"q 	c #20ABB1",
"r 	c #20ACB2",
"s 	c #1FADB4",
"t 	c #1FAEB5",
"u 	c #1FAEB7",
"v 	c #20AEBA",
"w 	c #20AFBC",
"x 	c #20B0BD",
"y 	c #1EB0BE",
"z 	c #1FB1C0",
"A 	c #1EB2C1",
"B 	c #1EB2C2",
"C 	c #1FB2C4",
"D 	c #1EB4C5",
"E 	c #1EB4C7",
"F 	c #1EB5C8",
"G 	c #1EB5C9",
"H 	c #20A7A0",
"I 	c #20A8A1",
"J 	c #20A8A3",
"K 	c #1FA8A6",
"L 	c #1FA9A9",
"M 	c #1FA9AA",
"N 	c #20A8A8",
"O 	c #20A9A9",
"P 	c #20AAAA",
"Q 	c #20ABAD",
"R 	c #20ABAE",
"S 	c #21ACAF",
"T 	c #20ACB3",
"U 	c #20ADB4",
"V 	c #20ADB6",
"W 	c #20AEB7",
"X 	c #1FAFB9",
"Y 	c #20B0BA",
"Z 	c #20B0BC",
"` 	c #20B0BE",
" .	c #20B1C0",
"..	c #1FB2C1",
"+.	c #1FB3C2",
"@.	c #1FB4C3",
"#.	c #20A499",
"$.	c #21A59A",
"%.	c #22A49A",
"&.	c #24A59C",
"*.	c #25A49B",
"=.	c #26A59D",
"-.	c #21A6A1",
";.	c #21A7A3",
">.	c #21A8A3",
",.	c #21A8A6",
"'.	c #20A9A7",
").	c #20AAA8",
"!.	c #20AAAC",
"~.	c #20AAAD",
"{.	c #21ABAF",
"].	c #20ACB0",
"^.	c #1FADB2",
"/.	c #1FADB3",
"(.	c #20AEB9",
"_.	c #1FB0BD",
":.	c #24A095",
"<.	c #25A096",
"[.	c #28A094",
"}.	c #2B9B8B",
"|.	c #1A8372",
"1.	c #289484",
"2.	c #22A49B",
"3.	c #21A59E",
"4.	c #21A69F",
"5.	c #1FA6A0",
"6.	c #20A7A1",
"7.	c #21A7A2",
"8.	c #21A7A9",
"9.	c #20A9AA",
"0.	c #1EABAC",
"a.	c #20AAAE",
"b.	c #21AAB0",
"c.	c #1FABB2",
"d.	c #1FACB3",
"e.	c #1FACB6",
"f.	c #1FADB9",
"g.	c #249E8B",
"h.	c #229F97",
"i.	c #23A08C",
"j.	c #2D7A52",
"k.	c #446940",
"l.	c #1E5C38",
"m.	c #249F92",
"n.	c #24A199",
"o.	c #23A399",
"p.	c #23A699",
"q.	c #269E8F",
"r.	c #279183",
"s.	c #22A698",
"t.	c #28A2A6",
"u.	c #24A3A7",
"v.	c #1FA89E",
"w.	c #1CAA9E",
"x.	c #26A5A8",
"y.	c #2E9B94",
"z.	c #1C948B",
"A.	c #24A99E",
"B.	c #21AAB2",
"C.	c #21A9BD",
"D.	c #21ADAB",
"E.	c #249D89",
"F.	c #229E8C",
"G.	c #2A8E70",
"H.	c #245C29",
"I.	c #375C26",
"J.	c #25552B",
"K.	c #2B8261",
"L.	c #299E89",
"M.	c #1EA399",
"N.	c #2B9B8D",
"O.	c #1D6B47",
"P.	c #326D37",
"Q.	c #29856E",
"R.	c #24A49A",
"S.	c #1EA4A3",
"T.	c #1BA89D",
"U.	c #29A39A",
"V.	c #28A199",
"W.	c #1E614D",
"X.	c #0E5231",
"Y.	c #288373",
"Z.	c #29A6A4",
"`.	c #1CADA4",
" +	c #1CAEAA",
".+	c #249985",
"++	c #26997A",
"@+	c #2C6F45",
"#+	c #305518",
"$+	c #3D6B29",
"%+	c #456B3C",
"&+	c #416F40",
"*+	c #237F59",
"=+	c #2D9B84",
"-+	c #226956",
";+	c #33572A",
">+	c #496920",
",+	c #2B5F3B",
"'+	c #2A8872",
")+	c #1FA598",
"!+	c #27A19B",
"~+	c #309B8F",
"{+	c #156B58",
"]+	c #2C522A",
"^+	c #385327",
"/+	c #2C5F47",
"(+	c #2F9C8B",
"_+	c #1CAC97",
":+	c #1AA9A7",
"<+	c #28967C",
"[+	c #2A835E",
"}+	c #3F6637",
"|+	c #3A5819",
"1+	c #326220",
"2+	c #345625",
"3+	c #4D6937",
"4+	c #316736",
"5+	c #225B33",
"6+	c #153112",
"7+	c #2F431C",
"8+	c #375D25",
"9+	c #2B4B1C",
"0+	c #204F2F",
"a+	c #2B816C",
"b+	c #35988B",
"c+	c #216F5C",
"d+	c #1C4428",
"e+	c #3B6028",
"f+	c #213917",
"g+	c #1E4521",
"h+	c #1E7051",
"i+	c #2B9E98",
"j+	c #23A4A1",
"k+	c #298F6D",
"l+	c #225C38",
"m+	c #436032",
"n+	c #40672E",
"o+	c #26521A",
"p+	c #3F6431",
"q+	c #517641",
"r+	c #436935",
"s+	c #2C491A",
"t+	c #34471C",
"u+	c #3E5525",
"v+	c #3D5F29",
"w+	c #526C35",
"x+	c #395F2A",
"y+	c #2C5935",
"z+	c #2E755A",
"A+	c #174026",
"B+	c #364E25",
"C+	c #395D25",
"D+	c #20431F",
"E+	c #355831",
"F+	c #214F2C",
"G+	c #308073",
"H+	c #29A095",
"I+	c #21845B",
"J+	c #224A27",
"K+	c #3D5B31",
"L+	c #21501E",
"M+	c #365F30",
"N+	c #406835",
"O+	c #4C7D3E",
"P+	c #375D29",
"Q+	c #3E5C31",
"R+	c #345221",
"S+	c #465E1F",
"T+	c #606E26",
"U+	c #678145",
"V+	c #467332",
"W+	c #366F36",
"X+	c #1E4123",
"Y+	c #2D4A29",
"Z+	c #43602D",
"`+	c #405427",
" @	c #3E6130",
".@	c #2B4923",
"+@	c #1F3512",
"@@	c #1F5C38",
"#@	c #279A89",
"$@	c #219262",
"%@	c #348156",
"&@	c #326037",
"*@	c #2B5025",
"=@	c #27481E",
"-@	c #3F5F34",
";@	c #45692F",
">@	c #416630",
",@	c #304E1F",
"'@	c #34461A",
")@	c #455725",
"!@	c #485F25",
"~@	c #4B6630",
"{@	c #316B37",
"]@	c #2F8059",
"^@	c #2B6F59",
"/@	c #17452A",
"(@	c #335025",
"_@	c #3A4B26",
":@	c #345022",
"<@	c #2B4E1E",
"[@	c #285C33",
"}@	c #2C8264",
"|@	c #259081",
"1@	c #278F62",
"2@	c #266C45",
"3@	c #2E5530",
"4@	c #26491F",
"5@	c #1B4617",
"6@	c #386733",
"7@	c #4F793A",
"8@	c #4C773B",
"9@	c #3A602B",
"0@	c #304A1A",
"a@	c #314E17",
"b@	c #416828",
"c@	c #507C38",
"d@	c #386A30",
"e@	c #1C4E28",
"f@	c #375E4A",
"g@	c #143014",
"h@	c #294011",
"i@	c #40652B",
"j@	c #407130",
"k@	c #2E5C1D",
"l@	c #3B6737",
"m@	c #368862",
"n@	c #1AA37C",
"o@	c #29895D",
"p@	c #215E3A",
"q@	c #244221",
"r@	c #102B05",
"s@	c #2A511F",
"t@	c #48763D",
"u@	c #5A8342",
"v@	c #426D30",
"w@	c #325924",
"x@	c #365421",
"y@	c #45662C",
"z@	c #45722E",
"A@	c #5A8940",
"B@	c #4C773A",
"C@	c #2E562D",
"D@	c #0F361C",
"E@	c #173B1B",
"F@	c #2C4C1D",
"G@	c #436A2B",
"H@	c #4E7534",
"I@	c #477233",
"J@	c #557B4C",
"K@	c #467D5B",
"L@	c #2D936F",
"M@	c #278B57",
"N@	c #286C41",
"O@	c #1D431D",
"P@	c #253F1A",
"Q@	c #516C3D",
"R@	c #4C6633",
"S@	c #416127",
"T@	c #365728",
"U@	c #445C30",
"V@	c #536F3C",
"W@	c #496F33",
"X@	c #4F6F33",
"Y@	c #4E773F",
"Z@	c #317142",
"`@	c #308862",
" #	c #2C805B",
".#	c #38774C",
"+#	c #405329",
"@#	c #4F542F",
"##	c #478250",
"$#	c #2C975F",
"%#	c #2C9067",
"&#	c #258E6C",
"*#	c #228A4B",
"=#	c #30844D",
"-#	c #2F713F",
";#	c #28602E",
">#	c #406D39",
",#	c #4F6F3D",
"'#	c #3D6331",
")#	c #3E673A",
"!#	c #2B4E28",
"~#	c #1A310F",
"{#	c #2F4922",
"]#	c #355928",
"^#	c #486D34",
"/#	c #446B33",
"(#	c #165525",
"_#	c #278D63",
":#	c #249269",
"<#	c #2E865C",
"[#	c #19200C",
"}#	c #3B2D21",
"|#	c #3A7857",
"1#	c #1E9969",
"2#	c #27946E",
"3#	c #239671",
"4#	c #238844",
"5#	c #288747",
"6#	c #2A874A",
"7#	c #278345",
"8#	c #317F42",
"9#	c #27632A",
"0#	c #275D2D",
"a#	c #32683E",
"b#	c #164421",
"c#	c #0E2F10",
"d#	c #2B4928",
"e#	c #3E6439",
"f#	c #427937",
"g#	c #4F7539",
"h#	c #386232",
"i#	c #33835A",
"j#	c #268F64",
"k#	c #268E5F",
"l#	c #287A52",
"m#	c #2E684B",
"n#	c #258861",
"o#	c #22936A",
"p#	c #338C6B",
"q#	c #20966A",
"r#	c #288440",
"s#	c #288441",
"t#	c #288544",
"u#	c #288645",
"v#	c #298646",
"w#	c #2B8646",
"x#	c #2E8449",
"y#	c #31834B",
"z#	c #236C38",
"A#	c #1D5327",
"B#	c #365732",
"C#	c #324826",
"D#	c #3D703B",
"E#	c #3D7D45",
"F#	c #32824A",
"G#	c #2A8C56",
"H#	c #248E5B",
"I#	c #248F5E",
"J#	c #278E5E",
"K#	c #298D5F",
"L#	c #278F60",
"M#	c #269062",
"N#	c #298F64",
"O#	c #269165",
"P#	c #28813C",
"Q#	c #28823D",
"R#	c #28823E",
"S#	c #27833F",
"T#	c #278441",
"U#	c #278543",
"V#	c #268645",
"W#	c #268546",
"X#	c #2B8448",
"Y#	c #327E47",
"Z#	c #2A6635",
"`#	c #15471A",
" $	c #22622D",
".$	c #36834B",
"+$	c #2C874E",
"@$	c #268A52",
"#$	c #258B56",
"$$	c #278B58",
"%$	c #278B59",
"&$	c #278C5A",
"*$	c #278C5B",
"=$	c #268D5D",
"-$	c #268E5E",
";$	c #268F5F",
">$	c #287E36",
",$	c #287F37",
"'$	c #278038",
")$	c #27813A",
"!$	c #27813B",
"~$	c #27823D",
"{$	c #26833F",
"]$	c #258541",
"^$	c #248542",
"/$	c #278343",
"($	c #2D8245",
"_$	c #307F45",
":$	c #2E8147",
"<$	c #2A844A",
"[$	c #27864C",
"}$	c #26884D",
"|$	c #27884F",
"1$	c #2A8750",
"2$	c #278952",
"3$	c #278A53",
"4$	c #278A54",
"5$	c #278B56",
"6$	c #268D58",
"7$	c #297D30",
"8$	c #287D31",
"9$	c #287E33",
"0$	c #287F35",
"a$	c #297F36",
"b$	c #2A7E38",
"c$	c #2A803A",
"d$	c #28813B",
"e$	c #29823E",
"f$	c #298240",
"g$	c #288444",
"h$	c #278545",
"i$	c #268646",
"j$	c #278646",
"k$	c #298647",
"l$	c #2B8548",
"m$	c #28874A",
"n$	c #28884B",
"o$	c #28894D",
"p$	c #27894F",
"q$	c #278A50",
"r$	c #278A51",
"s$	c #2B7C2C",
"t$	c #2B7D2C",
"u$	c #2A7D2E",
"v$	c #297C2E",
"w$	c #287C2F",
"x$	c #287D30",
"y$	c #2B7B31",
"z$	c #2B7C33",
"A$	c #2A7D34",
"B$	c #2A7E37",
"C$	c #2A7F39",
"D$	c #28823C",
"E$	c #28833D",
"F$	c #27833E",
"G$	c #288442",
"H$	c #288543",
"I$	c #288545",
"J$	c #288646",
"K$	c #278747",
"L$	c #278749",
"M$	c #27884A",
"N$	c #2D7C2A",
"O$	c #2B7D2B",
"P$	c #2B7D2E",
"Q$	c #2A7D2D",
"R$	c #297C2D",
"S$	c #2A7D32",
"T$	c #297D32",
"U$	c #287D34",
"V$	c #287E35",
"W$	c #297F32",
"X$	c #2A7F32",
"Y$	c #298035",
"Z$	c #278138",
"`$	c #25823B",
" %	c #24843D",
".%	c #288340",
"+%	c #278341",
"@%	c #278443",
"#%	c #268545",
"  . + @ # $ % & * = - ; > , ' ) ! ~ { ] ^ / ( _ ",
": < [ } | 1 2 3 4 5 6 7 8 9 0 a b c d e f g h i ",
"j k l m n o p q r s t u v w x y z A B C D E F G ",
"H I J K L M N O P Q R S T U V W X Y Z `  ...+.@.",
"#.$.%.&.*.=.-.;.>.,.'.).!.~.{.].^./.2 W (.5 6 _.",
":.<.[.}.|.1.2.3.4.5.6.7.K 8.9.M 0.a.b.c.d.e.f.u ",
"g.h.i.j.k.l.m.n.o.p.q.r.s.t.u.v.w.x.y.z.A.B.C.D.",
"E.F.G.H.I.J.K.L.M.N.O.P.Q.R.S.T.U.V.W.X.Y.Z.`. +",
".+++@+#+$+%+&+*+=+-+;+>+,+'+)+!+~+{+]+^+/+(+_+:+",
"<+[+}+|+1+2+3+4+5+6+7+8+9+0+a+b+c+d+e+f+g+h+i+j+",
"k+l+m+n+o+p+q+r+s+t+u+v+w+x+y+z+A+B+C+D+E+F+G+H+",
"I+J+K+L+M+N+O+P+Q+R+S+T+U+V+W+X+Y+Z+`+ @.@+@@@#@",
"$@%@&@*@=@-@;@>@,@'@)@!@~@{@]@^@/@(@_@:@<@[@}@|@",
"1@2@3@4@5@6@7@8@9@0@a@b@c@d@e@f@g@h@i@j@k@l@m@n@",
"o@p@q@r@s@t@u@v@w@x@y@z@A@B@C@D@E@F@G@H@I@J@K@L@",
"M@N@O@P@Q@R@S@>@T@U@V@W@X@Y@Z@`@ #.#+#@###$#%#&#",
"*#=#-#;#>#,#'#)#!#~#{#]#^#/#(#_#:#<#[#}#|#1#2#3#",
"4#5#6#7#8#9#0#a#b#c#d#e#f#g#h#i#j#k#l#m#n#o#p#q#",
"r#s#t#u#v#w#x#y#z#A#B#C#D#E#F#G#H#I#J#K#L#M#N#O#",
"P#Q#R#S#T#U#V#W#X#Y#Z#`# $.$+$@$#$$$%$&$*$=$-$;$",
">$,$'$)$!$~${$]$^$/$($_$:$<$[$}$|$1$2$3$4$5$$$6$",
"7$7$8$9$0$a$b$c$d$Q#e$f$g$h$i$j$k$l$m$n$o$p$q$r$",
"s$t$u$v$w$x$y$z$A$B$C$c$d$D$E$F$r#G$H$I$J$K$L$M$",
"N$N$O$P$Q$R$w$7$S$T$U$V$W$X$Y$Z$`$ %F$.%+%@%#%j$"};
