/* XPM */
static char * studna_xpm[] = {
"24 24 545 2",
"  	c #1BB1B0",
". 	c #1EAEB5",
"+ 	c #22ABBB",
"@ 	c #23ABBB",
"# 	c #22ADB6",
"$ 	c #21AFB2",
"% 	c #1FB0BA",
"& 	c #1FAFBF",
"* 	c #21B0C1",
"= 	c #20B0C3",
"- 	c #1FB2C0",
"; 	c #1EB4BF",
"> 	c #1EB3C9",
", 	c #1EB4C8",
"' 	c #1FB5C4",
") 	c #1FB6C4",
"! 	c #1EB6C8",
"~ 	c #1EB6CC",
"{ 	c #1FB7CE",
"] 	c #1EB7CF",
"^ 	c #1EB8CF",
"/ 	c #1CB7CF",
"( 	c #1CB8D1",
"_ 	c #1DB9D1",
": 	c #20ABA4",
"< 	c #1EADA7",
"[ 	c #1CADAC",
"} 	c #1CAEB0",
"| 	c #1CAEB4",
"1 	c #1EAEB6",
"2 	c #19B1B3",
"3 	c #18B2B7",
"4 	c #19B1BC",
"5 	c #1BB0C1",
"6 	c #1FAFC2",
"7 	c #22AEC3",
"8 	c #22AFC2",
"9 	c #22B0C1",
"0 	c #20B2C2",
"a 	c #1FB3C6",
"b 	c #1DB3CA",
"c 	c #1DB3CD",
"d 	c #1EB5CA",
"e 	c #1EB6CD",
"f 	c #1EB7CE",
"g 	c #28A2A4",
"h 	c #26A6A2",
"i 	c #22ABA0",
"j 	c #20ACA2",
"k 	c #21AAAA",
"l 	c #24A9B1",
"m 	c #26A8B0",
"n 	c #23ABAF",
"o 	c #1EAEB0",
"p 	c #1EAFAF",
"q 	c #21AFAD",
"r 	c #24AFAD",
"s 	c #1DB1B4",
"t 	c #1CB3B5",
"u 	c #1BB4B6",
"v 	c #1CB4B7",
"w 	c #1EB3BA",
"x 	c #1FB3BC",
"y 	c #1FB3C3",
"z 	c #1FB3C4",
"A 	c #1EB4C5",
"B 	c #1EB4C7",
"C 	c #1EB5C8",
"D 	c #1EB5C9",
"E 	c #426E62",
"F 	c #406156",
"G 	c #456257",
"H 	c #487168",
"I 	c #3E827A",
"J 	c #36908B",
"K 	c #31999A",
"L 	c #32A1A3",
"M 	c #2CA5A8",
"N 	c #26A8AF",
"O 	c #21AAB4",
"P 	c #20ACB8",
"Q 	c #24ABB7",
"R 	c #21ABB7",
"S 	c #1FAEB8",
"T 	c #1DAFB6",
"U 	c #1DAFB5",
"V 	c #21B0B6",
"W 	c #20AFBB",
"X 	c #20B0BD",
"Y 	c #1FB1BE",
"Z 	c #1FB1C0",
"` 	c #1FB2C1",
" .	c #1FB3C2",
"..	c #27A196",
"+.	c #329889",
"@.	c #3B806B",
"#.	c #426144",
"$.	c #484B26",
"%.	c #51451D",
"&.	c #4B4B2E",
"*.	c #4C5339",
"=.	c #4A5D47",
"-.	c #426F5F",
";.	c #3B8277",
">.	c #37938B",
",.	c #2BA49D",
"'.	c #27AAA6",
").	c #20ABB5",
"!.	c #21A9B9",
"~.	c #24A9BA",
"{.	c #20ADB7",
"].	c #20AEB7",
"^.	c #20AEB8",
"/.	c #20AFBA",
"(.	c #20B1BD",
"_.	c #23A193",
":.	c #20A396",
"<.	c #20A496",
"[.	c #2C9F92",
"}.	c #3A9082",
"|.	c #3F7968",
"1.	c #55563A",
"2.	c #5A4124",
"3.	c #683D1D",
"4.	c #6B3A18",
"5.	c #603B17",
"6.	c #59411C",
"7.	c #564C30",
"8.	c #515F49",
"9.	c #467867",
"0.	c #3A9189",
"a.	c #2FA29F",
"b.	c #25A8A9",
"c.	c #23AAB0",
"d.	c #22ABB2",
"e.	c #1FADB3",
"f.	c #1FADB5",
"g.	c #20AEB9",
"h.	c #239F8D",
"i.	c #239F8F",
"j.	c #23A091",
"k.	c #22A093",
"l.	c #23A095",
"m.	c #25A094",
"n.	c #339A8B",
"o.	c #22463A",
"p.	c #4C5A41",
"q.	c #555537",
"r.	c #60482A",
"s.	c #6A401E",
"t.	c #723A1D",
"u.	c #693D19",
"v.	c #643E16",
"w.	c #613E1C",
"x.	c #5A462D",
"y.	c #545744",
"z.	c #44726B",
"A.	c #3D8A81",
"B.	c #339B94",
"C.	c #2CA5A5",
"D.	c #21ACB7",
"E.	c #229C87",
"F.	c #229D89",
"G.	c #229E8B",
"H.	c #229E8C",
"I.	c #219F8F",
"J.	c #239F90",
"K.	c #2D9C86",
"L.	c #22423C",
"M.	c #325248",
"N.	c #347C66",
"O.	c #42866E",
"P.	c #53725C",
"Q.	c #555D37",
"R.	c #654A29",
"S.	c #754322",
"T.	c #74461F",
"U.	c #714319",
"V.	c #704016",
"W.	c #704018",
"X.	c #65441F",
"Y.	c #5C4E31",
"Z.	c #526049",
"`.	c #457863",
" +	c #3D917A",
".+	c #229A80",
"++	c #239B82",
"@+	c #229B84",
"#+	c #229C86",
"$+	c #269B8E",
"%+	c #245046",
"&+	c #14200E",
"*+	c #242617",
"=+	c #344031",
"-+	c #3D614B",
";+	c #3C8564",
">+	c #4C856B",
",+	c #536F5B",
"'+	c #5F6B51",
")+	c #625939",
"!+	c #624020",
"~+	c #537654",
"{+	c #487E5F",
"]+	c #45836B",
"^+	c #428577",
"/+	c #3B8B83",
"(+	c #37948D",
"_+	c #239878",
":+	c #23987A",
"<+	c #23997D",
"[+	c #23997E",
"}+	c #239A80",
"|+	c #239B81",
"1+	c #1F9F7E",
"2+	c #23604D",
"3+	c #306553",
"4+	c #2B6652",
"5+	c #163724",
"6+	c #252714",
"7+	c #312C24",
"8+	c #454543",
"9+	c #437365",
"0+	c #389475",
"a+	c #336C50",
"b+	c #414B3C",
"c+	c #2F9B95",
"d+	c #23A29C",
"e+	c #24A39C",
"f+	c #26A19C",
"g+	c #24A39D",
"h+	c #1EA79E",
"i+	c #249672",
"j+	c #249774",
"k+	c #249776",
"l+	c #249878",
"m+	c #24987A",
"n+	c #25987C",
"o+	c #29977F",
"p+	c #316450",
"q+	c #286143",
"r+	c #409273",
"s+	c #458979",
"t+	c #466661",
"u+	c #3C311E",
"v+	c #231A0A",
"w+	c #2C2616",
"x+	c #3E3E2F",
"y+	c #353A2A",
"z+	c #425342",
"A+	c #2A9E90",
"B+	c #21A193",
"C+	c #25A192",
"D+	c #26A192",
"E+	c #1EA591",
"F+	c #13AC92",
"G+	c #24946C",
"H+	c #24946E",
"I+	c #259571",
"J+	c #249573",
"K+	c #249675",
"L+	c #239776",
"M+	c #1C9B77",
"N+	c #346850",
"O+	c #3D5239",
"P+	c #627D5E",
"Q+	c #546E4A",
"R+	c #3E522A",
"S+	c #50583A",
"T+	c #384225",
"U+	c #3E4328",
"V+	c #2B2D1C",
"W+	c #303122",
"X+	c #415444",
"Y+	c #338B79",
"Z+	c #2C9D87",
"`+	c #20A08A",
" @	c #21A090",
".@	c #259F94",
"+@	c #259F96",
"@@	c #259167",
"#@	c #259268",
"$@	c #25926A",
"%@	c #25936C",
"&@	c #25936F",
"*@	c #259471",
"=@	c #209871",
"-@	c #296B4C",
";@	c #3E3121",
">@	c #707253",
",@	c #7F8962",
"'@	c #7C7C55",
")@	c #656740",
"!@	c #474D26",
"~@	c #6C7649",
"{@	c #407F64",
"]@	c #1E3E2C",
"^@	c #3E604E",
"/@	c #2F7F65",
"(@	c #2A8A72",
"_@	c #289A86",
":@	c #219D8A",
"<@	c #219E8A",
"[@	c #249E88",
"}@	c #258F62",
"|@	c #269063",
"1@	c #259065",
"2@	c #259169",
"3@	c #24926B",
"4@	c #21936C",
"5@	c #2C7555",
"6@	c #242212",
"7@	c #383A1E",
"8@	c #424B28",
"9@	c #64623F",
"0@	c #5D653C",
"a@	c #596538",
"b@	c #576736",
"c@	c #357C5F",
"d@	c #1B3625",
"e@	c #38624C",
"f@	c #228461",
"g@	c #299777",
"h@	c #229A81",
"i@	c #1F9C85",
"j@	c #229B85",
"k@	c #279B83",
"l@	c #268D5B",
"m@	c #278E5D",
"n@	c #278E5F",
"o@	c #268F60",
"p@	c #268F63",
"q@	c #269065",
"r@	c #239068",
"s@	c #2F805D",
"t@	c #172C15",
"u@	c #363921",
"v@	c #4E5536",
"w@	c #615F40",
"x@	c #545F36",
"y@	c #6B784B",
"z@	c #5D6E3D",
"A@	c #34775B",
"B@	c #192317",
"C@	c #325B43",
"D@	c #258964",
"E@	c #299774",
"F@	c #229879",
"G@	c #219A7E",
"H@	c #24997E",
"I@	c #27997D",
"J@	c #278A53",
"K@	c #278B54",
"L@	c #278B56",
"M@	c #278C58",
"N@	c #278C5A",
"O@	c #278D5C",
"P@	c #268C5F",
"Q@	c #2C8A5E",
"R@	c #295A3A",
"S@	c #313720",
"T@	c #495134",
"U@	c #535033",
"V@	c #4D502B",
"W@	c #6B6D45",
"X@	c #505B2E",
"Y@	c #347257",
"Z@	c #1D1B13",
"`@	c #2B563D",
" #	c #328363",
".#	c #348F6E",
"+#	c #2B9271",
"@#	c #249674",
"##	c #229775",
"$#	c #229876",
"%#	c #27884C",
"&#	c #28894D",
"*#	c #278A50",
"=#	c #278A52",
"-#	c #278A54",
";#	c #288B56",
">#	c #288A56",
",#	c #258D59",
"'#	c #21693D",
")#	c #343B23",
"!#	c #5B5839",
"~#	c #5A5937",
"{#	c #726F4B",
"]#	c #5A683A",
"^#	c #2F7154",
"/#	c #201F15",
"(#	c #397453",
"_#	c #287C59",
":#	c #217B57",
"<#	c #298E67",
"[#	c #26936D",
"}#	c #24956F",
"|#	c #239670",
"1#	c #288647",
"2#	c #288748",
"3#	c #28874B",
"4#	c #28884D",
"5#	c #27894F",
"6#	c #288950",
"7#	c #298950",
"8#	c #1F8C51",
"9#	c #257D4A",
"0#	c #304124",
"a#	c #3B4A28",
"b#	c #565A38",
"c#	c #5B603E",
"d#	c #6A6F4A",
"e#	c #4A6837",
"f#	c #24714E",
"g#	c #1A2214",
"h#	c #2F8056",
"i#	c #278F64",
"j#	c #269064",
"k#	c #259266",
"l#	c #249268",
"m#	c #259269",
"n#	c #26926B",
"o#	c #288241",
"p#	c #298342",
"q#	c #298444",
"r#	c #288446",
"s#	c #288546",
"t#	c #288648",
"u#	c #2A8549",
"v#	c #27874B",
"w#	c #2F844D",
"x#	c #2E7A45",
"y#	c #317543",
"z#	c #326C3F",
"A#	c #3E7349",
"B#	c #298951",
"C#	c #25643E",
"D#	c #1E2B17",
"E#	c #2D8255",
"F#	c #268F5F",
"G#	c #269061",
"H#	c #259062",
"I#	c #259064",
"J#	c #269165",
"K#	c #28813B",
"L#	c #28813C",
"M#	c #28823E",
"N#	c #28833F",
"O#	c #288340",
"P#	c #298442",
"Q#	c #2A8345",
"R#	c #268747",
"S#	c #278547",
"T#	c #2C8449",
"U#	c #2F834B",
"V#	c #2F854D",
"W#	c #34834F",
"X#	c #228B51",
"Y#	c #277B49",
"Z#	c #205631",
"`#	c #2C8856",
" $	c #268C59",
".$	c #268C5B",
"+$	c #258E5D",
"@$	c #268E5F",
"#$	c #287F35",
"$$	c #298035",
"%$	c #288137",
"&$	c #288138",
"*$	c #28823A",
"=$	c #28823B",
"-$	c #2B813E",
";$	c #268541",
">$	c #268643",
",$	c #288544",
"'$	c #2A8646",
")$	c #228A47",
"!$	c #278648",
"~$	c #26884B",
"{$	c #23894C",
"]$	c #288850",
"^$	c #2B8751",
"/$	c #278952",
"($	c #268A54",
"_$	c #268B54",
":$	c #278B57",
"<$	c #268C58",
"[$	c #268D58",
"}$	c #297D2F",
"|$	c #287E30",
"1$	c #287E31",
"2$	c #287F33",
"3$	c #288034",
"4$	c #2A8038",
"5$	c #29813A",
"6$	c #27833C",
"7$	c #25833C",
"8$	c #25843D",
"9$	c #26843E",
"0$	c #22873F",
"a$	c #2C8244",
"b$	c #248746",
"c$	c #208948",
"d$	c #28864A",
"e$	c #27884D",
"f$	c #27894E",
"g$	c #278950",
"h$	c #278A51",
"i$	c #2A7C2D",
"j$	c #2A7D2E",
"k$	c #2A7D2F",
"l$	c #297C2F",
"m$	c #287D30",
"n$	c #297E32",
"o$	c #297F35",
"p$	c #288036",
"q$	c #278037",
"r$	c #27823A",
"s$	c #2A813B",
"t$	c #2A8240",
"u$	c #2A8242",
"v$	c #298344",
"w$	c #288545",
"x$	c #288749",
"y$	c #27884A",
"z$	c #2D7B2F",
"A$	c #2C7C2F",
"B$	c #2B7C2F",
"C$	c #2B7D31",
"D$	c #2A7C30",
"E$	c #297C30",
"F$	c #297D30",
"G$	c #2A7D30",
"H$	c #2A7D31",
"I$	c #2A7E33",
"J$	c #297E34",
"K$	c #287F36",
"L$	c #2A7F38",
"M$	c #258239",
"N$	c #2D7E3C",
"O$	c #317D3E",
"P$	c #22843F",
"Q$	c #27833F",
"R$	c #288341",
"S$	c #288441",
"T$	c #278646",
"  . + @ # $ % & * = - ; > , ' ) ! ~ { ] ^ / ( _ ",
": < [ } | 1 2 3 4 5 6 7 8 9 0 a b c d d ~ e f ^ ",
"g h i j k l m n o p q r s t u v w x y z A B C D ",
"E F G H I J K L M N O P Q R S T U V W X Y Z `  .",
"..+.@.#.$.%.&.*.=.-.;.>.,.'.n ).!.~.{.].^./.W (.",
"_.:.<.[.}.|.1.2.3.4.5.6.7.8.9.0.a.b.c.d.e.f.{.g.",
"h.i.j.k.l.m.n.o.p.q.r.s.t.u.v.w.x.y.z.A.B.C.m D.",
"E.F.G.H.I.J.K.L.M.N.O.P.Q.R.S.T.U.V.W.X.Y.Z.`. +",
".+++@+#+F.G.$+%+&+*+=+-+;+>+,+'+)+!+~+{+]+^+/+(+",
"_+:+<+[+}+|+1+2+3+4+5+6+7+8+9+0+a+b+c+d+e+f+g+h+",
"i+j+k+l+m+n+o+p+q+r+s+t+u+v+w+x+y+z+A+B+C+D+E+F+",
"G+H+I+J+K+L+M+N+O+P+Q+R+S+T+U+V+W+X+Y+Z+`+ @.@+@",
"@@#@$@%@&@*@=@-@;@>@,@'@)@!@~@{@]@^@/@(@_@:@<@[@",
"}@|@1@@@2@3@4@5@6@7@8@9@0@a@b@c@d@e@f@g@h@i@j@k@",
"l@m@n@o@p@q@r@s@t@u@v@w@x@y@z@A@B@C@D@E@F@G@H@I@",
"J@K@L@M@N@O@P@Q@R@S@T@U@V@W@X@Y@Z@`@ #.#+#@###$#",
"%#&#*#=#-#;#>#,#'#)#S+!#~#{#]#^#/#(#_#:#<#[#}#|#",
"1#2#3#4#5#6#7#8#9#0#a#b#c#d#e#f#g#h#i#j#k#l#m#n#",
"o#p#q#r#s#t#u#v#%#w#x#y#z#A#B#C#D#E#F#F#G#H#I#J#",
"K#L#M#N#O#P#Q#s#R#S#T#U#V#W#X#Y#Z#`# $.$l@+$@$F#",
"#$$$%$&$*$=$-$O#;$>$,$'$)$!$~${$]$^$/$($_$:$<$[$",
"}$}$|$1$2$3$4$5$6$7$8$9$0$;$a$b$c$T#d$v#e$f$g$h$",
"i$j$k$l$m$m$n$n$o$p$q$&$r$s$-$t$u$v$,$w$1#2#x$y$",
"z$A$B$C$D$E$F$G$C$H$I$J$K$L$M$N$O$P$Q$R$S$,$,$T$"};
