/* XPM */
static char *pisek_xpm[] = {
/* width height num_colors chars_per_pixel */
"    24    24      256            2",
/* colors */
"`` c #9c8a2c",
"`. c #ac9a34",
"`# c #aca24c",
"`a c #a4922c",
"`b c #b49e3c",
"`c c #ac962c",
"`d c #ac9a44",
"`e c #b4a244",
"`f c #a4963c",
"`g c #ac9e34",
"`h c #a4962c",
"`i c #b4a654",
"`j c #a48e2c",
"`k c #ac963c",
"`l c #b4a644",
"`m c #9c8e2c",
"`n c #ac9a3c",
"`o c #a49234",
"`p c #b49e44",
"`q c #ac9634",
"`r c #ac9e44",
"`s c #b4a24c",
"`t c #ac9e3c",
"`u c #a49634",
"`v c #000000",
"`w c #000000",
"`x c #000000",
"`y c #000000",
"`z c #000000",
"`A c #000000",
"`B c #000000",
"`C c #000000",
"`D c #000000",
"`E c #000000",
"`F c #000000",
"`G c #000000",
"`H c #000000",
"`I c #000000",
"`J c #000000",
"`K c #000000",
"`L c #000000",
"`M c #000000",
"`N c #000000",
"`O c #000000",
"`P c #000000",
"`Q c #000000",
"`R c #000000",
"`S c #000000",
"`T c #000000",
"`U c #000000",
"`V c #000000",
"`W c #000000",
"`X c #000000",
"`Y c #000000",
"`Z c #000000",
"`0 c #000000",
"`1 c #000000",
"`2 c #000000",
"`3 c #000000",
"`4 c #000000",
"`5 c #000000",
"`6 c #000000",
"`7 c #000000",
"`8 c #000000",
".` c #000000",
".. c #000000",
".# c #000000",
".a c #000000",
".b c #000000",
".c c #000000",
".d c #000000",
".e c #000000",
".f c #000000",
".g c #000000",
".h c #000000",
".i c #000000",
".j c #000000",
".k c #000000",
".l c #000000",
".m c #000000",
".n c #000000",
".o c #000000",
".p c #000000",
".q c #000000",
".r c #000000",
".s c #000000",
".t c #000000",
".u c #000000",
".v c #000000",
".w c #000000",
".x c #000000",
".y c #000000",
".z c #000000",
".A c #000000",
".B c #000000",
".C c #000000",
".D c #000000",
".E c #000000",
".F c #000000",
".G c #000000",
".H c #000000",
".I c #000000",
".J c #000000",
".K c #000000",
".L c #000000",
".M c #000000",
".N c #000000",
".O c #000000",
".P c #000000",
".Q c #000000",
".R c #000000",
".S c #000000",
".T c #000000",
".U c #000000",
".V c #000000",
".W c #000000",
".X c #000000",
".Y c #000000",
".Z c #000000",
".0 c #000000",
".1 c #000000",
".2 c #000000",
".3 c #000000",
".4 c #000000",
".5 c #000000",
".6 c #000000",
".7 c #000000",
".8 c #000000",
"#` c #000000",
"#. c #000000",
"## c #000000",
"#a c #000000",
"#b c #000000",
"#c c #000000",
"#d c #000000",
"#e c #000000",
"#f c #000000",
"#g c #000000",
"#h c #000000",
"#i c #000000",
"#j c #000000",
"#k c #000000",
"#l c #000000",
"#m c #000000",
"#n c #000000",
"#o c #000000",
"#p c #000000",
"#q c #000000",
"#r c #000000",
"#s c #000000",
"#t c #000000",
"#u c #000000",
"#v c #000000",
"#w c #000000",
"#x c #000000",
"#y c #000000",
"#z c #000000",
"#A c #000000",
"#B c #000000",
"#C c #000000",
"#D c #000000",
"#E c #000000",
"#F c #000000",
"#G c #000000",
"#H c #000000",
"#I c #000000",
"#J c #000000",
"#K c #000000",
"#L c #000000",
"#M c #000000",
"#N c #000000",
"#O c #000000",
"#P c #000000",
"#Q c #000000",
"#R c #000000",
"#S c #000000",
"#T c #000000",
"#U c #000000",
"#V c #000000",
"#W c #000000",
"#X c #000000",
"#Y c #000000",
"#Z c #000000",
"#0 c #000000",
"#1 c #000000",
"#2 c #000000",
"#3 c #000000",
"#4 c #000000",
"#5 c #000000",
"#6 c #000000",
"#7 c #000000",
"#8 c #000000",
"a` c #000000",
"a. c #000000",
"a# c #000000",
"aa c #000000",
"ab c #000000",
"ac c #000000",
"ad c #000000",
"ae c #000000",
"af c #000000",
"ag c #000000",
"ah c #000000",
"ai c #000000",
"aj c #000000",
"ak c #000000",
"al c #000000",
"am c #000000",
"an c #000000",
"ao c #000000",
"ap c #000000",
"aq c #000000",
"ar c #000000",
"as c #000000",
"at c #000000",
"au c #000000",
"av c #000000",
"aw c #000000",
"ax c #000000",
"ay c #000000",
"az c #000000",
"aA c #000000",
"aB c #000000",
"aC c #000000",
"aD c #000000",
"aE c #000000",
"aF c #000000",
"aG c #000000",
"aH c #000000",
"aI c #000000",
"aJ c #000000",
"aK c #000000",
"aL c #000000",
"aM c #000000",
"aN c #000000",
"aO c #000000",
"aP c #000000",
"aQ c #000000",
"aR c #000000",
"aS c #000000",
"aT c #000000",
"aU c #000000",
"aV c #000000",
"aW c #000000",
"aX c #000000",
"aY c #000000",
"aZ c #000000",
"a0 c #000000",
"a1 c #000000",
"a2 c #000000",
"a3 c #000000",
"a4 c #000000",
"a5 c #000000",
"a6 c #000000",
"a7 c #000000",
"a8 c #000000",
/* pixels */
"`s`r`k`b`e`e`r`r`r`n`n`n`k`p`l`n`r`r`n`t`n`t`e`i",
"`u`q`n`t`o`q`u`c`q`a`h`a`a`h`u`n`.`q`q`u`q`a`.`n",
"`r`q`.`a`u`.`u`m`q`.`u`u`c`.`j`j`o`t`u`u`q`u`a`n",
"`n`o`.`q`o`u`q`o`h`u`o`u`u`g`.`q`u`o`o`t`a`q`q`n",
"`f`o`q`u`o`.`m`o`a`q`a`u`q`j`u`n`u`a`.`t`q`a`.`p",
"`t`q`q`a`u`.`u`.`u`o`u`u`.`q`u`a`u`q`.`q`a`a`a`n",
"`d`u`.`a`u`o`u`q`g`u`o`n`q`n`n`u`a`o`a`o`q`.`q`n",
"`r`m`q`q`u`a`u`a`u`u`a`q`a`a`u`u`u`q`u`u`u`.`.`f",
"`n`u`u`o`q`a`q`u`u`t`o`q`.`.`a`u`u`o`q`.`o`u`u`r",
"`f`q`q`a`m`u`o`o`o`o`o`a`a`q`.`u`o`u`q`.`u`a`n`s",
"`r`u`u`u`m`m`.`u`u`a`u`q`q`u`.`.`j`q`q`q`u`a`h`e",
"`n`u`u`o`u`a`.`u`q`m`a`u`.`o`u`o`q`a`q`m`o`a`.`r",
"`k`q`o`u`a`q`u`u`u`u```u`.`u`a`n`t`u`.`.`q`a`u`d",
"`n`n`u`q`q`o`a`u`u`a`u`u`u`a`a`q`n`m`a`o`.`q`o`f",
"`e`n`n`q`a`u`.`u`o`u`o`q`u`n`a`n`u`h`u`u`u`.`q`n",
"`s`.`u`a`a`u`u`q`u`.`u`a`j`.`u`j`o`n`u`u`u`o`a`n",
"`n`.`a`o`q`o`u`u`u`a`j`h`a`q`u`j`h`.`u`j`q`n`.`n",
"`p`.`u`o`q`c`a`u`a`u`u`u`.`o```u`o`q`o`h`h`t`t`d",
"`r`o`u`o`o`u`q`a`k`.`q`a`o`u`o`h`q`a`n`u`u`n`.`n",
"`r`a`o`q`u`u`a`j`q`.`j`q`a`.`u`j`a`m`u`n`a`q`q`f",
"`n`q`a`q`q`j`a`a`q`u`o`c`q`j`m`j`c`h`u`o`j`n`q`r",
"`d`u`u`a`q`u`o`q`.`u`u`u`u`u`a`q`o`q`q`m`h`u`o`r",
"`r`u`u`n`a`u`q`q`u`a`a`o`o`u`o`u`u`o`u`u`u`q`a`r",
"`#`r`n`f`r`t`t`r`n`r`n`e`k`n`f`n`e`r`n`r`d`e`n`s"
};
