/* XPM */
static char *hlina_xpm[] = {
/* width height num_colors chars_per_pixel */
"    24    24      256            2",
/* colors */
"`` c #6f5a46",
"`. c #5f4a36",
"`# c #5f4b36",
"`a c #64503a",
"`b c #614d37",
"`c c #624e39",
"`d c #68503a",
"`e c #66503a",
"`f c #6c563f",
"`g c #624d37",
"`h c #654f39",
"`i c #69543e",
"`j c #65503a",
"`k c #624d38",
"`l c #614c38",
"`m c #5b4835",
"`n c #5b4834",
"`o c #604b36",
"`p c #5f4c37",
"`q c #68513c",
"`r c #685542",
"`s c #604a35",
"`t c #58402a",
"`u c #56402a",
"`v c #5f462f",
"`w c #574029",
"`x c #58422b",
"`y c #5d452d",
"`z c #5a432c",
"`A c #5e4730",
"`B c #513c27",
"`C c #58412b",
"`D c #543e28",
"`E c #57402a",
"`F c #533e28",
"`G c #5b432d",
"`H c #5a412c",
"`I c #563e29",
"`J c #59422b",
"`K c #5c4732",
"`L c #5e4935",
"`M c #523c26",
"`N c #5c432c",
"`O c #59422a",
"`P c #573f29",
"`Q c #57412b",
"`R c #5a432b",
"`S c #58412a",
"`T c #4f3a26",
"`U c #5d442e",
"`V c #533d27",
"`W c #553f2a",
"`X c #5a422b",
"`Y c #5d442c",
"`Z c #533d28",
"`0 c #5b422c",
"`1 c #554029",
"`2 c #553d28",
"`3 c #5a4634",
"`4 c #644f39",
"`5 c #543d28",
"`6 c #5c442d",
"`7 c #5a422c",
"`8 c #563f2a",
".` c #553f29",
".. c #553f28",
".# c #533c27",
".a c #5a412b",
".b c #513b27",
".c c #523d27",
".d c #5c442c",
".e c #543e29",
".f c #66503c",
".g c #5d4935",
".h c #5b432c",
".i c #503b26",
".j c #573f2a",
".k c #564029",
".l c #624930",
".m c #523d28",
".n c #5b442c",
".o c #563f29",
".p c #533d29",
".q c #57412a",
".r c #5d442d",
".s c #644f3a",
".t c #59422d",
".u c #5a442d",
".v c #543c28",
".w c #4f3a25",
".x c #523c27",
".y c #5c452e",
".z c #62492f",
".A c #533e29",
".B c #664f39",
".C c #5e452e",
".D c #5a432d",
".E c #5e462e",
".F c #654e39",
".G c #503b27",
".H c #59412b",
".I c #5c442e",
".J c #5b442e",
".K c #543f29",
".L c #59432b",
".M c #60462e",
".N c #59412c",
".O c #5a412a",
".P c #5c462e",
".Q c #553e29",
".R c #503c27",
".S c #614d38",
".T c #5b442d",
".U c #5d432d",
".V c #644e39",
".W c #5c432d",
".X c #59422c",
".Y c #5c462d",
".Z c #553e28",
".0 c #5a442c",
".1 c #60472e",
".2 c #5c442b",
".3 c #5e462d",
".4 c #69513b",
".5 c #5c452d",
".6 c #5f462e",
".7 c #5b432b",
".8 c #604c38",
"#` c #66503b",
"#. c #55402a",
"## c #5f442e",
"#a c #5c4835",
"#b c #624e38",
"#c c #60442d",
"#d c #62472f",
"#e c #513d27",
"#f c #533c28",
"#g c #58412c",
"#h c #4b3823",
"#i c #523c28",
"#j c #634f38",
"#k c #5e452d",
"#l c #61452f",
"#m c #563f28",
"#n c #59402a",
"#o c #513b26",
"#p c #60482f",
"#q c #57402b",
"#r c #4f3b26",
"#s c #604d36",
"#t c #5e432d",
"#u c #4e3a26",
"#v c #543d29",
"#w c #58422c",
"#x c #634e38",
"#y c #61472f",
"#z c #58402b",
"#A c #543c27",
"#B c #5d462d",
"#C c #5d452f",
"#D c #57422a",
"#E c #5d452e",
"#F c #68513b",
"#G c #5e4835",
"#H c #4e3925",
"#I c #543e27",
"#J c #5f482f",
"#K c #6c543d",
"#L c #634d38",
"#M c #614c37",
"#N c #614830",
"#O c #584129",
"#P c #583f29",
"#Q c #59432c",
"#R c #5b412c",
"#S c #604c37",
"#T c #5e452f",
"#U c #614b36",
"#V c #5d462f",
"#W c #5e442e",
"#X c #624a32",
"#Y c #563e28",
"#Z c #5a422d",
"#0 c #634e37",
"#1 c #715c47",
"#2 c #644e3a",
"#3 c #6a533c",
"#4 c #5c4934",
"#5 c #634e39",
"#6 c #654f3a",
"#7 c #67523d",
"#8 c #5e4936",
"a` c #67503b",
"a. c #604a36",
"a# c #604b37",
"aa c #65503b",
"ab c #6c553d",
"ac c #624c37",
"ad c #000000",
"ae c #000000",
"af c #000000",
"ag c #000000",
"ah c #000000",
"ai c #000000",
"aj c #000000",
"ak c #000000",
"al c #000000",
"am c #000000",
"an c #000000",
"ao c #000000",
"ap c #000000",
"aq c #000000",
"ar c #000000",
"as c #000000",
"at c #000000",
"au c #000000",
"av c #000000",
"aw c #000000",
"ax c #000000",
"ay c #000000",
"az c #000000",
"aA c #000000",
"aB c #000000",
"aC c #000000",
"aD c #000000",
"aE c #000000",
"aF c #000000",
"aG c #000000",
"aH c #000000",
"aI c #000000",
"aJ c #000000",
"aK c #000000",
"aL c #000000",
"aM c #000000",
"aN c #000000",
"aO c #000000",
"aP c #000000",
"aQ c #000000",
"aR c #000000",
"aS c #000000",
"aT c #000000",
"aU c #000000",
"aV c #000000",
"aW c #000000",
"aX c #000000",
"aY c #000000",
"aZ c #000000",
"a0 c #000000",
"a1 c #000000",
"a2 c #000000",
"a3 c #000000",
"a4 c #000000",
"a5 c #000000",
"a6 c #000000",
"a7 c #000000",
"a8 c #000000",
/* pixels */
"```.`#`a`b`c`d`e`f`b`g`h`i`j`k`l`m`n`#`e`o`p`q`r",
"`s`t`u`v`w`x`y`z`A`u`B`C`z`u`D`E`F`G`H`B`w`I`J`K",
"`L`M`N`y`O`P`E`Q`R`S`T`U`N`V`W`X`Y`W`Z`0`1`F`2`3",
"`4`5`X`E`6`S`7`G`G`z`8.`...#`y.a`V.b.c.d.e.``7.f",
".g.h`B.i`E.j.k`5`C.l`Z`Z.m`Z.n.o.p`5.i`D.q.r`C.s",
"`e.t`t`J.u`8.v.w`D`E.e`0.a.x.i`x`I.h.y.n.z`t.A.B",
"`o.w`V.C.D`Z`E`u.``V`C`F.k`t.o.o`V`S`J.E`y.#`7.F",
"`..x.G`C.H`X.I.J`6.q.`.x.c.K.A`5`T`B.L.z.o.o.M`g",
"`..N.L`z.r.O.o`J.E`u.x`w.h.e`u`G.P`J`D.`.Q.x.R.S",
"`h.T`u...h`5`Z.T`F`C.j.G`D`R.U.q`u.A.H`F.K`Z`Z.V",
".V.W.X.Y.T.Z.m.h.0`X`P`x`x.1`I.e.2.d.X`C.3.n`C.4",
"`l`E`J.h.e`Z`6.y.5.o`V.6.z.7`I.r.o.i`Z.T.z`t.x.8",
"#`#.`D##`S`Z.``J`t`Z`Z`x`S.X.I.I`E`u.m`V`X.j.##a",
"#b`D.##c#d.n#e.H.r#f.Q`E.6.j#g.n.6`1.X`C#h.m#i#j",
".g`S.q#k#l`y#m.Z#n`Z.X`E.`#o`F#p#k.Z`D#q#r`E`u#s",
"`L#k.k.w#t.a.x`E`X`C`6.H.x#u`5.c#e#v`T.q.o.q#w.8",
"#x`6`J`P#y#z`P.#.r#A.Q.u#B`C#C.i.i`F`1#D`C#E.K`l",
".V.N`z.6`C.H.h.#.H.o`x.C.Z.h.D.q.R.x`7`J.H`7.k#F",
"#G.Q`z`S.h.o`5#H.c#I`X`6`z`U`S.d.R`C`6.h`5`F#J#K",
"`.`Q`6.#`N.x`8.u.q`D.H`E#E`7`D.1.r.T`G`t`V`B`F#L",
"#M.o.Q.x.q.k.0#N.n`S.m`S#O`R.i`J#P`Z#Q.e`Z#R.j`#",
"#S`Z`2.R`B.m`7`J`X`I.`#T.k.z`0.A.o.I`Q.Q.``7`J#`",
"#U`E`6#V`J`E.``S#W#m`E#X`S.o#Y`X.h.D.o`J`N#Z`z#0",
"#1.F#2#x#3`p#a#4#5`.#6#7.S#8`ka`a.a#aaabac`.`j#1"
};
