/* XPM */
static char *trava-tmava_xpm[] = {
/* width height num_colors chars_per_pixel */
"    24    24      256            2",
/* colors */
"`` c #003a00",
"`. c #006200",
"`# c #007600",
"`a c #1c6a14",
"`b c #004e00",
"`c c #006e00",
"`d c #005a00",
"`e c #14620c",
"`f c #147614",
"`g c #006a00",
"`h c #146e14",
"`i c #145a14",
"`j c #004600",
"`k c #145214",
"`l c #1c7e14",
"`m c #0c6200",
"`n c #1c7214",
"`o c #0c6e00",
"`p c #0c5a0c",
"`q c #146a14",
"`r c #004200",
"`s c #246e24",
"`t c #005600",
"`u c #146614",
"`v c #1c7614",
"`w c #003e00",
"`x c #006600",
"`y c #0c7600",
"`z c #1c6e14",
"`A c #005200",
"`B c #007200",
"`C c #005e00",
"`D c #146214",
"`E c #0c6a00",
"`F c #147214",
"`G c #145e14",
"`H c #004a00",
"`I c #145614",
"`J c #1c8214",
"`K c #0c6600",
"`L c #0c7200",
"`M c #0c5e00",
"`N c #1c7a14",
"`O c #000000",
"`P c #000000",
"`Q c #000000",
"`R c #000000",
"`S c #000000",
"`T c #000000",
"`U c #000000",
"`V c #000000",
"`W c #000000",
"`X c #000000",
"`Y c #000000",
"`Z c #000000",
"`0 c #000000",
"`1 c #000000",
"`2 c #000000",
"`3 c #000000",
"`4 c #000000",
"`5 c #000000",
"`6 c #000000",
"`7 c #000000",
"`8 c #000000",
".` c #000000",
".. c #000000",
".# c #000000",
".a c #000000",
".b c #000000",
".c c #000000",
".d c #000000",
".e c #000000",
".f c #000000",
".g c #000000",
".h c #000000",
".i c #000000",
".j c #000000",
".k c #000000",
".l c #000000",
".m c #000000",
".n c #000000",
".o c #000000",
".p c #000000",
".q c #000000",
".r c #000000",
".s c #000000",
".t c #000000",
".u c #000000",
".v c #000000",
".w c #000000",
".x c #000000",
".y c #000000",
".z c #000000",
".A c #000000",
".B c #000000",
".C c #000000",
".D c #000000",
".E c #000000",
".F c #000000",
".G c #000000",
".H c #000000",
".I c #000000",
".J c #000000",
".K c #000000",
".L c #000000",
".M c #000000",
".N c #000000",
".O c #000000",
".P c #000000",
".Q c #000000",
".R c #000000",
".S c #000000",
".T c #000000",
".U c #000000",
".V c #000000",
".W c #000000",
".X c #000000",
".Y c #000000",
".Z c #000000",
".0 c #000000",
".1 c #000000",
".2 c #000000",
".3 c #000000",
".4 c #000000",
".5 c #000000",
".6 c #000000",
".7 c #000000",
".8 c #000000",
"#` c #000000",
"#. c #000000",
"## c #000000",
"#a c #000000",
"#b c #000000",
"#c c #000000",
"#d c #000000",
"#e c #000000",
"#f c #000000",
"#g c #000000",
"#h c #000000",
"#i c #000000",
"#j c #000000",
"#k c #000000",
"#l c #000000",
"#m c #000000",
"#n c #000000",
"#o c #000000",
"#p c #000000",
"#q c #000000",
"#r c #000000",
"#s c #000000",
"#t c #000000",
"#u c #000000",
"#v c #000000",
"#w c #000000",
"#x c #000000",
"#y c #000000",
"#z c #000000",
"#A c #000000",
"#B c #000000",
"#C c #000000",
"#D c #000000",
"#E c #000000",
"#F c #000000",
"#G c #000000",
"#H c #000000",
"#I c #000000",
"#J c #000000",
"#K c #000000",
"#L c #000000",
"#M c #000000",
"#N c #000000",
"#O c #000000",
"#P c #000000",
"#Q c #000000",
"#R c #000000",
"#S c #000000",
"#T c #000000",
"#U c #000000",
"#V c #000000",
"#W c #000000",
"#X c #000000",
"#Y c #000000",
"#Z c #000000",
"#0 c #000000",
"#1 c #000000",
"#2 c #000000",
"#3 c #000000",
"#4 c #000000",
"#5 c #000000",
"#6 c #000000",
"#7 c #000000",
"#8 c #000000",
"a` c #000000",
"a. c #000000",
"a# c #000000",
"aa c #000000",
"ab c #000000",
"ac c #000000",
"ad c #000000",
"ae c #000000",
"af c #000000",
"ag c #000000",
"ah c #000000",
"ai c #000000",
"aj c #000000",
"ak c #000000",
"al c #000000",
"am c #000000",
"an c #000000",
"ao c #000000",
"ap c #000000",
"aq c #000000",
"ar c #000000",
"as c #000000",
"at c #000000",
"au c #000000",
"av c #000000",
"aw c #000000",
"ax c #000000",
"ay c #000000",
"az c #000000",
"aA c #000000",
"aB c #000000",
"aC c #000000",
"aD c #000000",
"aE c #000000",
"aF c #000000",
"aG c #000000",
"aH c #000000",
"aI c #000000",
"aJ c #000000",
"aK c #000000",
"aL c #000000",
"aM c #000000",
"aN c #000000",
"aO c #000000",
"aP c #000000",
"aQ c #000000",
"aR c #000000",
"aS c #000000",
"aT c #000000",
"aU c #000000",
"aV c #000000",
"aW c #000000",
"aX c #000000",
"aY c #000000",
"aZ c #000000",
"a0 c #000000",
"a1 c #000000",
"a2 c #000000",
"a3 c #000000",
"a4 c #000000",
"a5 c #000000",
"a6 c #000000",
"a7 c #000000",
"a8 c #000000",
/* pixels */
"`s`q`F`h`i`k`G`G`u`D`f`i`G`F`D`G`D`u`F`h`u`G`I`s",
"`p`d`x`t`A`H`b`c`x`x`b`A`j`j```j`d`t`.`C`b`H`H`q",
"`u`B`x`.`C`x`A`C`A`d`H`A`H`A`H`j`t`E`x`.`C`H`C`v",
"`k`d`g`x`C`C`t`b`b`r`A`A`d`.`d`t`C`t`x`B`g`t`d`I",
"`i`w`H`d`t`r`H`r`.`d`g`d`C`.`b`b`t`H`w`H`d`A`t`i",
"`G`x`.`d`b`H`r`t`c`C`d`A`C`H`C`C`C`.`A`C`.`t`t`i",
"`G`x`C`g`.`t`j`t`d`C`H`C`.`t`C`x`A`.`x`.`x`d`t`h",
"`i`.`t`t`d`A`A`t`g`c`C`d`t`C`A`w`H`C`C`d`d`A`A`v",
"`i`d`x`A`A`d`C`t`A`C`.`j`.`y`.`b`A`.`x`.`t`A`.`N",
"`u`t`B`m`C`.`.`A`r`r`j`C`c`o`A`A`A`A`C`.`A`j`C`a",
"`G`j`A`g`o`x`.`C`A`A`x`A`x`H`H`H`b`C`x`C```b`C`a",
"`G`A`H`c`t`d`K`C`x`A`t`H`b`g`d`H`t`d`d`d`x`g`B`v",
"`z`C`r`A`A`t`A`A`C`d`t`t`.`c`H`H`H`.`#`.`g`x`d`q",
"`D`C`H`r`A`A`.`.`t`t`A`A`t`t`x`x`.`d`b`t`d`A`C`i",
"`I`b`b`w`w`H`C`g`H`H`H`d`C`.`C`.`.`A`r`r`t`E`g`N",
"`D`H`r`r`b`A`d`t`t`L`.`d`A`H`H`A`C`A`b`H`g`.`C`a",
"`h`t`b`A`b`t`b`b`C`x`C`C`.`A`t`C`d`t`.`E`x`d`A`z",
"`a`C`x`r`H`H`d`L`b`t`x`.`.`A`H`j`C`d`M`x`.`C`A`u",
"`D`x`C`x`A`d`C`.`t`t`g`d`A`b`A`d`B`C`A`x`C`t`.`D",
"`z`C`.`g`o`K`c`b`b`A`t`A`C`x`C`H`r`g`.`.`x`C`C`h",
"`F`.`C`.`d`.`d`b`t`H`d`t`.`x`.`A`b`E`g`g`d`C`o`h",
"`z`x`.`d`H`d`A`t`b`C`g`.`t`t`.`c`.`x`L`x`A`t`d`G",
"`e`b`d`A`r`H`b`g`.`B`.`j`t`x`A`d`x`d`C`t`b`H`r`I",
"`s`D`h`q`D`G`u`F`n`u`I`l`J`v`a`D`D`D`h`q`G`I`k`s"
};
