/* XPM */
static char *trava_xpm[] = {
/* width height num_colors chars_per_pixel */
"    24    24      256            2",
/* colors */
"`` c #146200",
"`. c #248200",
"`# c #1c7200",
"`a c #3c8214",
"`b c #2c7600",
"`c c #2c8a00",
"`d c #3c921c",
"`e c #1c7a00",
"`f c #2c7a00",
"`g c #34820c",
"`h c #3c8a14",
"`i c #2c7a14",
"`j c #146a00",
"`k c #3c8a24",
"`l c #2c821c",
"`m c #247200",
"`n c #348a1c",
"`o c #2c8200",
"`p c #247a00",
"`q c #348a0c",
"`r c #34821c",
"`s c #448a1c",
"`t c #347a14",
"`u c #247a14",
"`v c #2c7214",
"`w c #4c9a24",
"`x c #246e00",
"`y c #247614",
"`z c #1c6200",
"`A c #2c8e00",
"`B c #3c9a1c",
"`C c #2c7e00",
"`D c #34860c",
"`E c #3c8e14",
"`F c #1c6a00",
"`G c #247600",
"`H c #2c8600",
"`I c #247e00",
"`J c #248600",
"`K c #1c7600",
"`L c #44921c",
"`M c #2c7e14",
"`N c #448a24",
"`O c #347e14",
"`P c #2c7614",
"`Q c #146600",
"`R c #24820c",
"`S c #1c720c",
"`T c #3c861c",
"`U c #2c760c",
"`V c #2c8a0c",
"`W c #2c7a0c",
"`X c #348214",
"`Y c #3c8a1c",
"`Z c #146e00",
"`0 c #24720c",
"`1 c #348e14",
"`2 c #2c820c",
"`3 c #247a0c",
"`4 c #348e0c",
"`5 c #34861c",
"`6 c #448e1c",
"`7 c #247e14",
"`8 c #1c6600",
".` c #2c8e0c",
".. c #2c7e0c",
".# c #348614",
".a c #3c8e1c",
".b c #1c6e00",
".c c #24760c",
".d c #2c860c",
".e c #247e0c",
".f c #449224",
".g c #2c7e1c",
".h c #448a2c",
".i c #347e1c",
".j c #2c761c",
".k c #000000",
".l c #000000",
".m c #000000",
".n c #000000",
".o c #000000",
".p c #000000",
".q c #000000",
".r c #000000",
".s c #000000",
".t c #000000",
".u c #000000",
".v c #000000",
".w c #000000",
".x c #000000",
".y c #000000",
".z c #000000",
".A c #000000",
".B c #000000",
".C c #000000",
".D c #000000",
".E c #000000",
".F c #000000",
".G c #000000",
".H c #000000",
".I c #000000",
".J c #000000",
".K c #000000",
".L c #000000",
".M c #000000",
".N c #000000",
".O c #000000",
".P c #000000",
".Q c #000000",
".R c #000000",
".S c #000000",
".T c #000000",
".U c #000000",
".V c #000000",
".W c #000000",
".X c #000000",
".Y c #000000",
".Z c #000000",
".0 c #000000",
".1 c #000000",
".2 c #000000",
".3 c #000000",
".4 c #000000",
".5 c #000000",
".6 c #000000",
".7 c #000000",
".8 c #000000",
"#` c #000000",
"#. c #000000",
"## c #000000",
"#a c #000000",
"#b c #000000",
"#c c #000000",
"#d c #000000",
"#e c #000000",
"#f c #000000",
"#g c #000000",
"#h c #000000",
"#i c #000000",
"#j c #000000",
"#k c #000000",
"#l c #000000",
"#m c #000000",
"#n c #000000",
"#o c #000000",
"#p c #000000",
"#q c #000000",
"#r c #000000",
"#s c #000000",
"#t c #000000",
"#u c #000000",
"#v c #000000",
"#w c #000000",
"#x c #000000",
"#y c #000000",
"#z c #000000",
"#A c #000000",
"#B c #000000",
"#C c #000000",
"#D c #000000",
"#E c #000000",
"#F c #000000",
"#G c #000000",
"#H c #000000",
"#I c #000000",
"#J c #000000",
"#K c #000000",
"#L c #000000",
"#M c #000000",
"#N c #000000",
"#O c #000000",
"#P c #000000",
"#Q c #000000",
"#R c #000000",
"#S c #000000",
"#T c #000000",
"#U c #000000",
"#V c #000000",
"#W c #000000",
"#X c #000000",
"#Y c #000000",
"#Z c #000000",
"#0 c #000000",
"#1 c #000000",
"#2 c #000000",
"#3 c #000000",
"#4 c #000000",
"#5 c #000000",
"#6 c #000000",
"#7 c #000000",
"#8 c #000000",
"a` c #000000",
"a. c #000000",
"a# c #000000",
"aa c #000000",
"ab c #000000",
"ac c #000000",
"ad c #000000",
"ae c #000000",
"af c #000000",
"ag c #000000",
"ah c #000000",
"ai c #000000",
"aj c #000000",
"ak c #000000",
"al c #000000",
"am c #000000",
"an c #000000",
"ao c #000000",
"ap c #000000",
"aq c #000000",
"ar c #000000",
"as c #000000",
"at c #000000",
"au c #000000",
"av c #000000",
"aw c #000000",
"ax c #000000",
"ay c #000000",
"az c #000000",
"aA c #000000",
"aB c #000000",
"aC c #000000",
"aD c #000000",
"aE c #000000",
"aF c #000000",
"aG c #000000",
"aH c #000000",
"aI c #000000",
"aJ c #000000",
"aK c #000000",
"aL c #000000",
"aM c #000000",
"aN c #000000",
"aO c #000000",
"aP c #000000",
"aQ c #000000",
"aR c #000000",
"aS c #000000",
"aT c #000000",
"aU c #000000",
"aV c #000000",
"aW c #000000",
"aX c #000000",
"aY c #000000",
"aZ c #000000",
"a0 c #000000",
"a1 c #000000",
"a2 c #000000",
"a3 c #000000",
"a4 c #000000",
"a5 c #000000",
"a6 c #000000",
"a7 c #000000",
"a8 c #000000",
/* pixels */
"`k`n.a`Y`i`P.g`M`r`r`d`u`7`1`X.i`O`5.a`Y`5`M`P`k",
"`i`3`2`G`#.b`#`c`o.d`#.c`j`F```F`p`3`I..`#.b.b.#",
"`a`4.d`C`p`2`#`I`K`p.b`m.b`G.b`F`G`D`o`o..`Z`I`6",
"`v`p`H`H.e..`G`#`m`8`K`K`W`2`p`G`C`p`2`4.d`G`p`P",
"`t``.b`W`3`F.b`F`C`p`J`p`C..`m`x`G.b`z.b`p`m.c`P",
"`O.#`2`p`#.b`8`p`V.e`3`G...b`C`C.e`2`G..`2`G`f`i",
"`O`2.e.d`2`G`F.c`p...b`I`o`G`I.d`G..`o`o`2`p.c`Y",
"`i`R`G`p`p`G`m.c`J`q.e`p`G`C`0`Q.b`I`I`3`p.c`#`L",
"`i`e.d`m`m`f.e`K`K..`2`F`2`4`2.b`m..`H`2`f.c`C.f",
"`5`G`4`g..`2..`K`Q`Q`F`I`V`q.c`m`G`m`C`o`G`F..`5",
"`M`F`K`D`q`D`o`C`m.c`2`#`D.b.b.b`#`C`2..`z`#`I`T",
"`O`G.b`c`p`f`D`C`H`G`G.b.b`c`p.b.c`3`p`f`o`J`A`L",
"`s`I`Q`G`m`K`K`#`I`f`U`3`.`q.b.b.b`2.``.`J`2`f`T",
"`r`C.b`F`G`G`2`2`p`G`#`0`G`3`o.d`2`p`#`G`3`m..`i",
".j`S`#`Q`Q`x.e`V.b.b.b`3`C`2`I`2`o`#`8`Q.c.d`V`d",
"`X.b`Q`Q.b`#`p`p.c`E`C`p`G.b.b`m`I`#`x.b.d`...`T",
"`h`p`#`G`#`G`#`x...d..`C`o`G.c.e`I`e`o`D`H`e`#`Y",
"`Y`C`2`j.b`x`p`4`m.c`2`2`2`K.b`j`I`p...d`o`I`0`r",
"`X`2`C`g`0`f`I`o`b`G.d`3`G`#`G`p.``I`#`2`I`G..`l",
"`Y..`o`H`q`D`V`#.b`K`G`0..`2`I.b`Q.d`I`o`H`I`I`n",
".a`2`I`2`p`.`p`#.c.b`p`G`2.d`o`K`m`D`q`V`p`3`q`n",
"`Y.d`2`p.b`p`#`G`m`I`c`2`3`p`2`q`2.d`4.d`G`G`p`i",
"`O`#`p`K`Q.b.b.d`I.``C`F.c`g`G`3`2`p`I`K`#.b`Q`v",
".h`X`Y.#`X.i`X`1.a`5`P`B`w`6`Y.g`X`X`Y`Y`O`P`y`N"
};
