/* XPM */
static char *tovarna_xpm[] = {
/* width height ncolors chars_per_pixel */
"24 24 574 2",
/* colors */
"   c #339763",
" . c #A8A191",
" X c #698974",
" o c #46694B",
" O c #227B4F",
" + c #338B63",
" @ c #18887A",
" # c #6BA283",
" $ c #776557",
" % c #6D9885",
" & c #4C653D",
" * c #29B19B",
" = c #1DB1A3",
" - c #23B6CA",
" ; c #2F4A3B",
" : c #447560",
" > c #298D59",
" , c #120401",
" < c #3B3B3D",
" 1 c #A8AC9E",
" 2 c #558174",
" 3 c #3E6143",
" 4 c #3D9370",
" 5 c #070900",
" 6 c #3CB3B1",
" 7 c #110000",
" 8 c #372C18",
" 9 c #1A9254",
" 0 c #5A9486",
" q c #39725F",
" w c #218D51",
" e c #63624D",
" r c #6D5B4D",
" t c #545D5C",
" y c #1BAEC2",
" u c #30231B",
" i c #958E88",
" p c #399D83",
" a c #82B596",
" s c #19959F",
" d c #32A9A7",
" f c #37A077",
" g c #9CB6A9",
" h c #25A5AE",
" j c #378460",
" k c #AD9B85",
" l c #343122",
" z c #1E474B",
" x c #29B1C9",
" c c #26B5C6",
" v c #5A593A",
" b c #231B0E",
" n c #382C1C",
" m c #554B49",
" M c #278064",
" N c #1A9457",
" B c #00201D",
" V c #58737A",
" C c #0E0000",
" Z c #64AC96",
" A c #204939",
" S c #23ABC3",
" D c #169053",
" F c #41A8AF",
" G c #258A4E",
" H c #474C45",
" J c #5B5D52",
" K c #7F9A89",
" L c #132E1F",
" P c #309166",
" I c #002009",
" U c #4D6D44",
" Y c #7E9688",
" T c #2F3A2A",
" R c #1DA5BD",
" E c #17ABB7",
" W c #557A59",
" Q c #4A9F9A",
" ! c #075B4B",
" ~ c #328593",
" ^ c #20A5AC",
" / c #396544",
" ( c #288D89",
" ) c #745E50",
" _ c #1C9F7D",
" ` c #71624D",
" ' c #6B7968",
" ] c #76AB8D",
" [ c #318353",
" { c #398F72",
" } c #179482",
" | c #17B2C4",
".  c #249F9C",
".. c #212C1C",
".X c #57473A",
".o c #5A624A",
".O c #21772C",
".+ c #3E3828",
".@ c #407644",
".# c #108C50",
".$ c #5F5F45",
".% c #104636",
".& c #20613F",
".* c #849187",
".= c #675843",
".- c #6C8276",
".; c #318C60",
".: c #1EBECE",
".> c #36763A",
"., c #28B6C4",
".< c #539A88",
".1 c #1AAC9F",
".2 c #3C7161",
".3 c #264F31",
".4 c #32996E",
".5 c #57816B",
".6 c #18B0C8",
".7 c #0F6C4F",
".8 c #A28F80",
".9 c #838172",
".0 c #27ADB9",
".q c #1F5E4B",
".w c #423525",
".e c #073123",
".r c #28BDD1",
".t c #404F3A",
".y c #248349",
".u c #B9AAA7",
".i c #403323",
".p c #24BDCD",
".a c #2EA3AC",
".s c #1E9464",
".d c #354E39",
".f c #918C79",
".g c #22BBCB",
".h c #594E4C",
".j c #2AB0C9",
".k c #17B8CA",
".l c #43544A",
".z c #4B9097",
".x c #1CB1C5",
".c c #617D64",
".v c #352518",
".b c #1FAEBE",
".n c #4F957D",
".m c #294723",
".M c #359160",
".N c #17370E",
".B c #111305",
".V c #514A30",
".C c #463022",
".Z c #1EA4BD",
".A c #1DB8A8",
".S c #150B09",
".D c #486748",
".F c #393029",
".G c #0FB4AE",
".H c #3C733C",
".J c #2E8038",
".K c #2F321F",
".L c #299DAA",
".P c #362D1C",
".I c #496535",
".U c #288D53",
".Y c #366D36",
".T c #13AE9E",
".R c #2599A6",
".E c #28ADC0",
".W c #376737",
".Q c #448372",
".! c #489E83",
".~ c #9FA79A",
".^ c #27BFD6",
"./ c #516A4A",
".( c #363E29",
".) c #327F49",
"._ c #308147",
".` c #289995",
".' c #1DA8BF",
".] c #18ACBA",
".[ c #60A68A",
".{ c #1BA6BD",
".} c #5B594A",
".| c #568A7D",
"X  c #3D6354",
"X. c #436250",
"XX c #1E5E3C",
"Xo c #83977B",
"XO c #2A625F",
"X+ c #0D291B",
"X@ c #2AA3AE",
"X# c #9F9890",
"X$ c #40AEBD",
"X% c #5E5043",
"X& c #4C929E",
"X* c #5F8F93",
"X= c #3B301A",
"X- c #3C9277",
"X; c #6C694A",
"X: c #725F50",
"X> c #372920",
"X, c #26A4A0",
"X< c #288956",
"X1 c #208C58",
"X2 c #372C16",
"X3 c #288556",
"X4 c #4F744B",
"X5 c #193B16",
"X6 c #8B7F6F",
"X7 c #312A10",
"X8 c #514340",
"X9 c #3DA1B0",
"X0 c #2C7A50",
"Xq c #36362C",
"Xw c #2F280E",
"Xe c #0EBCB3",
"Xr c #96A794",
"Xt c #4A4339",
"Xy c #2B1D14",
"Xu c #5C8C72",
"Xi c #287D42",
"Xp c #44A499",
"Xa c #547A53",
"Xs c #53ABB5",
"Xd c #53623B",
"Xf c #2F6253",
"Xg c #352F21",
"Xh c #7FA991",
"Xj c #567055",
"Xk c #0E382C",
"Xl c #4D6F56",
"Xz c #4C7780",
"Xx c #577577",
"Xc c #072D04",
"Xv c #597044",
"Xb c #677B5F",
"Xn c #488768",
"Xm c #262A1C",
"XM c #1D8B4E",
"XN c #368B6A",
"XB c #1EABBC",
"XV c #174238",
"XC c #3E635B",
"XZ c #276F2D",
"XA c #24241A",
"XS c #3F4E3B",
"XD c #403225",
"XF c #388A62",
"XG c #928F7C",
"XH c #313B20",
"XJ c #5E8477",
"XK c #768067",
"XL c #35713E",
"XP c #1FB8CA",
"XI c #73644D",
"XU c #2D9B78",
"XY c #1FB4CA",
"XT c #1DB6C8",
"XR c #2EAF90",
"XE c #242F27",
"XW c #35C3D9",
"XQ c #4C3D2A",
"X! c #14A8A8",
"X~ c #353B3B",
"X^ c #83A08E",
"X/ c #7A7361",
"X( c #21B3C2",
"X) c #5D6C4B",
"X_ c #636051",
"X` c #030100",
"X' c #27AABE",
"X] c #1B8D4F",
"X[ c #2A854A",
"X{ c #95A799",
"X} c #2C5149",
"X| c #433721",
"o  c #108C4E",
"o. c #2AAAAD",
"oX c #21A4B8",
"oo c #5A7355",
"oO c #23A1B0",
"o+ c #69625A",
"o@ c #001300",
"o# c #A7AF9A",
"o$ c #15220E",
"o% c #000F00",
"o& c #4A3F2B",
"o* c #1EB197",
"o= c #318554",
"o- c #396E66",
"o; c #000B00",
"o: c #49784E",
"o> c #23321F",
"o, c #3D6735",
"o< c #5DA99D",
"o1 c #436C5C",
"o2 c #499D86",
"o3 c #2E9D68",
"o4 c #123F18",
"o5 c #30976A",
"o6 c #1BB1BF",
"o7 c #28735F",
"o8 c #001517",
"o9 c #248051",
"o0 c #2FA4B5",
"oq c #462F27",
"ow c #424244",
"oe c #51A991",
"or c #224821",
"ot c #269560",
"oy c #576969",
"ou c #327941",
"oi c #13A9B7",
"op c #392C24",
"oa c #535844",
"os c #23A4A9",
"od c #2D2F22",
"of c #4A5745",
"og c #384730",
"oh c #382D19",
"oj c #126C53",
"ok c #5B7B70",
"ol c #5C6850",
"oz c #708C7E",
"ox c #1F4C35",
"oc c #403A2E",
"ov c #776D64",
"ob c #497947",
"on c #070000",
"om c #507444",
"oM c #16AFBD",
"oN c #348A67",
"oB c #438F83",
"oV c #535C47",
"oC c #37763F",
"oZ c #00614B",
"oA c #2F5234",
"oS c #34A59F",
"oD c #619C86",
"oF c #32855B",
"oG c #3C9672",
"oH c #1AB4CE",
"oJ c #34A895",
"oK c #83A58D",
"oL c #227E69",
"oP c #AAC6B0",
"oI c #606257",
"oU c #26AEC6",
"oY c #457A50",
"oT c #218E54",
"oR c #413A32",
"oE c #47392E",
"oW c #332421",
"oQ c #0D200C",
"o! c #467B47",
"o~ c #3D8F69",
"o^ c #5C8160",
"o/ c #242D1C",
"o( c #34603C",
"o) c #416D56",
"o_ c #1CAC91",
"o` c #357654",
"o' c #287030",
"o] c #473624",
"o[ c #3E9060",
"o{ c #5D6840",
"o} c #16ADC0",
"o| c #2EBAD1",
"O  c #839683",
"O. c #486053",
"OX c #307D45",
"Oo c #383429",
"OO c #4F6A71",
"O+ c #23BBD0",
"O@ c #1F9B5F",
"O# c #1E8347",
"O$ c #88917E",
"O% c #34783F",
"O& c #408558",
"O* c #78AD99",
"O= c #439972",
"O- c #305038",
"O; c #3B2D22",
"O: c #B1A8A3",
"O> c #527756",
"O, c #32A5A0",
"O< c #2E4E36",
"O1 c #2F4341",
"O2 c #392B20",
"O3 c #48814C",
"O4 c #327D5E",
"O5 c #288B54",
"O6 c #9B948A",
"O7 c #377163",
"O8 c #3A7352",
"O9 c #2C804E",
"O0 c #36794E",
"Oq c #21ADBA",
"Ow c #1CA8BF",
"Oe c #BAADA5",
"Or c #7F9682",
"Ot c #452C25",
"Oy c #13A88B",
"Ou c #131001",
"Oi c #BDC0B5",
"Op c #2E7146",
"Oa c #3C828C",
"Os c #52784F",
"Od c #2C875B",
"Of c #24AA9F",
"Og c #3C2A1C",
"Oh c #308E80",
"Oj c #909D8C",
"Ok c #696252",
"Ol c #616C4A",
"Oz c #076265",
"Ox c #3C8943",
"Oc c #1F4B34",
"Ov c #2694A1",
"Ob c #2DBFCC",
"On c #222416",
"Om c #476644",
"OM c #1DB9D0",
"ON c #737B6C",
"OB c #39A399",
"OV c #4FA9B2",
"OC c #4C8D6D",
"OZ c #868478",
"OA c #4A784A",
"OS c #ABA599",
"OD c #44774E",
"OF c #0E8368",
"OG c #427681",
"OH c #95908A",
"OJ c #444C41",
"OK c #97A999",
"OL c #1A4732",
"OP c #4F835C",
"OI c #3A7944",
"OU c #747A7A",
"OY c #495F53",
"OT c #3D503A",
"OR c #20AAB5",
"OE c #12AEBB",
"OW c #12B7B1",
"OQ c #291F16",
"O! c #387742",
"O~ c #27392B",
"O^ c #BBB198",
"O/ c #28B3CA",
"O( c #3F8881",
"O) c #297C68",
"O_ c #3EADB8",
"O` c #273221",
"O' c #55806F",
"O] c #26AC93",
"O[ c #1FB3C1",
"O{ c #2E874F",
"O} c #3F7D4C",
"O| c #405840",
"+  c #265C4E",
"+. c #4B9586",
"+X c #25AABD",
"+o c #3F8D63",
"+O c #458994",
"++ c #2FA8B3",
"+@ c #23A8BB",
"+# c #796A57",
"+$ c #5D7B59",
"+% c #2EBEC9",
"+& c #2DA6B1",
"+* c #2BA284",
"+= c #367943",
"+- c #407F64",
"+; c #527362",
"+: c #2E5E2E",
"+> c #434339",
"+, c #002822",
"+< c #000E0B",
"+1 c #186761",
"+2 c #2F3322",
"+3 c #8C837A",
"+4 c #1F1B0F",
"+5 c #177C42",
"+6 c #584A47",
"+7 c #919C8C",
"+8 c #0F2113",
"+9 c #373E37",
"+0 c #1DB5C2",
"+q c #25AEC0",
"+w c #18B0C7",
"+e c #59796C",
"+r c #47484A",
"+t c #6D5A4B",
"+y c #183A15",
"+u c #39A281",
"+i c #ABA58B",
"+p c #2E3A2E",
"+a c #0E2E1F",
"+s c #3B7A41",
"+d c #524137",
"+f c #B19C87",
"+g c #2E8769",
"+h c #55725E",
"+j c #157657",
"+k c #2BBFBF",
"+l c #09B7AE",
"+z c #49564F",
"+x c #2C9088",
"+c c #97B7A2",
"+v c #5A6B59",
"+b c #218666",
"+n c #1D4648",
"+m c #3D7164",
"+M c #646C45",
"+N c #52737C",
"+B c #A5A79C",
"+V c #518767",
"+C c #54816A",
"+Z c #101E0D",
"+A c #609579",
"+S c #307757",
"+D c #55684A",
"+F c #83978B",
"+G c #322514",
"+H c #29AEB3",
"+J c #606441",
"+K c #3B342A",
"+L c #192C19",
"+P c #26491F",
"+I c #40753F",
"+U c #AB978E",
"+Y c #70615E",
"+T c #22BBCD",
"+R c #28BAC9",
"+E c #26ADA6",
"+W c #1C9464",
"+Q c #3A4736",
"+! c #309CA6",
"+~ c #0D4224",
"+^ c #9F928C",
"+/ c #2AA0A0",
"+( c #4D9591",
"+) c #ABA29B",
"+_ c #269E9C",
"+` c #1D835B",
"+' c #6D775E",
"+] c #606644",
"+[ c #367B4C",
"+{ c #1C3B40",
"+} c #2B241A",
"+| c #40724C",
"@  c #416557",
"@. c #413C1F",
"@X c #002800",
"@o c #4D4C2E",
"@O c #6F6856",
"@+ c #61A580",
"@@ c #417F5A",
"@# c #22A2AF",
"@$ c #A4AFA1",
"@% c #58583C",
"@& c #76736A",
"@* c #193529",
"@= c #27A2A0",
"@- c #6C6549",
"@; c #322D1A",
"@: c #189BAF",
"@> c #238B50",
"@, c #1A1809",
"@< c #686345",
"@1 c #312519",
"@2 c #1A8C51",
"@3 c None",
/* pixels */
".Z SoU.{o|Ow.'O/.j x RXW y |.:.kOMoH.6.^+wO+XPXT",
"+@+XoX@:X'.E+qXBX(O[o6oi.]Ob.b c -XY.x.ro}.g+T.p",
" ^ hX@.L.R+++HX!.G+lXeOW+kosOvX$@#OROq+% E+0oMOE",
"@=.  d 6+_X,+E.1.T.A =Of.`OzOaX&OV F+!.a s.0.,+R",
"OB @ } *o*Oyo_O]oJOhO(XO+n+{OO V+NXzOG+O ~X9o0oO",
"oB !oZOFXR _+* p.<XVO1X~ <ow+rOU toyXxX*.zXsO_+&",
"XCXk.%.q Z.noD %.- H.SoWX8oR+>ON+v+ho1O7+1 (+/o.",
"+9XE.lOY g YX{.~@&Oe 7 CXy b.}oaXKXooKO*+.XpO,X,",
".hon mO: iX#o+O6XtOS+4OuX`@,.9XGO^+io#X^.|o<+xoS",
"+6 ,+Y.u+^+)OZ 1+QXroQo;o/.B lX6+f k.f+7oko-+( Q",
"oI 5 JOi@$OK XXh+A #+~o%o@Xmov+U.8+# .+B+z+<o8 z",
" '+Z TOjO +cXuOCo~ +O=+S I+8OH+3O$OTOr K+eX}+, B",
".cO|o>ofXSoP ] jo5.s+W fO4OL.*+F+-oN 4XN {X-oeoj",
"O>o^oA 3.3 a@+XF P.4+`oG.[ :ozO'+gXU+u+b+j.7 M.!",
"o(OPO0o[X<  X3oFXn+C+; ;X++aX  qo2oLO)o7.Q.2.eXJ",
"o4oYO& [.Mo9X0O8O-..Oo.FXq+p L A+m 0+ Xf 2@ @*O.",
"orXa W oO<.d+LO`.K@;.P.iXDO;op.FXAOJO~X..5oxOco)",
"Os+yooo$od+KOQ@1 n 8X=X|o].COtoq+dX_.tXl+VXX.&o`",
"OAXc+$ogOn+} uoE.wohXwX7X=o&X%OkoVXj /@@+o OOd.;",
"o!+:X5Xb+2ocX>.v+GX2@.@o@%.$ eol.D+|Opo= >X1o3ot",
"+sO3@X./.(XgO2OgXQ.V v+]OlX)+DOmOD+[O9O5@2 DO@.#",
"o'.>.W.m.o.+.X+t `@-+JXd & UX4o:O}.)O{.UX] 9 No ",
".JXZ+I.N+'X/ $X:.=@<+MXvomob.@XLO!ou._X[ G wXMoT",
".OOx.Y+PXH@O r )XIX;o{.Io,.HOI+=oCO%OXXi.yO#+5@>"
};
