/* XPM */
static char *trava_xpm[] = {
/* width height num_colors chars_per_pixel */
"    24    24      128            2",
/* colors */
"`` c #0c0900",
"`. c #6c761a",
"`# c #acae53",
"`a c #343f00",
"`b c #8b9239",
"`c c #4c5a00",
"`d c #6c6600",
"`e c #847e28",
"`f c #9c9941",
"`g c #5c6600",
"`h c #84862a",
"`i c #74822c",
"`j c #1c2200",
"`k c #6c6e00",
"`l c #9ca248",
"`m c #74772e",
"`n c #4c4600",
"`o c #5c5b00",
"`p c #948e37",
"`q c #ccca74",
"`r c #84893d",
"`s c #5c5d1c",
"`t c #6c7125",
"`u c #bcc264",
"`v c #342e00",
"`w c #aca840",
"`x c #7c781b",
"`y c #8c9244",
"`z c #4c4f00",
"`A c #5c6200",
"`B c #141800",
"`C c #b4b65f",
"`D c #5c661c",
"`E c #6c691d",
"`F c #8c8e31",
"`G c #5c5600",
"`H c #9f9e43",
"`I c #7c721c",
"`J c #9ca65c",
"`K c #3c4a00",
"`L c #6c6f17",
"`M c #747e2c",
"`N c #747e21",
"`O c #848229",
"`P c #8c882a",
"`Q c #242e00",
"`R c #645e00",
"`S c #949333",
"`T c #646e14",
"`U c #8b8e3d",
"`V c #545600",
"`W c #74771a",
"`X c #acae60",
"`Y c #646700",
"`Z c #747126",
"`0 c #3a3800",
"`1 c #151100",
"`2 c #444100",
"`3 c #6c6a11",
"`4 c #a4aa4c",
"`5 c #7c782e",
"`6 c #7c7e22",
"`7 c #949a47",
"`8 c #241e00",
".` c #747019",
".. c #dcd68c",
".# c #ccc674",
".a c #2c2600",
".b c #000f00",
".c c #aca855",
".d c #443a00",
".e c #546200",
".f c #7c8a34",
".g c #64621e",
".h c #646e1f",
".i c #a4aa57",
".j c #3c4600",
".k c #242a00",
".l c #4c4a00",
".m c #343200",
".n c #1b1e00",
".o c #a19e4f",
".p c #445200",
".q c #858236",
".r c #2c3600",
".s c #949a3c",
".t c #e0de8c",
".u c #847e38",
".v c #9c984e",
".w c #545a00",
".x c #7c822a",
".y c #a4a34a",
".z c #645e21",
".A c #c4c16c",
".B c #949447",
".C c #545100",
".D c #bcb964",
".E c #746a1c",
".F c #444600",
".G c #2c2a00",
".H c #646200",
".I c #7c7e2e",
".J c #b4b054",
".K c #746f0c",
".L c #8c893d",
".M c #a4a454",
".N c #b4af5d",
".O c #6c7824",
".P c #3c3f00",
".Q c #6c6614",
".R c #5c6714",
".S c #848834",
".T c #242400",
".U c #5c5d14",
".V c #948e44",
".W c #aca84c",
".X c #7c7924",
".Y c #1c1900",
".Z c #64691c",
".0 c #6c6a2c",
".1 c #5c5614",
".2 c #444a00",
".3 c #8c8934",
".4 c #2c2f00",
".5 c #645e14",
".6 c #94933c",
".7 c #747724",
".8 c #646714",
/* pixels */
".p`z.j.m.w`z`u.4.4`t`o.4.w`z`L.U.F.T.S.U.m.U.8.P",
"`a.j.O`M.8`t.k`t.Z`L`0.2.m.8`C.I.x`D.Z`t.n.F.S.Z",
".p`.`M.2`V.Z`t.P.U`V`L.Z.S`z.U.w`t.y`o`L`o`A.X.w",
".n`a`U.U`5`A.P.4`z.m.8`V.7.U`L`L`z`x.`.8.8`o.``V",
".R.k.P.6`z.3`F`H.g.``h`0`5.3`2`0.l.`.``P`6`3.6.7",
".x`.`V.m.6`h`S`F`L.8.c`2.a`8`Z.C`f`0.H.y.X`G`0.Q",
".P.Z.U.`.H.C`3`W`L.3.G.C.4.C`z`o.F`v`E`0.m.T.g.5",
".U.T.4.P`0`z`3`F.``6.`.C.X.y`G`x`3.C.g.g.8.n.U`n",
".4.n`0.3`e`L`z```3`0`o.C`o.Q`z`3`3.t`2.C.P`G`2.U",
"`t.4.x.l.``6`x.Y`G`h.H`0.H.l`5`e.Q.l`0`E.C`o.C.I",
"`j`o`F`3`L`P`Y.H`0.3.C.l`O.m`E`V`P`W.l`v.C.T`F.l",
"`W`g`A`z`P`6.P.K`F`o.U.l`F`H.Q`8`2`3.H.`.H.a`f.g",
".H`0.Y`0`0`V.8`P`6.F.``f`2.C.`.l.H.C`V`v.l`6.Q`o",
"`V.8.U`L`3.C`6`z`x`h.m`O.``G`G.C`G`0.Y.S.`.C`0`3",
"`L.U.S`5.F.T`f`v`2`O`O.`.C.X.C.o`n`f.5.g.l.C`e.5",
"`0`G`2.4.6`o`e.3.C.U.C.X`f`o`2`R`````n.`.G.8.T`p",
".G.C`0.H.m`O.H`f.5.C.8`0.X`n.W.H`e.C`G`Z.Y`v`f`0",
".m`z`3`6`O`Y.J`G.T`R`x.m.D`0`2`z`x`x.T.L.1`2.C`v",
"`o.F.8`L`o`O`e.``x`d`S.K.C.#`x`3`2`2`n.Q`v`G`p.3",
".S`F`L.m`x`0`n.J.H`3.l`2`2.Q`0.Q`f`2`G.Q.X.l`2`v",
".F`z.U.C.X`3`x`S`2`e`n`d`2`x.Q.H.`.m.6.Q.3.X`8.l",
".B.g.T.8.Q.U`R`H`v.Q.3.`.a.`.m.``0.C.X`R`O.`.N.H",
".m.S.F.X.Q.7`p`O`3.C.a`n`5.5.`.C`x.m.C.`.``n`G.Y",
".S`j.U.T.y.C`G.H`n.Q`n.V.Q`n.C`x`2.K`2.C`f`0`p`0"
};
